<svg width="60" height="60" viewBox="0 0 60 60" fill="none" xmlns="http://www.w3.org/2000/svg"><g clip-path="url(#clip0_14_238)"><path d="M41.987 0c.256.085.515.157.768.254 1.672.593 2.767 2.133 2.836 3.993.01.25 0 .498 0 .814h10.06c2.035 0 3.206 1.16 3.206 3.19v43.694c.01.195 0 .39-.026.584a1.18 1.18 0 01-1.164.966 1.182 1.182 0 01-1.142-1.055 5.877 5.877 0 01-.011-.643V8.452c0-.978-.07-1.048-1.074-1.047-1.212 0-2.423.004-3.633.013a1.006 1.006 0 00-.2.065v1.23c-.022 2.078-1.517 3.585-3.59 3.586-7.578.006-15.156.006-22.733 0-2.068 0-3.562-1.515-3.582-3.6V7.4h-3.197c-1.879-.007-1.713-.105-1.711 1.7v8.871c.216-.17.346-.272.47-.377 3.724-3.014 7.873-3.867 12.323-2.02 4.451 1.848 7.036 5.3 7.482 10.14.684 7.45-5.7 13.661-13.15 12.838-1.204-.133-2.372-.584-3.562-.872-.177-.042-.45-.077-.554.019-.838.782-1.644 1.606-2.477 2.433.086.112.141.189.202.261.553.651.587 1.252-.04 1.799-.567.5-.718 1.052-.711 1.786.034 4.218.017 8.437.017 12.656 0 .94.067 1.013.981 1.013h37.791c.855 0 .95-.09.95-.93v-6.623c.04-.685.505-1.144 1.154-1.15a1.118 1.118 0 011.173 1.13c.019 2.422.044 4.844-.012 7.265-.033 1.445-1.272 2.576-2.72 2.645-.175.01-.35 0-.527 0H17.739c-2.166 0-3.287-1.117-3.287-3.273V45.312c-.229.207-.382.337-.526.479-1.478 1.476-2.937 2.975-4.437 4.429C6.622 53 1.954 52.127.484 48.515c-.872-2.142-.581-4.2 1.022-5.877 2.687-2.809 5.47-5.522 8.226-8.265.602-.6 1.14-.538 1.988.179.82-.82 1.65-1.638 2.458-2.478a.52.52 0 00.023-.453c-1.471-3.424-1.418-6.821.135-10.207a1.86 1.86 0 00.111-.736c.006-4.14.006-8.28 0-12.421 0-2.035 1.165-3.186 3.205-3.19h10.027c.025-.45.025-.838.072-1.22.235-1.9 1.45-3.265 3.303-3.733.091-.028.18-.065.265-.108L41.987 0zM25.115 36.272c5.465-.047 9.756-4.324 9.68-9.65-.077-5.392-4.41-9.669-9.748-9.62a9.645 9.645 0 00-9.55 9.747 9.55 9.55 0 009.618 9.523zM49.25 7.405h-.678c-1.365 0-2.732.008-4.099 0-.77 0-1.197-.432-1.22-1.194-.016-.605 0-1.21-.008-1.816-.027-1.253-.816-2.036-2.07-2.036a2290.18 2290.18 0 00-9.08 0c-1.222 0-2.01.783-2.036 2.012-.015.604 0 1.21-.01 1.816-.02.799-.442 1.22-1.252 1.226-1.366.012-2.733 0-4.098 0h-.66v.899c0 1.35.312 1.662 1.641 1.662h21.96c.195.007.39.004.584-.01a1.096 1.096 0 001.01-.976c.046-.509.016-1.013.016-1.583zM10.54 36.838c-2.492 2.517-5.063 5.025-7.515 7.636-1.077 1.145-.839 3.042.292 4.148 1.275 1.252 3.23 1.214 4.566-.112 2.316-2.293 4.614-4.605 6.917-6.912.092-.092.174-.198.233-.269l-4.493-4.491zm3.012-.686l2.126 2.129 1.998-1.973-2.106-2.155-2.018 1.999z" fill="#3E579E"/><path d="M21.83 48.019c0-3.717 2.662-6.55 5.893-6.657.949-.031 1.47.334 1.517 1.061.05.77-.445 1.22-1.396 1.28a3.903 3.903 0 00-3.67 3.902 3.914 3.914 0 002.868 3.769 3.894 3.894 0 004.4-1.743c.1-.166.178-.346.268-.518.345-.648.959-.894 1.566-.626.607.268.85.93.551 1.628a5.812 5.812 0 01-2.113 2.597c-2.069 1.387-4.27 1.578-6.482.439-2.212-1.14-3.3-3.06-3.402-5.132zm22.818-4.475c1.695 0 3.392-.015 5.086 0 1 .013 1.566.91 1.121 1.723-.269.488-.721.618-1.236.618H39.91a4.337 4.337 0 01-.699-.04 1.138 1.138 0 01-.973-1.194 1.109 1.109 0 011.031-1.08c.627-.044 1.253-.025 1.87-.026 1.17-.004 2.339-.004 3.508 0z" fill="#3E579E"/><path d="M45.035 22.38h4.567c.859 0 1.391.444 1.409 1.152.017.707-.542 1.188-1.43 1.188h-9.08c-.922 0-1.442-.421-1.451-1.158-.008-.77.505-1.182 1.478-1.184l4.507.002z" fill="#FBBA07"/><path d="M28.434 46.812c1.211-1.215 2.265-2.31 3.372-3.349.283-.266.756-.515 1.108-.477.352.037.75.393.952.718.25.404.093.877-.25 1.23-.573.588-1.156 1.164-1.735 1.745l-2.32 2.318c-.723.717-1.33.711-2.064-.017-.4-.398-.803-.798-1.2-1.2-.627-.627-.688-1.352-.174-1.848.513-.496 1.191-.446 1.84.216.175.209.332.43.47.664zm14.314 4.629h-3.163c-.81 0-1.334-.457-1.348-1.146-.014-.717.514-1.191 1.357-1.193 2.147-.006 4.294-.006 6.44 0 .79 0 1.33.493 1.326 1.173-.005.68-.542 1.161-1.334 1.166-1.093.006-2.186 0-3.279 0z" fill="#3E579E"/><path d="M43.181 30.273c-.94 0-1.878.01-2.805 0-.83-.01-1.322-.448-1.328-1.15-.006-.703.495-1.178 1.306-1.184 1.889-.014 3.778-.014 5.667 0 .81 0 1.332.48 1.34 1.162.008.68-.521 1.164-1.374 1.174-.937.008-1.871-.002-2.806-.002zM23.61 28.507c1.75-1.753 3.427-3.444 5.116-5.115.209-.228.469-.403.758-.511a1.057 1.057 0 011.262.497 1.081 1.081 0 01-.127 1.402c-.502.544-1.038 1.056-1.565 1.58a4340.172 4340.172 0 01-4.345 4.345c-.801.8-1.354.805-2.142.02a414.126 414.126 0 01-2.523-2.523c-.675-.678-.764-1.36-.252-1.879.512-.518 1.233-.45 1.93.254.62.617 1.227 1.25 1.888 1.93z" fill="#FBBA07"/><path d="M36.595 7.331c-.626 0-1.245.011-1.868 0-.851-.017-1.377-.483-1.366-1.19.01-.705.52-1.14 1.341-1.147 1.324-.013 2.647-.013 3.97 0 .805.01 1.322.495 1.31 1.179-.013.684-.513 1.116-1.285 1.157h-2.102v.001z" fill="#3E579E"/></g><defs><clipPath id="clip0_14_238"><path fill="#fff" d="M0 0h60v60H0z"/></clipPath></defs></svg>