<svg width="60" height="60" viewBox="0 0 60 60" fill="none" xmlns="http://www.w3.org/2000/svg"><g clip-path="url(#clip0_14_41)"><path d="M52.473 58.981a1.13 1.13 0 000-.454V48.275a8.482 8.482 0 01-.072-.239c-.568-3.4-2.442-5.82-5.683-7.153-1.914-.782-3.843-1.552-5.81-2.19l-1.906-.73a12.73 12.73 0 01-2.556-1.534c-.498-.469-.994-.938-1.502-1.408-.027-.03-.055-.058-.082-.089-.328-.375-.838-.593-1.395-.964-.114-.966-.261-2.121-.371-3.285a.184.184 0 010-.04 1.05 1.05 0 01.203-.34 1 1 0 01.075-.069c2.446-1.946 3.941-4.452 4.398-7.544.133-.902.114-1.829.136-2.745a.781.781 0 01.366-.715c2.075-1.436 2.202-4.224.313-5.881a1.184 1.184 0 01-.264-.626c-.208-2.908-1.227-5.266-3.027-7.092a10.984 10.984 0 00-7.388-3.457.83.83 0 01-.47-.218c-.14-.575-.493-.927-1.094-.954a.88.88 0 00-.09 0 .864.864 0 00-.092 0c-.602.027-.954.379-1.095.954a.834.834 0 01-.47.218c-2.815.161-5.46 1.4-7.388 3.457-1.8 1.826-2.816 4.184-3.026 7.092a1.2 1.2 0 01-.266.626c-1.891 1.657-1.766 4.444.313 5.88a.773.773 0 01.368.716c.022.916 0 1.843.136 2.745.455 3.092 1.95 5.598 4.396 7.544.027.022.053.045.077.069.088.1.156.214.202.34a.184.184 0 010 .04c-.11 1.158-.257 2.312-.37 3.285-.558.371-1.068.589-1.397.964-.026.031-.054.06-.081.09-.507.46-1.004.938-1.502 1.407a12.723 12.723 0 01-2.555 1.534l-1.915.733c-1.968.626-3.897 1.399-5.81 2.19C2.538 42.218.663 44.64.095 48.038l-.072.24V58.53a1.285 1.285 0 00-.023.206c0 .083.008.166.023.248v.189c.047.076.1.148.157.216a1.095 1.095 0 00.712.493c.137.027.276.043.416.048.133.014.267.02.4.02a32366.791 32366.791 0 0149.071 0 3.56 3.56 0 00.4-.02c.14-.005.28-.021.418-.048a1.093 1.093 0 00.71-.493c.058-.068.11-.14.157-.216l.01-.193zm-6.69-8.199a3.047 3.047 0 00-.06-.696 1.131 1.131 0 00-1.217-.875 1.131 1.131 0 00-1.04 1.014c-.02.215-.027.43-.021.645v6.688H27.47V43.076c.939.844 1.824 1.622 2.696 2.404.482.432.854.637 1.212.609.358-.028.721-.276 1.155-.792 1.445-1.72 2.9-3.427 4.333-5.162.188-.227.35-.304.576-.263a.633.633 0 01.067.02c1.565.609 3.147 1.186 4.717 1.782l.535.203c.98.376 1.956.762 2.923 1.172 2.925 1.24 4.537 3.442 4.458 6.743-.056 2.38-.01 4.762-.012 7.142 0 .206-.017.411-.028.636h-4.315v-.699l-.003-6.089zM9.499 57.558c-.013-.213-.036-.418-.036-.626v-6.089a3.792 3.792 0 00-.057-.756 1.123 1.123 0 00-1.154-.88 1.12 1.12 0 00-1.095.954 6.03 6.03 0 00-.035.875v6.535h-4.73c-.01-.226-.029-.43-.029-.637 0-2.38.044-4.763-.01-7.142-.079-3.306 1.533-5.504 4.457-6.743.966-.41 1.943-.796 2.923-1.172l.536-.203c1.564-.596 3.149-1.173 4.715-1.782a.661.661 0 01.069-.02c.226-.041.388.036.575.263 1.432 1.72 2.888 3.441 4.332 5.162.435.516.782.782 1.155.792.372.01.732-.177 1.212-.609.873-.782 1.75-1.564 2.696-2.404V57.56l-15.524-.003zm18.93-43.289a10.422 10.422 0 00-.438-.062l-.243-.025c-.113-.011-.224-.025-.336-.033l-.283-.019-.3-.017h-1.163l-.299.017-.282.019c-.112.008-.225.022-.336.033l-.244.025c-.145.017-.293.039-.438.062-.045 0-.092.011-.138.02a16.003 16.003 0 00-6.727 2.83 1.76 1.76 0 01-1.114.373h-.106a1.18 1.18 0 01-.762-.479c-.482-.646-.313-1.456.47-2.01 3.145-2.24 6.633-3.46 10.556-3.518 3.924.058 7.411 1.278 10.559 3.518.782.554.953 1.364.47 2.01a1.186 1.186 0 01-.761.48h-.107a1.765 1.765 0 01-1.114-.373 16.009 16.009 0 00-6.727-2.832c-.048-.008-.089-.012-.136-.019h-.001zM27.38 4.535a8.318 8.318 0 015.86 2.388 8.305 8.305 0 012.482 4.568c-2.76-1.368-5.51-2.14-8.252-2.316h-.011a14.993 14.993 0 00-.477-.023h-1.467c-.157 0-.313.013-.47.023h-.01c-2.746.178-5.497.95-8.253 2.316a8.304 8.304 0 012.48-4.568 8.321 8.321 0 015.86-2.388c.377 0 .756-.014 1.133-.02s.75.017 1.126.02h-.002zM16.974 20.078a.574.574 0 01.283-.358c.107-.064.216-.124.326-.183.066-.022.134-.04.203-.053.355-.07.67-.384.986-.61l.028-.02.075-.048a13.35 13.35 0 013.966-1.877 13.103 13.103 0 012.952-.47h.052l.403-.009.404.01h.053c.998.043 1.988.2 2.95.469a13.327 13.327 0 013.968 1.877c.024.017.05.033.075.049l.029.018c.312.227.625.542.985.61.069.014.136.032.202.054.11.06.219.119.325.183a.581.581 0 01.285.358 10.417 10.417 0 01-.496 4.055 9.449 9.449 0 01-2.788 4.049c-.592.48-1.245.88-1.943 1.188a10.55 10.55 0 01-4.049.938 10.543 10.543 0 01-4.047-.939 8.545 8.545 0 01-1.943-1.187 9.437 9.437 0 01-2.79-4.049 10.388 10.388 0 01-.494-4.055zm11.192 20.445l5.354-3.624 1.661 1.576-3.995 4.74-3.02-2.693zm-6.846 2.692l-3.997-4.74 1.663-1.576 5.354 3.623-3.02 2.693zM26 38.776c-1.521-1.002-3.027-2.033-4.537-3.058a.58.58 0 01-.172-.38c.108-1.18.252-2.347.388-3.576a12.23 12.23 0 004.57.912 12.217 12.217 0 004.572-.912c.138 1.221.28 2.396.388 3.576a.579.579 0 01-.17.38 298.756 298.756 0 01-4.537 3.058.503.503 0 01-.257.062.506.506 0 01-.253-.062H26z" fill="#3E579E"/><path d="M48.112 26.732h-2.57c-1.878-.017-3.273-1.341-3.311-3.225a167.52 167.52 0 010-6.497c.031-1.855 1.373-3.237 3.227-3.257 3.767-.042 7.532-.042 11.297 0 1.907.022 3.23 1.447 3.24 3.362.01 2.086.01 4.172 0 6.258-.01 1.97-1.39 3.389-3.357 3.335-1.051-.028-1.72.127-2.308 1.214-.97 1.796-2.808 2.644-4.704 3.23-.816.254-1.472-.284-1.503-1.157-.032-.873-.008-1.72-.01-2.575l-.001-.688zm2.346 1.492c1.31-.522 2.151-1.49 2.347-2.631.149-.875.521-1.194 1.427-1.203h2.347c.752 0 1.08-.313 1.084-1.058a898.49 898.49 0 000-6.143c0-.74-.332-1.096-1.058-1.096-3.65-.011-7.296-.011-10.938 0-.742 0-1.085.345-1.096 1.081a629.15 629.15 0 000 6.144c0 .773.335 1.078 1.127 1.081h3.276c1.065 0 1.477.42 1.484 1.496 0 .754-.004 1.508-.004 2.33h.004z" fill="#FBBA07"/><path d="M17.34 51.902c.722 0 1.441-.01 2.161 0 .759.014 1.252.492 1.252 1.172 0 .68-.504 1.158-1.263 1.164-1.42.013-2.841.013-4.261 0-.769 0-1.268-.47-1.28-1.145-.013-.712.483-1.181 1.286-1.192.704-.007 1.405.001 2.105.001z" fill="#3E579E"/><path d="M53.476 19.099a1.126 1.126 0 011.13 1.162 1.174 1.174 0 01-1.161 1.15 1.217 1.217 0 01-1.172-1.214 1.152 1.152 0 011.203-1.098zm-4.551-.008a1.13 1.13 0 011.125 1.167 1.164 1.164 0 01-1.151 1.156 1.198 1.198 0 01-1.17-1.21 1.167 1.167 0 011.196-1.113z" fill="#FBBA07"/></g><defs><clipPath id="clip0_14_41"><path fill="#fff" d="M0 0h60v60H0z"/></clipPath></defs></svg>