<svg width="60" height="60" viewBox="0 0 60 60" fill="none" xmlns="http://www.w3.org/2000/svg"><g clip-path="url(#clip0_14_231)"><path d="M.003 43.318a1.64 1.64 0 011.503-.8c7.637.018 15.274 0 22.91.029 3.338.015 6.548.695 9.565 2.176a.727.727 0 00.582.031 15.812 15.812 0 016.27-2.123.907.907 0 00.177-.06V33.07h-4.477c-.25.433-.433.855-.714 1.191-.135.157-.46.224-.699.226-.65 0-1.044-.483-1.168-1.41h-7.095c-.03.12-.067.264-.097.41-.132.625-.598 1.028-1.179 1.009a1.167 1.167 0 01-1.124-1.132 11.337 11.337 0 01.636-4.553c2.163-6.408 6.312-10.85 12.88-12.838.966-.291 1.984-.413 3.07-.626v-1.024c.008-.897.453-1.455 1.165-1.466.712-.01 1.171.528 1.177 1.433v1.054c1.059.214 2.11.333 3.102.642 7.202 2.241 11.475 7.214 13.264 14.43.213.858.208 1.777.246 2.67.034.83-.407 1.352-1.087 1.408-.68.057-1.146-.425-1.252-1.252a1.155 1.155 0 00-.053-.18h-7.061c-.314 1.076-.649 1.451-1.284 1.436-.636-.016-.96-.387-1.23-1.431h-4.596v9.46h14.933c1.271 0 1.633.365 1.633 1.642v14.238c0 1.218-.358 1.589-1.553 1.59H41.514a3.467 3.467 0 01-.584-.033 1.157 1.157 0 01-.939-1.058 1.138 1.138 0 01.797-1.165c.285-.065.577-.093.869-.083H57.62V44.912H43.415v4.162h8.046a4.2 4.2 0 01.526.012 1.192 1.192 0 011.065 1.198 1.15 1.15 0 01-1.135 1.12 927.41 927.41 0 01-9.726 0c-.728 0-1.145-.517-1.15-1.342-.012-1.464 0-2.93 0-4.395v-.681c-3.102.382-5.697 1.647-7.815 3.845-1.472 1.53-3.067 2.887-4.941 3.903-2.587 1.4-5.345 2.176-8.29 2.192-5.624.022-11.25.01-16.875.011h-.734v2.726h40.152c.293-.01.585.013.873.069a1.142 1.142 0 01.544 1.89 1.15 1.15 0 01-.688.355 4.888 4.888 0 01-.644.026c-9.491 0-31.508 0-41.001.01-.728 0-1.309-.157-1.622-.87l.003-15.825zm2.363 9.267h.626c5.487 0 10.973-.01 16.46 0 5.213.014 9.354-2.191 12.72-6.077-.108-.055-.208-.113-.313-.157-2.597-1.096-5.323-1.476-8.118-1.48a8633.69 8633.69 0 00-20.735 0h-.64v7.714zm45.648-21.934c-.336-3.299-.924-6.494-2.402-9.444a12.043 12.043 0 00-1.923-2.762c-.922-.992-1.96-.958-2.932-.012a8.842 8.842 0 00-1.434 1.831c-1.384 2.349-2.06 4.956-2.52 7.62-.156.912-.26 1.832-.39 2.767h11.6zm2.49 0h6.89c-1.24-6.145-6.493-10.911-10.47-11.962a19.346 19.346 0 012.36 5.793c.48 2.017.816 4.077 1.22 6.163v.006zM37.528 18.642c-5.166 1.662-9.628 7.07-10.44 12.001h6.977c.445-4.218 1.278-8.264 3.463-12.007v.006z" fill="#3E579E"/><path d="M18.485 17.713l-3.826 1.595v1.649c-.01.782-.503 1.327-1.184 1.315-.68-.013-1.14-.542-1.155-1.293-.013-.603 0-1.207 0-1.676l-3.83-1.597c-.288.314-.684.765-1.11 1.187-.588.583-1.252.61-1.76.104-.507-.506-.45-1.175.115-1.763.391-.407.792-.807 1.188-1.21.013-.015.017-.037-.023.054-.533-1.265-1.034-2.458-1.585-3.77H3.75c-.847-.01-1.387-.47-1.387-1.179 0-.709.522-1.15 1.388-1.161h1.574l1.612-3.891c-.277-.243-.73-.606-1.146-1.008-.618-.603-.67-1.292-.172-1.8.498-.51 1.212-.456 1.807.135.4.4.783.818 1.083 1.132 1.121-.449 2.125-.917 3.17-1.252.499-.157.72-.302.655-.84a7.7 7.7 0 010-1.288c.04-.71.539-1.176 1.212-1.155.645.018 1.096.485 1.12 1.182.023.626-.193 1.396.1 1.827.264.387 1.095.357 1.645.588.66.28 1.285.64 2.026 1.015.371-.396.77-.849 1.2-1.273.541-.534 1.24-.563 1.721-.105.481.459.483 1.198-.08 1.762-.424.425-.887.814-1.203 1.096l1.61 3.864c.456 0 1.058-.011 1.659 0 .782.017 1.276.452 1.29 1.135.014.682-.493 1.179-1.295 1.202-.567.017-1.132.013-1.699.02a.265.265 0 00-.092.036c-.193.627-.34 1.253-.582 1.837-.243.584-.586 1.143-.968 1.866.362.332.8.711 1.21 1.116.606.6.669 1.305.185 1.807-.518.537-1.198.484-1.844-.156-.41-.395-.786-.813-1.064-1.107zM13.507 5.407a5.74 5.74 0 00-5.757 5.707 5.779 5.779 0 005.726 5.755 5.756 5.756 0 005.747-5.724 5.72 5.72 0 00-5.716-5.741v.003z" fill="#FBBA07"/></g><defs><clipPath id="clip0_14_231"><path fill="#fff" d="M0 0h60v60H0z"/></clipPath></defs></svg>