<svg width="60" height="60" viewBox="0 0 60 60" fill="none" xmlns="http://www.w3.org/2000/svg"><path d="M47.068 0c.174.074.346.157.523.22 1.35.501 2.282 1.72 2.286 3.156.017 6.019.017 12.038 0 18.057a3.398 3.398 0 01-3.35 3.373c-2.046.039-4.091.012-6.137.014H18.48c-1.849 0-3.216-1.02-3.61-2.7a5.116 5.116 0 01-.093-1.16c-.006-5.687-.006-11.373 0-17.058 0-2.07.782-3.13 2.748-3.819.033-.011.055-.05.082-.077L47.067 0zM17.143 11.738c-.01.213-.03.402-.03.591v8.649c0 1.133.368 1.5 1.508 1.5h27.41c1.14 0 1.516-.372 1.516-1.493v-8.65c0-.189-.016-.378-.027-.597H17.143zm30.379-4.68H17.16v2.27h30.362v-2.27zM17.126 4.642h30.4c.008-.157.02-.266.021-.38.028-1.66-.232-1.92-1.91-1.92H18.77c-.196 0-.391-.012-.584.007a1.117 1.117 0 00-1.049 1.003c-.04.421-.012.847-.012 1.291v-.001z" fill="#FBBA07"/><path d="M44.938 33.623a4.23 4.23 0 01.368-.505c2.21-2.282 4.423-4.56 6.64-6.833 2.224-2.27 6.12-1.748 7.456 1.12.825 1.77.76 3.631-.6 5.252a6804.86 6804.86 0 00-6.486 7.757c-1.096 1.314-2.22 2.615-3.296 3.948-2.146 2.66-4.954 3.885-8.317 3.899-4.99.018-9.979.053-14.965-.022-1.76-.027-2.862.92-3.928 2.061-.087.092-.072.32-.045.47.22 1.298-.079 2.431-1.032 3.37-1.804 1.777-3.6 3.561-5.412 5.334-.713.701-1.302.692-2.015-.028C9.049 55.161 4.794 50.873.54 46.583c-.724-.73-.721-1.322.011-2.06 1.73-1.74 3.47-3.472 5.196-5.219.813-.82 1.766-1.241 2.933-1.199a.773.773 0 00.573-.325c3.049-4.972 7.617-7.087 13.303-7.084 1.776.016 3.535.354 5.19.999.292.104.6.157.909.156 3.82.01 7.639.01 11.457 0 2.514.007 2.852.132 4.825 1.772zm-24.7 14.89c.176-.157.3-.255.403-.37 1.482-1.64 3.316-2.277 5.53-2.24 4.832.079 9.665.024 14.496.023 2.17 0 4.111-.647 5.708-2.138.594-.556 1.084-1.224 1.609-1.85 3.003-3.584 6.003-7.17 8.999-10.76.903-1.081.838-2.475-.129-3.355a2.327 2.327 0 00-3.266.13 1594.72 1594.72 0 00-7.492 7.716.864.864 0 00-.224.55c.022 2.974-1.957 5.008-4.953 5.008h-8.942a2.793 2.793 0 01-.637-.062 1.13 1.13 0 01-.877-1.158 1.126 1.126 0 01.958-1.096 5.02 5.02 0 01.756-.037h8.592a5.54 5.54 0 00.757-.04 2.332 2.332 0 002.002-2.19 2.338 2.338 0 00-1.664-2.348 4.451 4.451 0 00-1.156-.116c-4.13-.008-8.26 0-12.39-.01a2.713 2.713 0 01-1.027-.157 13.39 13.39 0 00-7.393-.819c-3.703.593-6.603 2.424-8.566 5.67-.213.352-.178.55.115.835 1.38 1.347 2.735 2.72 4.098 4.084a889.145 889.145 0 004.694 4.73zm-17.47-2.925l11.822 11.58c1.496-1.564 3.066-3.184 4.614-4.827.452-.48.4-1.132-.077-1.628-.554-.576-1.124-1.136-1.689-1.701a9796.885 9796.885 0 00-8.113-8.091c-.6-.598-1.197-.645-1.743-.113-1.589 1.557-3.155 3.132-4.814 4.78z" fill="#3E579E"/><path d="M41.63 20.132c-.739 0-1.48.011-2.218 0-.739-.01-1.213-.485-1.224-1.137a1.169 1.169 0 011.19-1.187c1.534-.025 3.07-.025 4.609 0 .748.011 1.236.532 1.216 1.212-.02.679-.5 1.095-1.24 1.114-.778.008-1.56-.002-2.333-.002zm-6.979-.002a1.149 1.149 0 01-1.145-1.148 1.192 1.192 0 011.188-1.18 1.193 1.193 0 011.145 1.165 1.15 1.15 0 01-1.188 1.162z" fill="#FBBA07"/></svg>