<svg width="60" height="60" viewBox="0 0 60 60" fill="none" xmlns="http://www.w3.org/2000/svg"><g clip-path="url(#clip0_1_212)"><path d="M0 6.8c.136-.503.244-1.016.41-1.508C1.52 2.044 4.405.01 7.922.01c10.37-.006 20.74-.006 31.11 0 1.345 0 2.727-.085 4.023.192 3.241.693 5.33 2.764 5.987 6.008.646 3.194-.481 5.83-3.082 7.814-.063.047-.126.092-.188.146-.03.024-.058.05-.155.134 2.279 1.595 3.583 3.751 3.588 6.538.004 2.787-1.253 4.937-3.576 6.563.318.257.62.484.905.734.587.51.684 1.174.269 1.706-.416.533-1.085.633-1.663.147-1.38-1.15-2.969-1.412-4.696-1.407-10.78.026-21.562.03-32.343.013-2.305 0-4.066.929-5.167 3-1.671 3.146.474 7.264 4.012 7.684.484.059.972.09 1.46.09a10355 10355 0 0018.982 0c1.073 0 1.64.393 1.661 1.147.02.754-.57 1.198-1.667 1.198-6.407 0-12.814-.055-19.223.017C3.53 41.786.475 38.42.087 35.066c0-.051-.058-.097-.088-.147v-1.76c.267-1.282.578-2.56 1.423-3.596.632-.777 1.368-1.468 2.009-2.147-.64-.677-1.377-1.368-2.01-2.146C.58 24.234.267 22.956 0 21.674v-1.64c.265-1.281.586-2.56 1.423-3.596.632-.776 1.368-1.467 2.007-2.145-.64-.678-1.376-1.37-2.007-2.146C.58 11.11.266 9.833-.001 8.552L0 6.8zm24.67 8.671H8.383c-.507.002-1.014.035-1.517.098-3.437.44-5.566 4.503-3.979 7.59 1.082 2.107 2.841 3.083 5.173 3.083h32.816c.487-.003.974-.035 1.458-.096 3.47-.431 5.609-4.518 3.995-7.622-1.08-2.079-2.824-3.053-5.136-3.057a8271.38 8271.38 0 00-16.521.004zm-.117-2.348h16.29a12.539 12.539 0 001.517-.098c3.435-.44 5.564-4.504 3.976-7.592-1.081-2.105-2.84-3.082-5.172-3.082H8.35a12.06 12.06 0 00-1.459.095c-3.47.432-5.607 4.518-3.993 7.622 1.08 2.076 2.822 3.055 5.136 3.058 5.505.008 11.012.009 16.52.003v-.006z" fill="#3E579E"/><path d="M58.483 60c-.392-.345-.803-.672-1.174-1.04-2.159-2.151-4.31-4.304-6.457-6.456a3.32 3.32 0 01-.355-.515C44.8 56.412 37.7 54.776 34.179 50.306c-3.67-4.654-3.305-11.192.855-15.309a11.466 11.466 0 0115.315-.78c4.455 3.56 6.03 10.623 1.634 16.28.184.102.357.22.518.355 2.285 2.271 4.565 4.548 6.84 6.828.926.926.88 1.553-.154 2.326L58.483 60zm-6.214-16.84a9.171 9.171 0 00-9.098-9.173 9.165 9.165 0 00-9.186 9.074c-.043 5.033 4.076 9.19 9.119 9.203a9.174 9.174 0 009.165-9.104z" fill="#FBBA07"/><path d="M24.027 60c-1.12-.276-2.12-.734-2.877-1.66-1.863-2.283-.99-5.8 1.75-6.883.415-.163.551-.355.543-.795-.03-1.446-.012-2.891-.01-4.335 0-.542.24-.959.745-1.154.45-.173.94-.122 1.227.276.217.317.34.688.355 1.071.04 1.405.026 2.812.009 4.218 0 .355.072.546.44.684a4.154 4.154 0 012.494 2.476c.13.331.294.44.639.44a243.23 243.23 0 014.922 0c.843 0 1.32.383 1.378 1.042.064.703-.369 1.234-1.138 1.268-1.027.046-2.069.02-3.103.023-.703 0-1.408-.017-2.11.014a.63.63 0 00-.473.286c-.61 1.614-1.761 2.587-3.424 2.966-.032 0-.057.048-.086.073L24.027 60zm.587-6.557a2.107 2.107 0 00-1.972 2.869 2.104 2.104 0 001.936 1.337 2.129 2.129 0 002.128-2.116 2.13 2.13 0 00-2.09-2.09h-.002zM0 55.195c.305-.673.847-.88 1.558-.88 4.55.014 9.099.007 13.648.01.214-.004.429.014.64.053a1.143 1.143 0 01.902 1.084 1.158 1.158 0 01-.85 1.129 3.337 3.337 0 01-.755.072c-4.511 0-9.022 0-13.533.009-.724 0-1.3-.187-1.614-.891L0 55.195zm14.925-20.264H7.72c-1.004 0-1.606-.783-1.26-1.614.237-.56.712-.734 1.285-.734h14.12c.253-.01.506.016.752.075a1.06 1.06 0 01.824 1.076 1.058 1.058 0 01-.794 1.099 2.555 2.555 0 01-.748.086c-2.325.012-4.65.012-6.974.012zm12.295-2.348a1.174 1.174 0 011.147 1.174 1.173 1.173 0 01-1.157 1.158 1.2 1.2 0 01-1.158-1.174 1.197 1.197 0 011.168-1.158zm4.92 0a1.164 1.164 0 011.162 1.146 1.174 1.174 0 01-1.131 1.181 1.187 1.187 0 01-1.174-1.15 1.174 1.174 0 011.143-1.177zM14.884 19.455h7.032c.292-.01.582.035.857.133a1.037 1.037 0 01.67 1.068 1.06 1.06 0 01-.787 1.046 2.808 2.808 0 01-.809.088H7.666c-.769-.029-1.29-.487-1.308-1.146-.017-.659.521-1.187 1.321-1.191 2.4-.003 4.803.004 7.205.002zm21.21 1.182a3.523 3.523 0 013.479-3.522 3.552 3.552 0 013.542 3.53 3.559 3.559 0 01-3.522 3.492 3.522 3.522 0 01-3.5-3.5zm3.497-1.174a1.182 1.182 0 00-1.15 1.174 1.185 1.185 0 001.164 1.155 1.207 1.207 0 001.16-1.174 1.205 1.205 0 00-1.174-1.152v-.003zm-12.348 2.329a1.21 1.21 0 01-1.191-1.138 1.198 1.198 0 011.134-1.188 1.174 1.174 0 011.181 1.133 1.183 1.183 0 01-1.124 1.193zm4.917 0a1.187 1.187 0 01-1.158-1.16 1.174 1.174 0 011.149-1.175 1.165 1.165 0 01.82 1.979 1.17 1.17 0 01-.81.356zM14.964 6.331h6.914c.272-.01.544.024.806.098a1.052 1.052 0 01.759 1.066 1.057 1.057 0 01-.752 1.071 2.518 2.518 0 01-.805.101H7.945a4.14 4.14 0 01-.468-.011c-.646-.077-1.11-.562-1.113-1.157-.003-.594.46-1.083 1.105-1.16.175-.016.35-.02.526-.014l6.969.006zm21.129 1.157a3.522 3.522 0 013.505-3.496 3.555 3.555 0 013.522 3.496 3.56 3.56 0 01-3.547 3.522 3.522 3.522 0 01-3.48-3.522zm4.671.019a1.21 1.21 0 00-1.163-1.166 1.174 1.174 0 00-1.16 1.16 1.185 1.185 0 001.155 1.165 1.208 1.208 0 001.168-1.16zM27.192 8.662a1.205 1.205 0 01-1.14-1.186 1.206 1.206 0 011.186-1.14 1.183 1.183 0 011.13 1.185 1.184 1.184 0 01-1.176 1.14zm4.958 0a1.186 1.186 0 01-1.148-1.174A1.184 1.184 0 0132.16 6.33a1.174 1.174 0 011.142 1.174 1.174 1.174 0 01-1.152 1.158z" fill="#3E579E"/><path d="M49.93 43.117a6.82 6.82 0 01-6.772 6.804 6.816 6.816 0 01-6.818-6.817 6.814 6.814 0 016.8-6.773 6.815 6.815 0 016.79 6.786zm-6.768-4.44c-2.414-.023-4.439 1.972-4.475 4.404-.037 2.406 1.953 4.442 4.392 4.49 2.439.049 4.494-1.993 4.505-4.436a4.49 4.49 0 00-4.428-4.457h.006z" fill="#FBBA07"/></g><defs><clipPath id="clip0_1_212"><path fill="#fff" d="M0 0h60v60H0z"/></clipPath></defs></svg>