<svg width="60" height="60" viewBox="0 0 60 60" fill="none" xmlns="http://www.w3.org/2000/svg"><path d="M7.648 29.448h0c.023 1.926.189 3.895.636 5.758l-.073.017.073-.017c2.554 10.647 9.104 17.657 19.508 21.054 1.191.389 2.36.674 3.681.335 12.417-3.187 21.145-14.197 21.272-27.008.039-3.98.032-7.96.026-11.94l-45.123 11.8zm0 0c-.057-4.562-.048-9.125-.038-13.69.003-1.726.007-3.453.007-5.18v-.392l4.287-1.344a9952.31 9952.31 0 018.236-2.58h0a1433.29 1433.29 0 019.645-3.003h0a1.39 1.39 0 01.778-.017c7.263 2.27 14.527 4.536 21.792 6.799h0c.166.051.265.11.324.19.06.079.09.19.09.372L7.648 29.448zm22.176 29.874l.01.003h.011l.691-.002h.01l.009-.003.641-.164c.484-.123.97-.247 1.451-.378 13.331-3.629 22.49-15.594 22.549-29.494.016-4.383.01-8.767.005-13.15-.002-2.192-.005-4.384-.005-6.575 0-.44-.056-.756-.233-.995-.177-.239-.464-.388-.892-.523A6156.002 6156.002 0 0030.817.762h0-.001a2.252 2.252 0 00-1.257.005h0A24721.08 24721.08 0 006.409 8.01h0c-.495.156-.812.303-1 .556-.187.253-.234.596-.234 1.108l.003 6.423c.004 4.283.007 8.566-.003 12.844-.01 4.035.657 7.949 2.197 11.682h0c3.455 8.368 9.41 14.149 17.863 17.338h0c1.021.382 2.08.67 3.135.956.487.132.973.264 1.454.405z" fill="#3E579E" stroke="#3E579E" stroke-width=".15"/><path d="M48.722 13.607h0l-.001-.005-.017-.054h0a.945.945 0 00-.385-.514c-.189-.13-.446-.23-.788-.337l-3.038-.953c-4.505-1.416-9.01-2.83-13.523-4.219h0-.002a2.54 2.54 0 00-.737-.101h-.072 0v.075l18.563 6.108zm0 0s0 0 0 0l.003.008a.126.126 0 01.007.029m-.01-.037l.01.037m-37.137.584c-.002-.198.02-.397.065-.59l.004-.016.002-.003.021 16.16-.075.002s0 0 0 0a222.642 222.642 0 01-.017-4.543m0-11.01v0h.075-.075s0 0 0 0zm0 0v2.167c0 .982-.002 1.964-.004 2.947a878.06 878.06 0 00.004 5.896m0 0s0 0 0 0h.075-.075s0 0 0 0zm37.063-11.583c.043.188.064.38.064.573h.075v2.162c0 .983 0 1.966.002 2.949.002 1.966.004 3.933-.002 5.898l-.14-11.583zm0 0h.075l-.001-.011m-.075.01l.074-.016v.006M37.59 46.834h0m0 0h0m0 0l.004.007-.004-.007zm0 0h.073-.073zm0 0l.002-.002-.003.002zm8.494-6.434s0 0 0 0l-.067-.035.067.035zm-.172.278c0-.002.002-.003.003-.005l.003-.005-.067-.035.06.045zM35.768 50.67h.003l-.037-.066.034.066zm-11.153 0h.003l.034-.066-.037.065zM14.47 40.667l.003.005.004.005.06-.044-.067.034zm23.044 6.207l-.017.011a4.535 4.535 0 00-.25.173l.267-.184zm-9.474 2.723l-.052-.02h0a21.16 21.16 0 01-4.737-2.524h0l-.091-.065a6.825 6.825 0 00-.24-.166h0a1.902 1.902 0 00-.092-.054 22.016 22.016 0 01-6.263-7.25 1.91 1.91 0 00-.091-.207h0c-1.5-2.906-2.27-5.971-2.43-9.19 0-.094 0-.189-.006-.285-.01-.836-.016-1.671-.019-2.507.023-3.708.01-7.415-.005-11.116v-.777L28.04 49.598zm9.514-2.83l-.01.006.01-.006z" fill="#3E579E" stroke="#3E579E" stroke-width=".15"/><path d="M30.852 25.208h0c1.386-1.389 2.773-2.776 4.162-4.162h0c.35-.345.683-.533 1.024-.538.341-.005.67.174 1.009.51a532.553 532.553 0 013.596 3.597h0c.33.334.51.663.513 1 .004.339-.17.666-.498.994A5673.2 5673.2 0 0129.1 38.168c-.328.328-.656.5-.994.495-.338-.004-.667-.184-.998-.515a2394.423 2394.423 0 01-7.356-7.354l11.1-5.586zm0 0c-.618.62-1.235 1.24-1.872 1.882l-.878.884-1.048-1.063a411.52 411.52 0 00-1.723-1.744h0c-.328-.325-.657-.497-.996-.497-.338 0-.667.172-.995.497h0a693.09 693.09 0 00-3.596 3.598h0m11.108-3.557l-11.108 3.557m0 0c-.342.345-.525.674-.524 1.015m.524-1.015l-.524 1.015m0 0c.002.34.188.67.532 1.014l-.532-1.014zm16.404-5.896h0c.125-.124.255-.247.369-.352l2.02 2.05-9.97 9.965-5.738-5.752 2.107-2.11a833.1 833.1 0 011.624 1.626l.968.97h0c.4.4.751.616 1.116.612.365-.004.717-.225 1.121-.63 0 0 0 0 0 0l6.383-6.379z" fill="#FBBA07" stroke="#FBBA07" stroke-width=".15"/></svg>