<svg width="60" height="60" viewBox="0 0 60 60" fill="none" xmlns="http://www.w3.org/2000/svg"><path d="M30.016 14.973c1.505 0 3.248.155 4.813.513 4.797 1.1 8.093 5.612 7.942 10.66-.143 4.815-3.81 9.132-8.57 9.914-1.12.185-1.779.61-2.207 1.604-.247.57-.6 1.093-.928 1.625-.554.903-1.567.905-2.113 0-.514-.851-.978-1.734-1.513-2.571a1.115 1.115 0 00-.704-.47c-4.737-.554-8.392-3.93-9.326-8.649-1.147-5.797 3.122-11.712 8.978-12.36.61-.067 2.257-.266 3.628-.266zm-.018 21.454c.188-.314.34-.502.42-.717.491-1.3 1.395-1.76 2.803-1.878 3.984-.33 7.139-3.905 7.207-7.926.069-4.172-2.935-7.861-6.976-8.313-2.045-.228-4.135-.198-6.195-.106-4.144.186-7.563 3.757-7.679 7.88-.13 4.66 3.405 8.43 8.063 8.577.662.021 1.11.253 1.409.836.28.536.598 1.043.948 1.647z" fill="#FBBA07"/><path d="M24.363 26.86a1.151 1.151 0 01-.811-1.969c.214-.217.505-.343.811-.35a1.179 1.179 0 011.182 1.194 1.151 1.151 0 01-1.182 1.125zm5.645 0a1.15 1.15 0 01-1.087-1.59 1.175 1.175 0 011.103-.73 1.182 1.182 0 011.145 1.174 1.15 1.15 0 01-1.162 1.146zm5.606 0a1.149 1.149 0 01-1.153-1.153 1.182 1.182 0 011.152-1.167 1.179 1.179 0 011.182 1.195 1.15 1.15 0 01-1.18 1.125z" fill="#FBBA07"/><path d="M59.513 36.264c.006-2.57.073-5.148-.038-7.715h.007a31.66 31.66 0 00-.146-2.1c-.664-6.98-3.587-12.98-8.616-17.943C46.628 4.467 41.865 1.866 36.43.7l-.09-.02-.16-.034A28.186 28.186 0 0033 .156h-.022l-.276-.024-.375-.036a3.584 3.584 0 01-.45-.096h-3.764a3.59 3.59 0 01-.451.096l-.373.034-.282.027h-.017a28.24 28.24 0 00-3.18.49l-.16.034-.091.02c-5.423 1.174-10.198 3.77-14.29 7.806-4.964 4.9-7.876 10.81-8.588 17.676A31.88 31.88 0 00.494 28.9c-.068 2.635-.013 5.273-.023 7.91a3.624 3.624 0 01-.106.678c-.117.566-.331 1.13-.342 1.698-.04 2.283-.016 4.569-.016 6.853 0 2.19 1.22 3.413 3.404 3.414h2.203c-.066 2.633 1.862 4.41 4.433 4.227 1.108-.077 2.23-.008 3.337-.014 2.32-.012 3.96-1.631 3.963-3.938.008-4.726.008-9.452 0-14.179 0-2.274-1.643-3.91-3.929-3.909-1.802 0-3.604.043-5.43.065-.193-3.7.205-7.132 1.27-10.215 1.257-3.523 3.535-6.988 7.346-9.853.34-.255.68-.5 1.022-.734a27.186 27.186 0 011.948-1.161c3.494-1.886 6.988-2.836 10.424-2.87 3.435.034 6.927.984 10.421 2.87.694.374 1.354.77 1.982 1.185.331.227.661.464.99.71 3.708 2.788 5.966 6.142 7.242 9.569l.05.131c.012.039.026.078.04.117.763 2.2 1.187 4.58 1.299 7.097h.02a26.229 26.229 0 01-.102 3.305c-.362-.069-.724-.192-1.086-.197-1.562-.022-3.127-.063-4.686 0-1.889.081-3.482 1.715-3.493 3.61a1100.9 1100.9 0 000 14.764c.014 1.944 1.664 3.581 3.61 3.617 1.901.036 3.804-.025 5.752-.044v2.434c0 1.19-.427 1.61-1.628 1.61H32.424c-.686-.047-1.183-.502-1.219-1.187-.036-.686-.008-1.363-.008-2.028 2.27-1.156 3.17-2.8 2.67-4.835a3.962 3.962 0 00-3.873-2.985 3.965 3.965 0 00-3.854 3.01c-.487 2.045.412 3.666 2.7 4.82v1.794c.017 2.222 1.547 3.758 3.765 3.758 5.995.005 11.99.005 17.985 0 2.26 0 3.777-1.527 3.783-3.791V49.45h.65c.625 0 1.25.01 1.878 0 1.651-.035 2.593-.975 3.099-2.46v-8.67a4.363 4.363 0 01-.487-2.056zM7.976 35.7c0-1.157.564-1.713 1.727-1.717 1.23 0 2.46-.008 3.688 0 1.017.008 1.609.587 1.61 1.597.007 4.705.007 9.41 0 14.114 0 1.043-.586 1.622-1.643 1.63a334.33 334.33 0 01-3.747 0c-1.048-.008-1.635-.588-1.643-1.63-.008-2.342 0-4.684 0-7.027.004-2.321.007-4.644.008-6.967zm22.04 16.524a1.655 1.655 0 01-1.65-1.625 1.626 1.626 0 011.622-1.638 1.626 1.626 0 011.651 1.61 1.659 1.659 0 01-1.623 1.653zm22.012-2.547c0 1.057-.587 1.644-1.622 1.644-1.27.01-2.538.01-3.806 0-1.008-.008-1.595-.596-1.597-1.61-.009-2.362 0-4.724 0-7.086v-6.91c0-1.174.556-1.73 1.71-1.734 1.23 0 2.46-.007 3.689 0 1.044.007 1.627.587 1.628 1.644.003 4.683.002 9.367-.002 14.052zM5.609 47.094c-.884 0-1.755.023-2.624-.01-.401-.016-.629-.307-.629-.713-.005-2.478-.005-4.956 0-7.435 0-.464.272-.727.736-.734.822-.014 1.635 0 2.517 0v8.892zm47.978-24.155c-.008-.026-.016-.052-.022-.078a24.189 24.189 0 00-1.564-4.251l-.085-.175-.099-.199A24.28 24.28 0 0041.613 7.632l-.162-.088-.171-.09a23.626 23.626 0 00-7.235-2.427 25.51 25.51 0 00-2.282-.266h-.015c-.133-.01-.266-.016-.399-.023-.064 0-.129-.008-.193-.01l-.313-.012-.27-.01h-1.157l-.265.01c-.106 0-.212 0-.319.011-.062 0-.124.007-.186.01l-.405.024h-.01c-.758.054-1.52.142-2.287.266a23.643 23.643 0 00-7.235 2.431l-.169.09-.164.089A24.289 24.289 0 008.172 18.242c-.032.065-.065.13-.096.196l-.086.177a24.16 24.16 0 00-1.564 4.25l-.022.079c-.014.052-.026.104-.039.157a23.993 23.993 0 00-.74 5.448h.02c-.035 2.213-.01 4.428-.013 6.642v.624H2.828c0-2.325-.083-4.612.026-6.89.079-1.792.297-3.575.654-5.332.821-3.96 2.537-7.515 4.992-10.685.47-.597.967-1.18 1.49-1.75a27.194 27.194 0 016.993-5.518l.07-.027c.197-.085.383-.195.574-.292a28.896 28.896 0 014.74-1.885 28.723 28.723 0 013.575-.776 27.733 27.733 0 014.053-.319c1.357.007 2.713.113 4.055.319a28.51 28.51 0 013.577.777 28.825 28.825 0 014.738 1.884c.192.097.377.207.574.292l.07.027a27.213 27.213 0 016.993 5.518c.526.57 1.023 1.155 1.491 1.752 2.454 3.177 4.167 6.726 4.991 10.685.332 1.635.543 3.291.633 4.956h.01c.099 2.371.025 4.755.05 7.13a.454.454 0 01-.06.15h-2.743v-6.63a24.12 24.12 0 00-.787-6.258v-.004zm4.063 23.398c0 .46-.25.745-.714.757-.834.021-1.668.006-2.563.006v-8.88c.924 0 1.834-.045 2.733.032.2.018.518.46.523.705.038 2.467.025 4.926.02 7.384v-.004z" fill="#3E579E"/></svg>