<svg width="60" height="60" viewBox="0 0 60 60" fill="none" xmlns="http://www.w3.org/2000/svg"><path d="M0 46.98c.099-.392.19-.782.299-1.176a8.18 8.18 0 017.264-5.95l.455-.04c-1.524-2.208-1.408-4.645-.964-7.03.548-2.917 3.349-4.807 6.35-4.54 2.835.255 5.166 2.662 5.323 5.562.05.939.042 1.878 0 2.81-.052 1.149-.47 2.191-1.16 3.188h6.542l-.425-.48a8.253 8.253 0 01-2.113-5.447c-.025-1.855-.017-3.71 0-5.563a8.437 8.437 0 018.444-8.4 8.438 8.438 0 018.418 8.415c.01 1.522-.042 3.047.012 4.569.093 2.625-.634 4.928-2.564 6.888h6.466c0-.011.028-.058.012-.08-1.507-2.27-1.378-4.783-.819-7.234.627-2.754 3.444-4.51 6.3-4.227a5.92 5.92 0 015.263 5.416c.064.894.047 1.795.035 2.692a5.938 5.938 0 01-1.157 3.422c.593.097 1.144.156 1.681.278a8.125 8.125 0 016.332 7.851c.013 1.41 0 2.818 0 4.218 0 1.055-.394 1.46-1.441 1.462h-9.101v.947c0 1.288-.03 2.578.013 3.865.023.722-.2 1.253-.833 1.594H14.235c-.695-.47-.94-.922-.783-1.472.172-.612.627-.871 1.533-.871h13.19a1.035 1.035 0 00-.026-.207 6332.56 6332.56 0 00-6.157-14.911c-.058-.138-.355-.271-.526-.254-4.264.412-8.026 4.006-8.44 8.281-.223 2.303-.097 4.639-.123 6.959 0 .031.037.063.084.133.655 0 1.336-.022 2.015 0 .84.034 1.401.822 1.07 1.544-.143.313-.478.53-.725.792h-3.981c-.634-.345-.855-.87-.833-1.594.043-1.409.014-2.818.01-4.217 0-.185-.02-.371-.032-.595h-.692c-2.773 0-5.545-.014-8.318.01-.706 0-1.211-.217-1.501-.87v-5.737zm47.093 10.646c0-2.138.078-4.227-.015-6.304-.21-4.61-3.93-8.535-8.47-9.068-.38-.045-.537.044-.684.403a3277.356 3277.356 0 01-5.986 14.536c-.054.131-.083.272-.133.433h15.288zM23.911 30.7c0 1.127-.025 2.191 0 3.265a6.075 6.075 0 004.207 5.56c2.384.782 5.049-.04 6.636-1.989 1.674-2.054 1.31-4.455 1.315-6.835a12.812 12.812 0 01-5.828-1.48.66.66 0 00-.534.023 12.785 12.785 0 01-5.796 1.463V30.7zm33.743 20.508v-3.053c-.016-3.47-2.52-5.973-5.997-5.983-2.167-.008-4.335 0-6.503 0-.157 0-.326.012-.602.025 2.994 2.348 4.58 5.346 4.899 9.01h8.203zm-42.203-9.013c-2.69 0-5.249-.084-7.797.025-2.505.108-4.706 2.024-5.134 4.479-.253 1.46-.172 2.974-.242 4.507h8.273c.317-3.679 1.913-6.65 4.9-9.011zm14.547 13.553l5.584-13.539h-4.415c0 .94.018 4.427 0 5.338a1.162 1.162 0 01-1.19 1.183c-.625-.014-1.105-.5-1.142-1.174-.013-.233 0-.47 0-.703V42.21H24.42l5.578 13.538zm-13.557-20.55h-.047c0-.41.019-.821 0-1.228a3.6 3.6 0 00-3.444-3.397c-1.946-.05-3.546 1.307-3.704 3.226-.077.952-.074 1.909.01 2.86a3.532 3.532 0 003.346 3.174 3.562 3.562 0 003.701-2.834c.105-.592.092-1.204.138-1.803v.001zm27.113-.035h.048c0 .408-.017.819 0 1.227a3.618 3.618 0 003.48 3.444 3.54 3.54 0 003.671-3.206c.08-.97.078-1.946-.008-2.916-.145-1.685-1.601-3.042-3.253-3.131-1.84-.104-3.433 1.045-3.785 2.79-.117.577-.108 1.19-.153 1.79v.002zm-7.455-6.812c-.11-2.315-1.055-4.093-3-5.232-2.137-1.252-4.331-1.203-6.418.134-1.812 1.161-2.698 2.886-2.777 5.094 1.856-.011 3.54-.442 5.051-1.397.749-.47 1.366-.454 2.1 0 1.504.954 3.171 1.375 5.044 1.401z" fill="#3E579E"/><path d="M35.257 11.05c.344 1.06.674 2.06.994 3.062.374 1.166.1 2.144-.761 2.767-.888.642-1.86.61-2.868-.112a410.363 410.363 0 01-2.622-1.9c-.885.647-1.743 1.273-2.618 1.9-1.013.721-1.987.756-2.87.117-.882-.639-1.142-1.598-.77-2.765.285-.892.562-1.784.877-2.66.114-.314.05-.486-.22-.67-.77-.532-1.526-1.089-2.282-1.642-.995-.73-1.338-1.656-1.008-2.692.313-.994 1.141-1.566 2.339-1.595a65.38 65.38 0 012.87 0c.331 0 .482-.109.577-.426a83.94 83.94 0 01.878-2.726C28.145.603 28.963-.014 30.025 0c1.036.011 1.833.626 2.191 1.7.293.87.586 1.738.836 2.618.116.408.303.556.733.545a39.438 39.438 0 013.103.028 2.157 2.157 0 012.004 1.612c.281.988.01 1.824-.783 2.457-.687.546-1.41 1.039-2.125 1.557l-.727.533zM23.475 7.19c.296.235.441.356.595.47.867.626 1.74 1.253 2.605 1.888.61.45.734.849.51 1.575-.12.391-.25.783-.377 1.168l-.857 2.622c1.182-.86 2.219-1.622 3.261-2.37.543-.391 1.007-.388 1.566-.013.21.143.411.298.617.447l2.66 1.927c-.428-1.314-.8-2.457-1.175-3.6-.313-.954-.211-1.267.586-1.847a330.68 330.68 0 011.892-1.374l1.05-.761c-.194-.1-.41-.145-.627-.13H32.5c-.647 0-1.068-.299-1.26-.924-.126-.408-.268-.812-.401-1.22-.26-.802-.518-1.607-.828-2.563-.122.338-.191.51-.25.687-.312.94-.62 1.884-.921 2.833-.328 1.009-.572 1.186-1.65 1.187h-3.715v-.001z" fill="#FBBA07"/></svg>