<svg width="60" height="60" viewBox="0 0 60 60" fill="none" xmlns="http://www.w3.org/2000/svg"><g clip-path="url(#clip0_103_318)"><path d="M31.765 0c1.159.156 2.317.307 3.472.47a7.19 7.19 0 011.028.204c.652.194.985.71.881 1.321-.104.61-.603 1.001-1.277.932-.853-.088-1.694-.267-2.546-.368-6.35-.75-12.295.491-17.721 3.858C8.769 10.652 4.444 16.746 2.886 24.643c-1.601 8.12.285 15.507 5.139 22.194.44-.122.844-.259 1.255-.341 2.365-.471 4.727 1.16 5.163 3.552.44 2.417-1.174 4.77-3.54 5.174-2.505.427-4.822-1.204-5.204-3.64a4.192 4.192 0 01.423-2.723c.185-.337.134-.544-.078-.823-2.349-3.121-4.08-6.562-5.009-10.357-.44-1.828-.639-3.72-.944-5.578-.037-.228-.066-.457-.098-.686v-3.163c.035-.207.079-.413.105-.621.147-1.082.228-2.176.43-3.248A29.298 29.298 0 018.663 8.927C13.145 4.4 18.533 1.55 24.829.465c1.13-.195 2.275-.31 3.413-.462L31.765 0zM12.19 50.866a2.108 2.108 0 00-2.072-2.105 2.116 2.116 0 00-2.139 2.1 2.126 2.126 0 002.135 2.11 2.117 2.117 0 002.076-2.105z" fill="#3E579E"/><path d="M35.648 18.921c1.33-.098 2.643-.251 3.947-.269.688-.008 1.383.206 2.068.344.552.112.881.473 1.01 1.017.82 3.308.332 6.346-1.846 9.042-.11.136-.225.268-.334.408-.019.026-.013.072-.026.147.408.098.82.189 1.226.293a1.298 1.298 0 01.974.987c1.874 6.752-3.13 12.1-8.202 12.727-.542.066-1.088.098-1.634.096-.524 0-1.048-.07-1.654-.113v7.133c.007.196.001.392-.018.587-.092.644-.587 1.089-1.188 1.073-.6-.016-1.07-.477-1.127-1.133-.022-.251-.01-.507-.01-.76v-6.912c-.356.04-.657.08-.96.108-6.855.632-12.346-5.871-10.61-12.54.204-.782.64-1.215 1.412-1.354.293-.052.572-.115.954-.192-.16-.203-.285-.362-.412-.519-2.185-2.686-2.695-5.725-1.886-9.034.147-.596.503-.926 1.091-1.086 1.976-.539 3.935-.476 5.974.147-.03-.232-.043-.413-.076-.587-.823-4.285 1.077-8.42 4.855-10.621.587-.347 1.105-.341 1.692 0a10.006 10.006 0 014.855 10.57c-.036.19-.064.377-.075.441zm-2.108-1.926c-.042-2.962-1.077-5.022-3.12-6.584-.295-.226-.504-.235-.814-.01-4.142 3.01-4.164 9.36-.044 12.401.334.247.565.274.901.01 2.017-1.586 3.057-3.643 3.077-5.817zm7.18 5.796c-.024-.37-.056-.734-.07-1.11-.016-.44-.229-.623-.67-.686-5.066-.734-9.508 3.785-8.702 8.85.057.355.186.477.539.535 4.611.755 8.897-2.892 8.897-7.59h.005zm-19.567 9.078h-.294c-1.644.09-1.483-.015-1.537 1.535-.17 4.802 4.184 8.672 8.817 7.898.39-.066.55-.194.61-.605a7.703 7.703 0 00-7.596-8.828zm0-10.924c-.37.021-.735.05-1.11.06-.44.012-.616.24-.682.676-.762 5.044 3.791 9.526 8.838 8.7.351-.058.488-.177.544-.534a7.729 7.729 0 00-7.593-8.902h.003zm19.56 12.746c-.016-.312-.05-.624-.044-.936.017-.612-.293-.813-.88-.87a7.75 7.75 0 00-8.515 8.82c.05.362.155.524.55.587 4.553.78 8.89-2.924 8.89-7.601z" fill="#FBBA07"/><path d="M51.903 13.15c-1.446.643-2.854.596-4.223-.173-1.73-.972-2.581-3.11-2.013-5.048.587-1.984 2.462-3.349 4.436-3.23 2.116.134 3.84 1.631 4.19 3.616.17.955.105 1.888-.368 2.73-.24.429-.147.689.113 1.028a29.116 29.116 0 014.076 7.475 29.93 29.93 0 011.814 12.534c-.392 5.735-2.248 10.952-5.667 15.56-4.787 6.46-11.146 10.467-19.085 11.903-3.281.587-6.566.558-9.854.088a5.152 5.152 0 01-.69-.132 1.145 1.145 0 01-.849-1.295 1.129 1.129 0 011.195-.979c.332.014.663.05.99.106 13.46 2.055 26.295-6.122 30.406-18.968 1.3-4.064 1.584-8.21.983-12.44-.62-4.332-2.72-9.392-5.454-12.775zm-1.979-1.898a2.115 2.115 0 002.111-2.07 2.12 2.12 0 00-2.102-2.14 2.113 2.113 0 00-2.106 2.132 2.108 2.108 0 002.097 2.078zM40.82 4.429a1.216 1.216 0 01-1.196-1.194A1.162 1.162 0 0140.8 2.102a1.175 1.175 0 011.162 1.15 1.19 1.19 0 01-1.142 1.177zM19.266 57.928a1.184 1.184 0 01-1.164-1.149 1.188 1.188 0 011.154-1.163 1.174 1.174 0 011.084 1.627 1.129 1.129 0 01-1.074.685z" fill="#3E579E"/></g><defs><clipPath id="clip0_103_318"><path fill="#fff" d="M0 0h60v60H0z"/></clipPath></defs></svg>