<svg width="80" height="82" viewBox="0 0 80 82" fill="none" xmlns="http://www.w3.org/2000/svg"><path d="M.646 77.646a.5.5 0 000 .708l3.182 3.181a.5.5 0 10.708-.707L1.707 78l2.829-2.828a.5.5 0 10-.708-.707l-3.182 3.18zM1 78.5c.346 0 .692-.001 1.035-.004l-.007-1c-.341.003-.684.004-1.028.004v1zm3.081-.035a131.28 131.28 0 002.013-.061l-.039-1c-.66.026-1.326.046-1.997.061l.023 1zm4.06-.157c.684-.038 1.36-.08 2.032-.129l-.072-.997c-.665.048-1.337.09-2.014.128l.054.998zm4.044-.291c.688-.062 1.37-.13 2.045-.202l-.107-.995c-.67.073-1.345.14-2.028.2l.09.997zm4.053-.439c.682-.087 1.357-.18 2.026-.278l-.146-.99a93.29 93.29 0 01-2.006.276l.126.992zm4.038-.596a95.664 95.664 0 001.995-.357l-.187-.983a92.72 92.72 0 01-1.974.354l.166.986zm4.005-.762a89.791 89.791 0 001.968-.443l-.231-.973c-.641.152-1.29.298-1.945.438l.208.978zm3.965-.941c.659-.173 1.31-.352 1.953-.538l-.277-.96c-.636.183-1.279.36-1.93.53l.254.968zm3.915-1.13a78.234 78.234 0 001.93-.639l-.326-.945c-.627.216-1.263.426-1.906.63l.302.953zm3.853-1.332c.641-.24 1.273-.488 1.898-.743l-.378-.926c-.616.251-1.24.496-1.872.733l.352.936zm3.777-1.541a69.09 69.09 0 001.854-.852l-.431-.902c-.6.286-1.21.566-1.827.84l.404.914zm3.683-1.76a65.605 65.605 0 001.799-.962l-.486-.874a64.72 64.72 0 01-1.771.947l.458.89zm3.57-1.982a65.8 65.8 0 001.733-1.074l-.54-.842c-.56.36-1.128.712-1.706 1.057l.513.859zm3.437-2.208a61.231 61.231 0 001.658-1.184l-.595-.804a63.59 63.59 0 01-1.63 1.165l.567.823zm3.284-2.43a60.108 60.108 0 001.574-1.292l-.648-.762c-.506.43-1.022.854-1.547 1.27l.621.784zm3.113-2.646c.504-.46 1-.926 1.484-1.4l-.698-.715c-.477.465-.964.924-1.46 1.376l.674.739zm2.924-2.852c.473-.493.935-.993 1.388-1.5l-.745-.666c-.446.498-.9.99-1.365 1.474l.722.692zm2.724-3.044a60.85 60.85 0 001.284-1.59l-.788-.616a60.065 60.065 0 01-1.263 1.564l.767.642zm2.513-3.22c.402-.552.794-1.109 1.177-1.672l-.827-.562a61.798 61.798 0 01-1.158 1.645l.808.589zm2.297-3.378c.365-.576.72-1.156 1.067-1.742l-.86-.51a64.295 64.295 0 01-1.051 1.716l.844.536zm2.079-3.516c.328-.596.647-1.197.957-1.803l-.89-.456c-.306.597-.62 1.19-.943 1.777l.876.482zm1.86-3.633a71.66 71.66 0 00.851-1.856l-.915-.404c-.271.615-.55 1.225-.839 1.83l.903.43zm1.648-3.733c.257-.63.506-1.262.746-1.9l-.935-.352a75.001 75.001 0 01-.736 1.874l.925.378zm1.442-3.817c.223-.64.438-1.286.645-1.934l-.952-.304a79.61 79.61 0 01-.638 1.91l.945.328zm1.243-3.884c.19-.651.373-1.305.549-1.962l-.966-.258a89.511 89.511 0 01-.543 1.939l.96.281zm1.052-3.94c.16-.658.313-1.32.458-1.983l-.977-.214c-.143.656-.294 1.31-.452 1.962l.972.236zm.873-3.98c.13-.665.254-1.332.37-2.002l-.984-.172a95.901 95.901 0 01-.368 1.982l.982.193zm.7-4.012c.104-.67.2-1.342.29-2.016l-.992-.132a94.883 94.883 0 01-.286 1.996l.989.152zm.54-4.037c.076-.674.146-1.35.21-2.026l-.995-.094c-.064.67-.133 1.34-.21 2.007l.994.113zm.384-4.054c.052-.676.097-1.353.137-2.031l-.998-.059c-.04.672-.085 1.344-.136 2.014l.997.076zm.239-4.064c.028-.677.05-1.356.067-2.034l-1-.025c-.016.673-.038 1.346-.066 2.018l.999.041zm.1-4.069C79.499.678 79.5.34 79.5 0h-1c0 .336-.001.673-.004 1.01l1 .007z" fill="#C0C3CC"/></svg>