<svg width="60" height="60" viewBox="0 0 60 60" fill="none" xmlns="http://www.w3.org/2000/svg"><g clip-path="url(#clip0_103_362)"><path d="M18.394 60c-.258-.252-.614-.459-.756-.764-.355-.768.246-1.565 1.161-1.575 1.566-.015 3.131 0 4.685 0h.697c.313-3.526.626-7.015.94-10.597H6.384c-1.99 0-3.398-1.095-3.757-2.922a2.837 2.837 0 01-.052-.64 1.18 1.18 0 011.11-1.15 1.196 1.196 0 011.21.984c.246 1.207.46 1.387 1.669 1.387h49.38c1.35 0 1.693-.346 1.694-1.697v-1.177H34.877a1.182 1.182 0 01-1.172-1.148 1.168 1.168 0 011.14-1.18c.76-.033 1.523-.013 2.283-.013h20.519v-27.74c0-1.252-.35-1.601-1.6-1.601H35.72a4.178 4.178 0 01-.815-.055 1.127 1.127 0 01-.924-1.179 1.134 1.134 0 011.029-1.095c.233-.02.468-.026.703-.02 6.618 0 13.237.048 19.856-.026 2.21-.023 3.733.71 4.422 2.877v33.512c-1.008 2.359-1.804 2.877-4.41 2.877H37.423l.929 10.597h5.424c.49 0 .939.199 1.062.665.094.371 0 .82-.112 1.201-.063.197-.367.313-.562.47L18.394 60zm17.575-2.368v-.329c-.282-3.267-.571-6.532-.842-9.8-.034-.417-.258-.443-.585-.442-2.167 0-4.335.016-6.503 0-.45 0-.596.132-.626.586-.156 2.063-.36 4.121-.541 6.183a342.597 342.597 0 00-.313 3.808l9.41-.006z" fill="#3E579E"/><path d="M0 20.329V1.583C0 .379.37.017 1.575.017c6.404 0 12.809-.003 19.214-.01a1.958 1.958 0 011.507.614c2.75 2.773 5.511 5.534 8.284 8.284a1.9 1.9 0 01.593 1.456c-.012 9.588-.015 19.176-.01 28.764 0 1.158-.384 1.545-1.543 1.545H1.562c-1.19 0-1.565-.379-1.565-1.589L0 20.33zm2.371 17.948h26.423V11.142H21.52c-1.096 0-1.49-.384-1.492-1.467V2.382H2.371v35.895zM26.814 8.77L22.4 4.353V8.77h4.414z" fill="#3E579E"/><path d="M51.128 18.951c-.047.698-.016 1.41-.157 2.09a3.048 3.048 0 01-3.235 2.376 3.091 3.091 0 01-2.841-2.918 34.81 34.81 0 010-3.157 3.1 3.1 0 013.1-2.9 3.116 3.116 0 013.081 2.986c.019.506 0 1.015 0 1.52l.052.003zm-2.389-.018c0-.448.011-.896 0-1.342-.012-.482-.283-.783-.756-.783-.473 0-.745.314-.751.794-.013.894-.014 1.79 0 2.683 0 .479.283.79.756.783.473-.008.74-.313.753-.796.008-.446-.002-.893-.002-1.34zM44.84 30.024c.042-.678.012-1.371.142-2.035a3.05 3.05 0 013.255-2.423 3.096 3.096 0 012.838 2.974c.03.993.03 1.984 0 2.974a3.11 3.11 0 01-3.114 3.012 3.13 3.13 0 01-3.076-2.994c-.02-.506 0-1.013 0-1.52l-.045.012zm3.9.04c0-.447.008-.894 0-1.34-.01-.47-.26-.796-.738-.807-.48-.01-.76.295-.769.774a70.664 70.664 0 000 2.739.704.704 0 00.734.75c.47 0 .753-.29.77-.783.015-.438.002-.886.004-1.332zm-5.268-11.066v1.409a3.07 3.07 0 01-3.04 3.063 3.067 3.067 0 01-3.146-2.96 34.51 34.51 0 010-3.038c.08-1.734 1.482-2.993 3.215-2.946a3.07 3.07 0 012.974 3.074c.008.464-.003.932-.003 1.398zm-2.348-.012c0-.45.01-.899 0-1.348-.01-.45-.244-.745-.712-.766-.503-.021-.783.28-.783.752a48.607 48.607 0 000 2.753c.013.443.272.739.744.737.497 0 .745-.297.756-.782.006-.448.006-.894.006-1.346h-.011zM33.493 30.11c0-.507-.016-1.015 0-1.523a3.05 3.05 0 012.915-2.953c1.618-.079 3.049 1.025 3.196 2.623a20.07 20.07 0 010 3.68c-.157 1.623-1.586 2.722-3.245 2.64a3.071 3.071 0 01-2.866-2.944c-.016-.507 0-1.015 0-1.523zm2.348 0c0 .448-.008.897 0 1.346.008.45.244.744.71.766a.684.684 0 00.772-.703c.035-.953.035-1.911 0-2.864-.017-.45-.325-.71-.792-.677-.435.03-.671.295-.684.727-.025.474-.012.944-.014 1.412l.008-.007zm.023-11.17v3.16c0 .797-.48 1.326-1.167 1.323-.688-.003-1.166-.543-1.17-1.335-.009-2.105-.009-4.21 0-6.317 0-.783.505-1.328 1.18-1.325.677.003 1.151.53 1.157 1.335.007 1.052 0 2.106 0 3.16zM52.49 30.063v-3.158c0-.807.47-1.334 1.15-1.345.681-.011 1.188.53 1.19 1.365v6.261c0 .8-.47 1.332-1.154 1.345-.684.012-1.182-.532-1.186-1.367-.004-1.034 0-2.068 0-3.1zm-11.399-.013c0-1.054-.01-2.106 0-3.16 0-.814.47-1.329 1.155-1.332.686-.003 1.174.52 1.179 1.323.014 2.105.014 4.21 0 6.316 0 .814-.482 1.33-1.17 1.334-.687.003-1.155-.515-1.164-1.325-.01-1.051 0-2.105 0-3.157zm13.742-11.082v3.101c0 .802-.47 1.339-1.146 1.356-.676.017-1.193-.54-1.194-1.362v-6.261c0-.8.47-1.337 1.142-1.356.674-.018 1.193.536 1.198 1.362.005 1.054 0 2.107 0 3.16z" fill="#FBBA07"/><path d="M13.181 22.271h5.438c.84 0 1.389.47 1.389 1.166 0 .697-.55 1.173-1.387 1.174H7.687c-.83 0-1.373-.496-1.355-1.2.017-.705.543-1.138 1.352-1.14 1.832-.003 3.664 0 5.497 0zm6.561-6.561h3.924c.858 0 1.392.444 1.409 1.15.017.706-.526 1.188-1.367 1.19H15.86c-.86 0-1.37-.454-1.364-1.184.007-.73.517-1.155 1.387-1.156 1.282-.004 2.57 0 3.859 0zm-8.908 13.12h3.215c.822 0 1.318.441 1.326 1.152.007.71-.489 1.182-1.296 1.187-2.145.008-4.288.008-6.43 0-.784 0-1.322-.506-1.313-1.187.01-.68.542-1.147 1.342-1.152h3.156zm-.508-19.682h2.75c.757 0 1.276.479 1.289 1.145.012.667-.52 1.188-1.304 1.192-1.815.009-3.628.009-5.441 0-.76 0-1.274-.47-1.288-1.148-.014-.678.515-1.182 1.304-1.19.897-.006 1.793 0 2.69 0zM21.665 28.83c.722 0 1.442-.01 2.164 0 .721.01 1.22.479 1.24 1.13.018.651-.492 1.194-1.23 1.204-1.48.015-2.961.015-4.442 0a1.182 1.182 0 01-1.218-1.162c0-.659.528-1.161 1.265-1.172.738-.011 1.481 0 2.221 0zM9.59 15.71c.627 0 1.253-.01 1.88 0 .73.015 1.217.47 1.236 1.131.019.689-.47 1.194-1.226 1.204-1.287.016-2.574.016-3.862 0-.75-.008-1.27-.501-1.275-1.165-.005-.663.518-1.16 1.264-1.172.656-.006 1.32.002 1.984.002zm15.479 7.737a1.182 1.182 0 01-1.159 1.161 1.184 1.184 0 01-1.175-1.203 1.182 1.182 0 011.188-1.13 1.177 1.177 0 011.146 1.172z" fill="#3E579E"/></g><defs><clipPath id="clip0_103_362"><path fill="#fff" d="M0 0h60v60H0z"/></clipPath></defs></svg>