<svg width="155" height="60" viewBox="0 0 155 60" fill="none" xmlns="http://www.w3.org/2000/svg"><g clip-path="url(#clip0_1_302)"><path fill-rule="evenodd" clip-rule="evenodd" d="M33.472 11.737a13.452 13.452 0 015.036 3.426 19.61 19.61 0 00-5.248-9.47A19.481 19.481 0 0023.803.475a19.426 19.426 0 00-10.773.63 19.507 19.507 0 00-8.79 6.288 19.661 19.661 0 00-2.3 20.7 19.56 19.56 0 007.196 8.078 19.443 19.443 0 0010.37 2.999c.728 0 1.455-.04 2.18-.119l12.046 20.95 1.82-4.237-10.079-17.529-1.797-3.13a16.05 16.05 0 01-3.94.55h-.23a16.34 16.34 0 01-2.87-.254 15.98 15.98 0 01-9.423-5.514 16.104 16.104 0 01-3.713-10.3A16.12 16.12 0 016.84 9.76a16.001 16.001 0 018.626-5.727 15.942 15.942 0 0110.313.766 16.03 16.03 0 017.694 6.938z" fill="#FCBA04"/><path fill-rule="evenodd" clip-rule="evenodd" d="M16.636 29.58v-9.051l7.752 12.831.083.142 9.072 15.01 2.156 3.549a11.444 11.444 0 003.77-3.656 11.33 11.33 0 001.65-6.123 10.54 10.54 0 00-.84-4.285 10.5 10.5 0 00-2.5-3.572 11.946 11.946 0 00-3.282-2.254c3.093-1.402 4.606-5.147 4.606-8.377 0-6.348-5.154-10.4-11.192-10.4h-9.65l2.445 4.04h7.146c3.959 0 6.904 2.183 6.904 6.36 0 3.946-2.356 6.336-6.232 6.567l2.485 4.141a7.292 7.292 0 013.535 2.088 8.392 8.392 0 011.573 9.028L19.08 17.434l-2.445-4.04H12.96V32.59l.589.296c1.87.837 3.896 1.27 5.944 1.272h.206a14.87 14.87 0 003.275-.438l-2.026-3.36-4.312-.781zm0 10.891a20.81 20.81 0 01-3.676-.881v13.405l3.688-1.46-.012-11.064z" fill="#31447C"/><path d="M50.22 43.725h-2.504l-.542 1.183h-.495l2.062-4.52h.465l2.044 4.574h-.506l-.525-1.237zm-.177-.39l-1.078-2.426-1.078 2.426h2.156zm5.39 1.627a2.425 2.425 0 01-1.178-.302 2.167 2.167 0 01-.843-.822 2.416 2.416 0 010-2.367c.197-.35.49-.635.843-.822a2.46 2.46 0 011.213-.302 2.5 2.5 0 01.925.172c.274.105.52.274.719.49l-.3.303a1.8 1.8 0 00-1.332-.533 1.932 1.932 0 00-.972.243 1.812 1.812 0 00-.93 1.627 1.834 1.834 0 00.93 1.626c.296.168.632.254.972.249a1.76 1.76 0 001.331-.544l.3.301c-.2.22-.447.39-.724.497a2.5 2.5 0 01-.954.184zm6.062 0a2.425 2.425 0 01-1.179-.302 2.166 2.166 0 01-.842-.822 2.415 2.415 0 010-2.367c.197-.35.492-.636.848-.822a2.43 2.43 0 011.208-.302 2.5 2.5 0 01.925.172c.274.105.52.274.718.49l-.3.303a1.802 1.802 0 00-1.331-.533 1.932 1.932 0 00-.972.243 1.811 1.811 0 00-.931 1.627 1.834 1.834 0 00.93 1.626c.297.168.633.254.973.249a1.76 1.76 0 001.331-.544l.3.301c-.2.22-.448.39-.724.497a2.5 2.5 0 01-.925.172l-.03.012zm6.073 0a2.448 2.448 0 01-1.213-.302 2.225 2.225 0 01-.849-.822 2.28 2.28 0 01-.306-1.184 2.244 2.244 0 011.154-2.011c.374-.2.791-.301 1.214-.296a2.4 2.4 0 011.178.296c.353.19.646.475.849.822a2.416 2.416 0 010 2.367 2.203 2.203 0 01-.849.828 2.46 2.46 0 01-1.178.296v.006zm0-.426c.336.004.666-.08.96-.243a1.77 1.77 0 00.678-.674 2.024 2.024 0 000-1.917 1.813 1.813 0 00-.678-.674 1.925 1.925 0 00-.96-.237 1.948 1.948 0 00-.966.237c-.285.157-.522.39-.683.674a1.977 1.977 0 000 1.917c.161.283.398.517.683.674.295.167.627.255.966.255v-.012zm6.775.426a1.82 1.82 0 01-1.367-.51 2.015 2.015 0 01-.49-1.46v-2.58h.478v2.574c-.035.425.091.847.353 1.183a1.54 1.54 0 002.05 0c.263-.336.389-.758.354-1.183v-2.574h.465v2.591a2.04 2.04 0 01-.483 1.462 1.801 1.801 0 01-1.36.497zm8.57-4.562v4.562h-.388l-2.893-3.668v3.668h-.477v-4.55h.371l2.899 3.668v-3.668l.489-.012zm3.877.415h-1.58V40.4h3.64v.42h-1.584v4.142h-.477v-4.147zm4.353-.415h.477v4.562h-.477V40.4zm7.24 0v4.562h-.395l-2.892-3.668v3.668h-.477v-4.55h.394l2.899 3.668v-3.668l.471-.012zm6.168 2.26h.459v1.71a2.078 2.078 0 01-.748.426 2.723 2.723 0 01-.907.154 2.45 2.45 0 01-1.214-.302 2.184 2.184 0 01-.818-.799 2.372 2.372 0 010-2.366c.2-.348.494-.633.848-.822a2.455 2.455 0 011.219-.302c.324-.002.645.055.949.166.276.104.525.272.724.49l-.294.302a1.848 1.848 0 00-1.361-.532 2.04 2.04 0 00-.984.243c-.287.156-.526.39-.689.674a1.887 1.887 0 00-.198 1.436 1.874 1.874 0 00.881 1.15c.302.164.641.248.984.242a1.92 1.92 0 001.178-.35v-1.508l-.029-.012zm6.975 2.302a2.427 2.427 0 01-1.179-.302 2.208 2.208 0 01-.842-.822 2.458 2.458 0 010-2.367c.2-.348.494-.633.848-.822a2.43 2.43 0 011.208-.302c.316-.002.63.056.925.172.276.105.523.273.724.49l-.306.303a1.767 1.767 0 00-1.331-.533 1.907 1.907 0 00-.966.243 1.77 1.77 0 00-.69.668 1.88 1.88 0 00-.247.959c-.005.334.081.663.247.952.165.284.403.517.69.674.294.167.627.253.966.249a1.76 1.76 0 001.331-.544l.306.301a2.006 2.006 0 01-.724.497 2.531 2.531 0 01-.931.172l-.029.012zm6.073 0a2.482 2.482 0 01-1.214-.302 2.228 2.228 0 01-.848-.822 2.332 2.332 0 01-.3-1.184 2.29 2.29 0 01.3-1.183c.204-.347.497-.633.848-.828.374-.198.791-.3 1.214-.296a2.43 2.43 0 011.208.296c.351.19.642.475.842.822a2.372 2.372 0 010 2.367c-.2.348-.491.635-.842.828-.372.2-.787.301-1.208.296v.006zm0-.426c.337.004.67-.08.966-.243.283-.157.516-.39.672-.674a1.982 1.982 0 000-1.917 1.776 1.776 0 00-.672-.674 2.089 2.089 0 00-1.932 0c-.284.16-.519.392-.683.674a1.971 1.971 0 000 1.917c.161.289.4.526.689.686.294.161.625.245.96.242v-.011zm9.637-4.142v4.568h-.459v-3.645l-1.767 3.041h-.224l-1.767-3.023v3.627h-.454v-4.55h.389l1.932 3.366 1.938-3.354.412-.03zm4.684 0c.484-.03.964.117 1.349.415a1.563 1.563 0 01.36 1.754 1.561 1.561 0 01-.36.517 2.033 2.033 0 01-1.349.409h-1.208v1.473h-.477v-4.55l1.685-.017zm0 2.675c.364.025.725-.08 1.019-.296a1.187 1.187 0 000-1.669 1.552 1.552 0 00-1.019-.295h-1.179v2.26h1.179zm7.01.638h-2.504l-.542 1.184h-.495l2.056-4.52h.472l2.044 4.59h-.501l-.542-1.183.012-.07zm-.171-.384l-1.078-2.432-1.084 2.432h2.162zm7.257-2.958v4.597h-.394l-2.893-3.668v3.668h-.477v-4.55h.395l2.898 3.668v-3.668l.471-.047zm4.542 2.958v1.639h-.465V43.37l-1.803-2.958h.507l1.543 2.538 1.544-2.538h.477l-1.803 2.958v-.047z" fill="#F7B101"/><path fill-rule="evenodd" clip-rule="evenodd" d="M144.179 22.9h10.479c.23 0 .342.12.342.362v2.277a.299.299 0 01-.085.258.295.295 0 01-.257.085h-3.646v10.963c0 .242-.112.36-.336.36h-2.515c-.224 0-.336-.118-.336-.36V25.882h-3.646c-.242 0-.36-.118-.36-.343v-2.277a.314.314 0 01.014-.146.309.309 0 01.2-.202.32.32 0 01.146-.013zm-2.074.362v13.606a.323.323 0 01-.214.347.317.317 0 01-.145.014h-2.492a.315.315 0 01-.269-.09.328.328 0 01-.091-.27V23.261a.328.328 0 01.091-.27.31.31 0 01.269-.091h2.492a.317.317 0 01.359.36zM128.697 25.9v8.283h2.08c1.535 0 2.305-.79 2.309-2.367V28.32c0-1.613-.77-2.42-2.309-2.42h-2.08zm2.08 11.306h-4.901a.32.32 0 01-.27-.09.32.32 0 01-.09-.271V23.238a.32.32 0 01.214-.348.32.32 0 01.146-.013h4.901a6.071 6.071 0 014.123 1.32c1.014.879 1.52 2.299 1.52 4.259v3.183c0 3.7-1.879 5.547-5.637 5.543l-.006.024zm-8.118-5.26a5.42 5.42 0 01-1.467 4.059 6.52 6.52 0 01-8.182 0 5.464 5.464 0 01-1.455-4.059v-8.684a.322.322 0 01.214-.348.317.317 0 01.145-.013h2.533a.32.32 0 01.27.09.309.309 0 01.076.125.314.314 0 01.014.146v8.684a2.571 2.571 0 00.589 1.828 2.211 2.211 0 001.702.633 2.295 2.295 0 001.726-.633 2.546 2.546 0 00.589-1.828v-8.684c0-.243.112-.361.336-.361h2.551c.23 0 .342.118.342.36v8.685h.017zm-18.85-5.543c-.065.213-.289.976-.666 2.29a142.424 142.424 0 01-.89 2.993h3.193l-1.573-5.283h-.064zm-3.535 10.803h-2.668c-.277 0-.372-.13-.277-.397l4.618-13.606a.395.395 0 01.383-.279h3.028a.374.374 0 01.377.278l4.624 13.607c.106.267 0 .397-.277.397h-2.651a.406.406 0 01-.418-.296l-.742-2.443h-4.842l-.754 2.443a.377.377 0 01-.401.296zM82.425 22.9h10.48c.224 0 .341.12.341.362v2.277a.31.31 0 01-.204.33.303.303 0 01-.137.014h-3.647v10.962c0 .242-.112.36-.336.36h-2.515c-.224 0-.336-.118-.336-.36V25.883h-3.646c-.242 0-.36-.119-.36-.344v-2.277a.32.32 0 01.36-.361zm-1.078 10.058a3.931 3.931 0 01-1.544 3.283 6.642 6.642 0 01-4.176 1.184 7.628 7.628 0 01-2.728-.462 9.308 9.308 0 01-2.515-1.467.32.32 0 01-.077-.48l1.355-1.94a.29.29 0 01.477-.059 6.639 6.639 0 003.706 1.379 3.316 3.316 0 001.608-.338 1.08 1.08 0 00.589-.982 1.028 1.028 0 00-.389-.81 2.63 2.63 0 00-.866-.491 10.658 10.658 0 00-1.32-.32c-3.334-.694-5-2.248-5-4.661a3.563 3.563 0 011.507-3.07 6.535 6.535 0 013.894-1.072 8.61 8.61 0 014.825 1.538c.212.137.241.296.1.48l-1.267 1.91a.332.332 0 01-.366.164.33.33 0 01-.128-.063 6.084 6.084 0 00-3.311-1c-1.314 0-1.973.403-1.973 1.184a.943.943 0 00.547.899 9.627 9.627 0 001.986.591c.673.163 1.337.36 1.99.592.548.21 1.07.483 1.556.81.487.325.88.774 1.137 1.302.26.582.39 1.214.377 1.852l.006.047zm-18.992-1.58v2.935h5.92c.241 0 .36.112.36.337v2.2a.32.32 0 01-.36.362h-8.777a.316.316 0 01-.346-.215.32.32 0 01-.014-.146V23.244a.32.32 0 01.214-.348.317.317 0 01.146-.013h8.447a.317.317 0 01.346.215.32.32 0 01.013.146v2.195c0 .225-.123.337-.359.337h-5.602v2.745h4.942c.242 0 .36.112.36.337v2.16c0 .23-.118.343-.36.343l-4.93.017zm-9.302-4.294a1.343 1.343 0 00-.389-1.054 1.563 1.563 0 00-1.107-.36h-2.15v2.798h2.15c.995 0 1.496-.462 1.496-1.396v.012zm-3.646 7.282h2.433c.477.026.948-.123 1.325-.42a1.568 1.568 0 00.489-1.26c0-1.083-.63-1.621-1.891-1.621h-2.356v3.301zm6.91-7.424a2.838 2.838 0 01-1.373 2.638c1.314.55 1.973 1.615 1.973 3.206a4.157 4.157 0 01-1.284 3.248 5.152 5.152 0 01-3.6 1.184h-5.495a.317.317 0 01-.346-.216.32.32 0 01-.014-.145V23.25a.321.321 0 01.215-.348.317.317 0 01.145-.013h5.437a4.488 4.488 0 013.193 1.059 3.87 3.87 0 011.148 2.994z" fill="#31447C"/><path d="M50.108 43.89h-2.292l-.536 1.184h-.866l2.21-4.845h.682l2.21 4.85h-.855l-.542-1.182-.011-.006zm-2.392-.337h2.615l.536 1.184h.136L49.1 40.548h-.094l1.302 2.958h-2.68l1.301-2.958h-.094l-1.903 4.189h.13l.542-1.184h.112zm2.073-.366l-.824-1.852-.825 1.852h1.65zm5.644 1.952a2.798 2.798 0 01-.648-.083 2.57 2.57 0 01-.59-.236 2.326 2.326 0 01-.9-.888 2.133 2.133 0 01-.248-.591 2.721 2.721 0 01-.082-.663 2.457 2.457 0 01.053-.674c.1-.412.302-.79.589-1.1.32-.293.709-.497 1.13-.592a2.82 2.82 0 01.702-.083 3.02 3.02 0 01.524 0 2.396 2.396 0 01.896.361 1.8 1.8 0 01.359.307l.106.119-.53.532-.118-.118a1.632 1.632 0 00-1.214-.485c-.158 0-.316.017-.47.053a1.83 1.83 0 00-.773.432c-.106.101-.195.22-.265.349a1.781 1.781 0 000 1.739c.07.13.16.247.265.35a1.83 1.83 0 00.772.432c.155.035.313.053.471.052.232.003.462-.04.678-.124.203-.08.387-.206.536-.367l.118-.124.53.538-.106.119a1.82 1.82 0 01-.36.313 2.075 2.075 0 01-.424.225c-.154.06-.314.106-.477.136-.169.03-.34.047-.512.047l-.012.024zm-.59-.408a2.644 2.644 0 001.043.035c.141-.03.28-.07.413-.124a1.46 1.46 0 00.36-.19c.067-.042.13-.091.188-.147l-.07-.071c-.156.14-.333.252-.525.331a2.196 2.196 0 01-.801.148c-.185 0-.369-.022-.548-.065a2.206 2.206 0 01-.507-.201 1.902 1.902 0 01-.424-.32 2.243 2.243 0 01-.324-.414 2.18 2.18 0 010-2.082c.091-.15.2-.29.324-.414.126-.124.269-.23.424-.314a1.79 1.79 0 01.507-.201 2.08 2.08 0 01.548-.071c.484-.011.956.157 1.325.473l.07-.07-.182-.149a2.12 2.12 0 00-.365-.189 2.291 2.291 0 00-.407-.112 2.457 2.457 0 00-1.043.03 2.235 2.235 0 00-.53.206 2.016 2.016 0 00-.99 1.278 2.311 2.311 0 00-.07.592 2.3 2.3 0 00.07.591c.047.181.118.355.213.515.184.321.453.586.778.763.166.09.341.16.524.207v-.035zm6.663.408c-.228 0-.455-.028-.677-.083a2.573 2.573 0 01-.59-.236 2.326 2.326 0 01-.9-.888 2.133 2.133 0 01-.248-.591 2.721 2.721 0 010-1.326c.112-.418.332-.8.636-1.106.32-.292.71-.496 1.131-.591.21-.055.426-.084.643-.09.171.002.343.018.512.048a2.415 2.415 0 01.895.36 1.8 1.8 0 01.36.309l.106.118-.53.532-.118-.118a1.632 1.632 0 00-1.214-.485 2.06 2.06 0 00-.471.053 1.835 1.835 0 00-.772.432c-.106.102-.195.22-.265.35a1.78 1.78 0 000 1.738c.07.13.16.248.265.35a1.83 1.83 0 00.772.432c.155.035.313.053.471.053.232.002.462-.04.678-.125.203-.08.387-.206.536-.367l.118-.124.53.539-.106.118a2.07 2.07 0 01-.784.538c-.154.06-.314.106-.477.136a2.93 2.93 0 01-.512.048l.011-.024zm-.589-.408a2.651 2.651 0 001.043.035c.14-.03.279-.07.412-.124.128-.046.25-.11.36-.19.067-.042.13-.091.188-.147l-.07-.071c-.155.14-.333.252-.525.331a2.195 2.195 0 01-.8.148c-.185 0-.37-.022-.549-.065a2.21 2.21 0 01-.506-.201 1.901 1.901 0 01-.425-.32 2.238 2.238 0 01-.324-.414 2.178 2.178 0 010-2.082c.092-.15.2-.29.325-.414a1.88 1.88 0 01.424-.314c.157-.093.328-.16.506-.201.179-.048.363-.072.548-.071.485-.011.957.157 1.325.473l.071-.07-.182-.149a2.125 2.125 0 00-.366-.189 2.293 2.293 0 00-.406-.112 2.457 2.457 0 00-1.043.03 2.239 2.239 0 00-.53.206 2.022 2.022 0 00-.99 1.278c-.05.193-.073.392-.07.592a2.3 2.3 0 00.07.591c.046.181.118.355.212.515.185.321.454.586.778.763.166.09.342.16.524.207v-.035zm6.675.408a2.53 2.53 0 01-1.267-.32 2.815 2.815 0 01-.518-.384 2.422 2.422 0 01-.636-1.1c-.11-.435-.11-.89 0-1.325.053-.209.136-.408.247-.592.104-.186.235-.355.389-.503a2.526 2.526 0 011.107-.621c.215-.047.434-.07.654-.065.226-.002.452.023.672.077.206.055.404.137.589.242.383.197.705.496.93.864.11.184.194.383.248.592a2.613 2.613 0 01-.248 1.922 2.354 2.354 0 01-.907.887 2.486 2.486 0 01-.589.237c-.22.055-.445.083-.671.083v.006zm-.59-.408c.388.092.791.092 1.179 0 .185-.044.364-.114.53-.207a2.016 2.016 0 00.778-.757c.194-.332.294-.71.288-1.095.002-.2-.022-.398-.07-.592a2.177 2.177 0 00-.218-.514 2.01 2.01 0 00-.336-.432 2.136 2.136 0 00-.972-.533 2.554 2.554 0 00-1.178 0 2.065 2.065 0 00-.53.208 2.355 2.355 0 00-.454.33 2.019 2.019 0 00-.548.947 2.54 2.54 0 000 1.184 1.983 1.983 0 00.548.94c.136.13.288.242.453.331.166.096.345.167.53.214v-.024zm.59-.355c.308.006.613-.07.883-.219.127-.071.244-.159.348-.26.102-.104.19-.221.259-.35a1.7 1.7 0 00.17-.413 2 2 0 000-.923 1.7 1.7 0 00-.17-.414 1.674 1.674 0 00-.26-.35 2.226 2.226 0 00-.347-.26 1.908 1.908 0 00-1.767 0 1.769 1.769 0 00-.618.61c-.073.13-.128.27-.165.414a1.63 1.63 0 00-.06.461c-.003.307.074.609.225.876.073.128.164.246.27.349.103.103.22.19.348.26.272.15.579.226.89.219h-.006zm1.042.07c-.318.18-.677.272-1.042.267a2.095 2.095 0 01-1.049-.266 1.959 1.959 0 01-1.013-1.775 2.053 2.053 0 01.265-1.041c.091-.152.2-.293.324-.42a2.084 2.084 0 011.473-.58 2.073 2.073 0 011.46.58c.124.127.233.268.325.42.089.155.154.322.194.497.094.356.094.732 0 1.088-.04.175-.105.342-.194.497-.092.152-.2.294-.324.42a2.034 2.034 0 01-.419.314zm5.732.693a1.96 1.96 0 01-1.484-.556 1.87 1.87 0 01-.407-.68 3.013 3.013 0 01-.13-.9V40.23h.814v2.733c-.006.215.02.43.076.639.045.157.124.302.23.426.103.108.227.192.365.248a1.76 1.76 0 001.072 0 .973.973 0 00.59-.674 2.25 2.25 0 00.082-.64V40.23h.795v2.757a2.83 2.83 0 01-.13.899c-.08.254-.217.486-.4.68a1.707 1.707 0 01-.648.42 2.399 2.399 0 01-.848.154h.023zm-1.266-.77a1.647 1.647 0 001.243.45 2.04 2.04 0 00.718-.112c.196-.072.373-.188.519-.337.149-.159.261-.349.33-.556a2.65 2.65 0 00.112-.793v-2.425h-.13v2.401c.002.25-.03.499-.094.74a1.463 1.463 0 01-.307.55 1.243 1.243 0 01-.495.331c-.209.079-.43.117-.653.113a1.714 1.714 0 01-.648-.113 1.244 1.244 0 01-.495-.33 1.464 1.464 0 01-.307-.551 2.565 2.565 0 01-.094-.74v-2.42h-.141v2.426c-.006.269.032.537.112.793a1.5 1.5 0 00.33.556v.018zm9.961-3.957v4.686h-.59l-2.644-3.355v3.355h-.807v-4.87h.636l2.651 3.355V40.23h.754v.183zm-.336 4.354v-4.188h-.135v3.981l-3.146-3.981h-.147v4.188h.141v-3.981l3.14 3.981h.147zm3.876-3.774h-1.578v-.763h3.97v.745H87.41v4.106h-.81v-4.088zm-1.248-.331h1.584v4.105h.142v-4.105h1.578v-.083h-3.304v.083zm5.767-.415h.642v4.852h-.807v-4.87l.165.018zm.312.338h-.124v4.182h.147l-.023-4.182zm7.069-.172v4.686h-.636l-2.645-3.355v3.355h-.813v-4.87h.642l2.65 3.355V40.23h.802v.183zm-.336 4.354v-4.182h-.135v3.975l-3.146-3.975h-.141v4.182h.141v-3.981l3.14 3.981h.141zm6.339-2.26h.624v1.965l-.059.053a2.122 2.122 0 01-.371.266 2.04 2.04 0 01-.43.19 3.003 3.003 0 01-1.643.083 2.545 2.545 0 01-.619-.243 2.358 2.358 0 01-.907-.882 2.496 2.496 0 01-.254-.592 2.74 2.74 0 010-1.325c.059-.207.145-.406.254-.591.216-.376.532-.684.913-.888.185-.104.383-.184.589-.236a2.883 2.883 0 011.208-.036c.164.027.326.071.483.13.15.06.295.135.43.225.133.086.253.19.359.308l.106.118-.524.532-.118-.118a1.611 1.611 0 00-.548-.36 1.96 1.96 0 00-.689-.119 1.765 1.765 0 00-1.267.485 1.576 1.576 0 00-.271.343c-.072.131-.129.27-.17.414-.071.304-.071.62 0 .923.042.142.099.279.17.408.077.127.168.244.271.35.107.101.225.189.354.26.134.074.276.132.424.171.354.086.724.086 1.078 0 .145-.045.284-.108.412-.189v-1.645h.195zm.288.332h-.117v1.443l-.071.053c-.18.127-.379.222-.589.284a2.346 2.346 0 01-.684.095 2.108 2.108 0 01-1.095-.266 1.872 1.872 0 01-.424-.32 1.883 1.883 0 01-.531-.905 2.127 2.127 0 01-.07-.55 2.083 2.083 0 01.07-.544c.045-.174.112-.341.201-.497a1.952 1.952 0 01.76-.734 2.346 2.346 0 011.873-.118c.197.076.38.184.542.32l.065-.066a1.185 1.185 0 00-.189-.148 1.725 1.725 0 00-.359-.189 2.5 2.5 0 00-.424-.112 2.512 2.512 0 00-1.055.03 2.188 2.188 0 00-.536.206 2.023 2.023 0 00-.995 1.278c-.05.193-.074.392-.071.592-.002.2.021.398.071.591a2.023 2.023 0 00.995 1.278c.35.188.741.283 1.137.278.291.001.579-.047.854-.142a2.04 2.04 0 00.631-.343v-1.479l.011-.035zm6.686 2.301c-.226 0-.451-.028-.671-.083a2.397 2.397 0 01-.589-.236 2.356 2.356 0 01-.907-.888 2.585 2.585 0 01-.248-.591c-.11-.435-.11-.89 0-1.326a2.374 2.374 0 01.642-1.094c.315-.306.705-.52 1.131-.621a2.798 2.798 0 011.184-.036c.163.03.323.076.478.136a2.154 2.154 0 01.783.533l.106.118-.53.538-.124-.124a1.637 1.637 0 00-1.178-.485 1.76 1.76 0 00-.471.06 1.465 1.465 0 00-.418.165 1.321 1.321 0 00-.354.266 1.576 1.576 0 00-.271.343 1.709 1.709 0 00-.224.87c-.003.306.074.608.224.875a1.677 1.677 0 00.625.61c.132.07.273.126.418.165a2.014 2.014 0 001.143-.065 1.51 1.51 0 00.536-.372l.117-.119.537.533-.106.118a2.007 2.007 0 01-.36.314c-.136.09-.283.163-.436.218a2.466 2.466 0 01-.477.137 2.89 2.89 0 01-.512.047l-.048-.006zm-.589-.402a2.738 2.738 0 001.043.03c.142-.03.282-.07.418-.119a1.916 1.916 0 00.548-.343l-.071-.065a1.867 1.867 0 01-.53.325 2.06 2.06 0 01-.801.148 2.36 2.36 0 01-.548-.065 2.15 2.15 0 01-.5-.201 1.9 1.9 0 01-.425-.32 1.866 1.866 0 01-.324-.414 2.031 2.031 0 01-.271-1.041 2.01 2.01 0 01.595-1.455 2.098 2.098 0 01.925-.515c.179-.048.363-.072.548-.071.487-.012.961.157 1.331.473l.065-.07a1.578 1.578 0 00-.182-.149 1.73 1.73 0 00-.36-.183 1.938 1.938 0 00-.412-.118 2.45 2.45 0 00-1.043.03 2.06 2.06 0 00-.53.206 1.94 1.94 0 00-.783.764c-.095.16-.166.333-.212.514-.1.388-.1.795 0 1.183.046.181.117.355.212.515.184.321.453.586.777.763.168.09.346.16.53.207v-.03zm6.669.402c-.228 0-.456-.028-.678-.083a2.579 2.579 0 01-.589-.236 2.416 2.416 0 01-.913-.888 2.76 2.76 0 01-.247-.591c-.11-.435-.11-.89 0-1.326a2.347 2.347 0 01.642-1.094c.155-.151.329-.28.518-.385a2.61 2.61 0 01.589-.236c.445-.11.91-.11 1.355 0 .206.053.404.132.589.236.189.103.364.23.519.379a2.374 2.374 0 01.642 1.095c.054.216.082.439.082.662.005.442-.109.878-.33 1.26a2.297 2.297 0 01-.913.888 2.437 2.437 0 01-.589.236 2.827 2.827 0 01-.677.083zm-.589-.408c.193.047.39.071.589.07.198 0 .396-.021.589-.064a2.107 2.107 0 00.978-.538c.131-.129.244-.274.336-.432a2.13 2.13 0 00.282-1.095c.003-.2-.021-.398-.07-.592a2.124 2.124 0 00-.212-.52 2.024 2.024 0 00-.342-.432 1.91 1.91 0 00-.442-.325 2.064 2.064 0 00-.53-.207 2.382 2.382 0 00-.589-.071 2.428 2.428 0 00-.589.07 2.457 2.457 0 00-.536.208 2.304 2.304 0 00-.448.33c-.13.13-.242.275-.336.433-.094.16-.166.334-.212.514a2.27 2.27 0 00-.071.592c-.002.2.022.398.071.592.046.18.118.354.212.514.094.158.206.303.336.432a2.238 2.238 0 00.984.539v-.018zm.589-.355c.308.006.613-.07.883-.219.128-.07.245-.157.348-.26a1.671 1.671 0 00.43-.763 1.94 1.94 0 00.059-.462 1.94 1.94 0 00-.059-.461 1.671 1.671 0 00-.165-.414 1.71 1.71 0 00-.613-.61 1.812 1.812 0 00-.883-.219 1.847 1.847 0 00-.884.22 1.97 1.97 0 00-.353.265 1.675 1.675 0 00-.436.758 1.938 1.938 0 00-.053.461 1.686 1.686 0 00.489 1.225 1.73 1.73 0 001.237.479zm1.048.07a2.199 2.199 0 01-2.097 0 1.996 1.996 0 01-.418-.313 2.011 2.011 0 01-.595-1.461 2.041 2.041 0 01.071-.544 1.82 1.82 0 01.2-.497 1.86 1.86 0 01.324-.42c.127-.12.267-.226.418-.314a2.204 2.204 0 012.097 0 2.014 2.014 0 01.737.734 2.038 2.038 0 01.265 1.041c0 .183-.022.366-.065.544a1.85 1.85 0 01-.2.497 1.89 1.89 0 01-.737.734zm8.754-4.034v4.686h-.789v-3.16l-1.502 2.586h-.419l-1.502-2.574v3.148h-.795v-4.87h.654l1.879 3.201 1.862-3.2h.653v.165l-.041.018zm-.33 4.354v-4.182h-.129l-2.015 3.514-2.05-3.514h-.13v4.182h.124V40.72l2.056 3.473h.035l2.033-3.497v4.07h.076zm4.89-4.537c.277-.005.553.033.819.112.234.068.453.182.642.337.177.153.317.343.412.556.18.456.18.964 0 1.42a1.5 1.5 0 01-.412.55 1.718 1.718 0 01-.642.338 2.666 2.666 0 01-.813.112h-1.043v1.426h-.813v-4.851h1.85zm.724.432a2.442 2.442 0 00-.724-.095h-1.514v4.183h.141V43.34h1.373a2.46 2.46 0 00.724-.101c.19-.054.366-.147.519-.272.142-.113.253-.26.324-.426.147-.38.147-.803 0-1.183a1.145 1.145 0 00-.324-.426 1.374 1.374 0 00-.519-.278v.006zm-.736 2.242c.327.023.652-.07.919-.26a.756.756 0 00.218-.29c.05-.13.074-.27.071-.409a1.136 1.136 0 00-.071-.42.755.755 0 00-.218-.29 1.003 1.003 0 00-.371-.189 1.893 1.893 0 00-.548-.07h-1.025v1.922h1.025v.006zm1.131 0c-.326.242-.727.36-1.131.331h-1.361v-2.573h1.361a2.27 2.27 0 01.636.076c.18.051.349.138.495.255.136.113.243.257.312.42.068.175.102.362.1.55.002.186-.032.371-.1.544-.071.16-.178.303-.312.414v-.017zm5.773.97h-2.292l-.536 1.183h-.866l2.215-4.85h.678l2.209 4.85h-.866l-.542-1.183zm-2.398-.331h2.61l.542 1.183h.13l-1.903-4.183h-.094l1.325 2.964h-2.674l1.302-2.922h-.095l-1.902 4.182h.129l.542-1.183.088-.041zm2.08-.355l-.825-1.852-.825 1.852h1.65zm7.658-2.757v4.685h-.636l-2.645-3.354v3.354h-.813V40.23h.642l2.651 3.354V40.23h.807v.165l-.006.036zm-.33 4.354v-4.2h-.135v3.975l-3.128-3.975h-.148v4.182h.148v-3.981l3.139 3.981.124.018zm4.878-1.349v1.68h-.801v-1.698l-1.915-3.188h.895l1.45 2.366 1.449-2.366h.872l-1.95 3.206zm-.336 1.35v-1.462l1.673-2.74h-.053l-1.638 2.687-1.631-2.686h-.118l1.667 2.739v1.443l.1.018z" fill="#F7B101"/></g><defs><clipPath id="clip0_1_302"><path fill="#fff" d="M0 0h155v60H0z"/></clipPath></defs></svg>