<svg width="97" height="30" viewBox="0 0 97 30" fill="none" xmlns="http://www.w3.org/2000/svg"><path d="M39.42 4.422h3.451c.837 0 1.538.272 2.092.816.554.543.826 1.223.826 2.04 0 .815-.282 1.495-.836 2.039-.555.544-1.256.826-2.093.826h-2.468v3.379h-.973v-9.1zm3.451.91h-2.469v3.89h2.469c.586 0 1.056-.177 1.412-.533.356-.355.534-.826.534-1.412s-.178-1.056-.534-1.412c-.355-.356-.826-.533-1.412-.533zm5.973 7.28h5.397v.91h-6.37v-9.1h6.234v.91h-5.261v2.991h4.215v.91h-4.215v3.379zm7.332-8.19h3.64c.806 0 1.475.261 1.998.774.534.523.795 1.171.795 1.945 0 .387-.062.743-.198 1.067-.136.325-.293.576-.471.753a3.698 3.698 0 01-.554.46 2.11 2.11 0 01-.471.252l-.199.062 2.145 3.766h-1.11l-2.018-3.64h-2.594v3.64h-.973c.01.021.01-9.08.01-9.08zm3.64.91H57.16v3.63h2.657c.554 0 .993-.158 1.328-.492.335-.325.492-.774.492-1.329 0-.554-.168-.993-.492-1.328-.335-.314-.774-.481-1.328-.481zm5.137-.91h6.171v.91h-5.199v3.117h4.153v.91h-4.153v4.153h-.972v-9.09zm8.964 8.19h5.397v.91h-6.37v-9.1h6.234v.91h-5.261v2.991h4.215v.91h-4.215v3.379zm8.117-.335c-.91-.91-1.36-2.019-1.36-3.316 0-1.297.45-2.405 1.36-3.316.91-.91 2.019-1.36 3.316-1.36.46 0 .9.063 1.329.2.418.125.774.282 1.046.47a5.4 5.4 0 01.732.554c.209.189.355.346.45.482l.146.198-.648.586c-.021-.042-.063-.094-.116-.167a2.569 2.569 0 00-.355-.366 3.772 3.772 0 00-.607-.471 3.943 3.943 0 00-.858-.377 3.626 3.626 0 00-1.119-.167c-1.046 0-1.914.366-2.636 1.088-.711.722-1.067 1.621-1.067 2.678 0 1.067.356 1.966 1.067 2.688.711.722 1.59 1.088 2.636 1.088.387 0 .764-.052 1.12-.157.355-.105.648-.24.889-.387.23-.157.439-.303.617-.45.177-.146.303-.282.376-.397l.126-.157.648.586a1.55 1.55 0 01-.157.198c-.073.084-.23.23-.46.45-.24.22-.492.408-.753.575a4.117 4.117 0 01-1.046.45 4.47 4.47 0 01-1.339.199c-1.318-.042-2.427-.492-3.337-1.402zm7.856-7.855h6.694v.91h-2.866v8.18h-.972v-8.18h-2.867c.01 0 .01-.91.01-.91zM44.105 19.15l3.149-3.965h1.726v9.1h-1.946V18.22l-2.929 3.724-2.918-3.703v6.035H39.23v-9.1h1.757l3.117 3.975zm9.153 3.378h4.874v1.747h-6.83v-9.1h6.694v1.757h-4.738v1.82h3.703V20.5h-3.703v2.03zm6.684-7.353h3.379c1.318 0 2.437.44 3.326 1.318.9.878 1.35 1.956 1.35 3.232 0 1.276-.45 2.353-1.35 3.232-.9.879-2.008 1.318-3.326 1.318h-3.379v-9.1zm3.39 1.757h-1.434v5.586h1.433c.753 0 1.391-.272 1.925-.816.533-.544.795-1.203.795-1.988 0-.773-.262-1.443-.774-1.987-.523-.523-1.172-.795-1.946-.795zm6.485 7.343v-9.1h1.956v9.1h-1.956zm8.964-3.828l-1.109-2.992-1.108 2.992h2.217zm.649 1.684h-3.505l-.774 2.144H73.07l3.577-9.1h2.071l3.578 9.1h-2.082l-.784-2.144z" fill="#3E579E"/><path fill-rule="evenodd" clip-rule="evenodd" d="M8.836 4.765l12.948 7.14 3.437 1.896-3.53 1.895-1.7.913-3.293 1.765-7.862 4.216-3.363 1.807V9.632l3.363 1.616 4.96 2.385-1.23.657-2.063 1.108-1.667-.796v4.252l3.376-1.812.806-.433 2.087-1.118 1.206-.652.517-.274 1.425-.764-9.417-5.194-3.363-1.853-2.105-1.16V30H0V0h.196l5.277 2.911 3.363 1.854z" fill="#3E579E"/><path fill-rule="evenodd" clip-rule="evenodd" d="M18.076 9.86l8.556-4.266V30H30V0h-.196L14.415 7.839l3.661 2.021z" fill="#3E579E"/></svg>