<svg width="60" height="60" viewBox="0 0 60 60" fill="none" xmlns="http://www.w3.org/2000/svg"><path d="M53.875 1c.762.258 1.572.426 2.276.797 2.39 1.245 3.663 3.258 3.841 5.943.065.984-.393 1.438-1.383 1.439-3.237.004-6.473.004-9.708 0h-.706v.62c0 1.987.014 3.974-.014 5.96 0 .341-.086.776-.306.984-.25.235-.726.409-1.045.341-.318-.067-.63-.432-.814-.744-.138-.227-.09-.587-.09-.886-.005-2.366.013-4.732-.007-7.097-.016-1.81.495-3.425 1.652-4.826.045-.054.08-.114.177-.256H18c-2.52 0-4.391 1.386-5.05 3.747a6.063 6.063 0 00-.183 1.513c-.024 1.343 0 .41-.01 1.755 0 .83-.44 1.36-1.114 1.374-.693.014-1.163-.53-1.152-1.391.021-1.796-.065-1.329.126-3.107.325-3.038 2.845-5.537 5.867-6.05.124-.03.245-.067.363-.114L53.875 1zm3.662 5.906c-.403-2.143-2.6-3.764-4.823-3.62-2.13.137-4.177 1.855-4.277 3.62h9.104-.004zM12.76 50.747H34.7c1.315 0 1.6.264 1.7 1.55.152 1.965 1.104 3.424 2.915 4.186 1.81.763 3.528.455 5.02-.849a4.447 4.447 0 001.57-3.342c.044-1.707.011-3.404.011-5.142-.641.114-1.258.246-1.883.323-5.804.713-11.168-3.361-12.055-9.142-.982-6.41 3.848-12.29 10.306-12.554 1.186-.048 1.593.34 1.599 1.51v7.892c0 .092.01.184.02.35h8.224c1.164 0 1.578.444 1.502 1.6-.246 3.72-1.907 6.628-5.018 8.691-.301.2-.428.4-.423.772.023 1.778.016 3.558.01 5.337-.016 4.143-3.074 7.216-7.208 7.22-9.728.009-19.455.009-29.183 0-3.912 0-6.89-2.633-7.41-6.511-.02-.17-.03-.34-.031-.51-.018-.91.415-1.372 1.337-1.378 1.568-.01 3.137 0 4.788 0v-7.859c-.01-.264.01-.529.06-.789a1.109 1.109 0 011.074-.85 1.108 1.108 0 011.072.854c.05.26.07.524.06.788v7.12l.003.733zm28.848-22.593c-4.038.441-7.83 4.183-7.466 9.174.341 4.733 4.524 8.308 9.26 7.954 4.018-.298 8.035-4.122 7.809-7.476h-8.16c-1.024 0-1.44-.417-1.442-1.453v-6.355l-.001-1.844zM6.795 53.047c.035.157.05.25.076.34.645 2.135 2.59 3.498 5.02 3.5h23.494c.16 0 .32-.012.485-.02-.386-.634-.796-1.2-1.089-1.821-.292-.62-.448-1.309-.673-1.993l-27.313-.006z" fill="#3E579E"/><path d="M52.742 33.94h-5.791c-1.081 0-1.48-.396-1.48-1.47V20.887c0-1.102.432-1.513 1.527-1.473 6.252.228 11.513 4.648 12.738 10.74.141.781.227 1.572.257 2.365.055.956-.395 1.414-1.346 1.418-1.968.006-3.937.002-5.905.002zm-4.955-12.138v9.833h9.84c-.366-5.207-5.013-9.565-9.84-9.833zM36.26 23.619h-6.703a3.34 3.34 0 01-.57-.026 1.138 1.138 0 01-.976-1.092 1.152 1.152 0 01.998-1.13c.151-.02.303-.026.456-.021H40.88c.132-.005.265 0 .397.014.595.086 1.024.547 1.032 1.103.01.577-.431 1.06-1.055 1.138-.17.015-.34.02-.51.014H36.26zM20.908 45.522h-4.542a2.134 2.134 0 01-.723-.102 1.037 1.037 0 01-.709-1.058 1.024 1.024 0 01.71-.999 2.48 2.48 0 01.78-.103c3.009-.007 6.018-.007 9.028 0 .152-.006.304 0 .455.015.617.083 1.06.578 1.044 1.149-.018.571-.448 1.012-1.045 1.091a3.95 3.95 0 01-.51.015c-1.497-.004-2.993-.006-4.488-.008zm1.667-34.956c.586 0 18.242-.01 18.827 0 .797.017 1.273.455 1.267 1.145-.007.662-.476 1.108-1.235 1.119-1.228.015-19.526.017-20.755 0-.73-.01-1.234-.505-1.226-1.138.008-.634.514-1.092 1.252-1.124h1.871l-.001-.002zm6.471 5.39c.586 0 11.414-.01 11.999 0 .796.017 1.273.455 1.266 1.145-.007.662-.475 1.108-1.234 1.118-1.228.016-12.7.017-13.927 0-.732-.011-1.235-.504-1.226-1.138.01-.634.512-1.09 1.252-1.122h.114l1.756-.003zm1.288 27.304a1.137 1.137 0 011.084 1.154 1.13 1.13 0 01-1.138 1.1 1.132 1.132 0 01-1.083-1.154 1.13 1.13 0 011.137-1.1z" fill="#3E579E"/><path d="M13.647 14.18c.954.22 1.935.366 2.858.674 5.397 1.804 8.955 7.17 8.471 12.72-.515 5.902-4.85 10.584-10.6 11.458C7.6 40.056 1.278 35.413.16 28.589c-1.083-6.6 3.491-13.024 10.107-14.2.371-.065.74-.14 1.109-.21h2.272zM2.29 26.673a10.242 10.242 0 0010.225 10.22A10.241 10.241 0 0022.732 26.67a10.243 10.243 0 00-10.224-10.22A10.242 10.242 0 002.29 26.675z" fill="#FBBA07"/><path d="M12.55 31.429c-1.004 1.138-2.024 1.978-3.528 1.842a3.355 3.355 0 01-2.162-1.014c-1.486-1.512-1.239-3.311.807-5.597-.24-.244-.487-.492-.73-.744-1.366-1.404-1.389-3.503-.065-4.843 1.345-1.366 3.465-1.355 4.88.03.24.234.434.517.715.859.359-.385.6-.673.87-.929 1.386-1.314 3.479-1.297 4.8.03 1.3 1.303 1.318 3.38.033 4.76-.256.276-.545.518-.91.862.332.302.625.536.881.805 1.317 1.383 1.307 3.488-.012 4.803-1.32 1.314-3.414 1.328-4.802.008-.258-.246-.476-.534-.777-.872zm4.447-1.501c-.237-.394-.368-.71-.584-.95-.442-.492-.935-.937-1.396-1.413-.579-.6-.578-1.188 0-1.787.474-.49.971-.957 1.44-1.451.504-.53.516-1.217.056-1.67-.46-.453-1.138-.43-1.67.079-.456.431-.884.882-1.328 1.32-.722.716-1.281.721-1.992.02-.445-.44-.878-.89-1.327-1.323-.556-.534-1.252-.557-1.707-.074-.455.482-.418 1.138.096 1.67.472.49.969.957 1.44 1.45.553.576.554 1.17 0 1.747-.471.493-.968.96-1.44 1.45-.513.535-.543 1.207-.097 1.672.446.464 1.158.455 1.713-.078.342-.325.67-.668 1.004-1.002 1.131-1.132 1.48-1.133 2.597-.019.388.389.766.787 1.173 1.154.374.342.852.426 1.252.143.308-.209.493-.594.77-.938z" fill="#FBBA07"/></svg>