<svg width="151" height="32" viewBox="0 0 151 32" fill="none" xmlns="http://www.w3.org/2000/svg"><g clip-path="url(#clip0_1_176)" fill="#000"><path d="M142.034.688h-21.451l10.652 22.875L142.034.688zM150.6.602L136.665 30.49H150.6V.602zM64.254 9.014a3.866 3.866 0 003.13 1.577c1.601 0 2.51-.847 2.51-1.963a1.84 1.84 0 00-.614-1.559 4.91 4.91 0 00-.761-.546c-.37-.225-.75-.43-1.141-.614a8.174 8.174 0 01-1.927-1.307 2.149 2.149 0 01-.614-1.558c0-1.473 1.087-2.418 2.854-2.418a2.878 2.878 0 012.03.712v.84a2.78 2.78 0 00-2.061-.877c-1.289 0-2.05.67-2.05 1.694 0 .902.614 1.411 2.093 2.184.844.388 1.62.908 2.3 1.54a2.56 2.56 0 01.682 1.884 2.455 2.455 0 01-.871 1.915 3.473 3.473 0 01-2.344.76 4.118 4.118 0 01-3.19-1.325l-.026-.939zm10.162 2.111V1.492H71.42V.78h6.78v.712h-3.01v9.633h-.773zM79.834.78h.773v6.84c0 1.896 1.11 2.97 2.908 2.97 1.798 0 2.909-1.074 2.909-2.97V.78h.773V7.7a3.517 3.517 0 01-1.013 2.67 4.296 4.296 0 01-5.344 0 3.541 3.541 0 01-1.006-2.67V.78zm9.596 10.345V.78h3.136a5.302 5.302 0 013.902 1.423 5.608 5.608 0 010 7.51 5.306 5.306 0 01-3.89 1.412H89.43zm.774-.718h2.319a4.585 4.585 0 003.393-1.227 4.976 4.976 0 000-6.504 4.534 4.534 0 00-3.4-1.227h-2.3l-.012 8.958zm9.989.718V.78h.773v10.345h-.773zm12.125-8.983a5.44 5.44 0 01-2.171 9.086A5.436 5.436 0 11108.532.602a5.141 5.141 0 013.786 1.54zm-.534 7.112a4.805 4.805 0 000-6.59 4.64 4.64 0 00-6.517 0 4.795 4.795 0 000 6.59 4.438 4.438 0 003.277 1.319 4.37 4.37 0 003.24-1.32zM9.24 31.398L.581 12.66h3.43l5.209 11.7 5.228-11.701h3.43l-8.64 18.74zm10.817-.773V12.66h11.444v2.908h-8.216v4.296h7.706v2.908h-7.706v4.952h8.406v2.914l-11.634-.012zm14.536 0V12.66h6.983a5.682 5.682 0 014.13 1.644 5.638 5.638 0 01-1.559 9.155l4.357 7.167H44.87l-3.841-6.394h-3.197v6.394h-3.24zm3.222-9.284h3.43a2.823 2.823 0 002.963-2.939 2.688 2.688 0 00-2.706-2.835h-3.681l-.006 5.774zm15.567 9.284V15.567H48.51V12.66h12.965v2.908h-4.872v15.058h-3.221zm10.4 0V12.66h11.444v2.908h-8.222v4.296h7.706v2.908h-7.694v4.952h8.424v2.914l-11.658-.012zm14.904 0V12.66h6.498a5.037 5.037 0 013.553 1.313 4.147 4.147 0 011.473 3.27 3.627 3.627 0 01-2.295 3.608 4.258 4.258 0 013.608 4.461 5.062 5.062 0 01-1.571 3.817 5.32 5.32 0 01-3.89 1.497h-7.376zM81.908 19.9h2.835a2.166 2.166 0 002.319-2.215 2.136 2.136 0 00-2.289-2.117h-2.865V19.9zm0 7.811h3.608a2.63 2.63 0 002.81-2.577c0-1.442-1.184-2.528-2.835-2.528h-3.583v5.105zm11.879 2.914V12.659h6.989a5.674 5.674 0 014.123 1.644 5.349 5.349 0 011.7 4.05 5.43 5.43 0 01-3.271 5.105l4.357 7.167h-3.639l-3.841-6.394h-3.197v6.394h-3.221zm3.221-9.284h3.43a2.818 2.818 0 002.964-2.939 2.693 2.693 0 00-.739-2.003 2.688 2.688 0 00-1.967-.832h-3.681l-.007 5.774zm11.082 9.284l8.897-18.844 8.867 18.844h-3.43l-1.577-3.485h-7.732l-1.595 3.485h-3.43zm6.216-6.265h5.313l-2.656-5.854-2.657 5.854zM146.047.78v.055l.031-.055h-.031z"/></g><defs><clipPath id="clip0_1_176"><path fill="#fff" transform="translate(.6 .602)" d="M0 0h150v30.796H0z"/></clipPath></defs></svg>