<svg width="166" height="250" viewBox="0 0 166 250" fill="none" xmlns="http://www.w3.org/2000/svg"><path d="M165.197 67.843c0 13.794-2.94 24.988-8.82 33.582-5.879 8.367-15.604 17.752-29.172 28.154-7.463 5.88-12.438 10.855-14.925 14.926-2.262 4.07-3.393 9.611-3.393 16.621v8.82H55.97v-12.89c0-11.081 2.035-20.127 6.106-27.137 4.07-7.237 10.968-15.152 20.692-23.745l11.194-10.516c9.272-8.141 13.908-16.17 13.908-24.084 0-7.237-2.262-13.003-6.785-17.3-4.296-4.297-10.289-6.445-17.978-6.445-8.82 0-15.83 3.053-21.031 9.159-4.975 6.106-7.689 13.568-8.141 22.388L0 73.609c2.488-23.745 11.533-41.95 27.137-54.613C42.967 6.332 62.302 0 85.142 0c22.162 0 41.045 5.767 56.649 17.3 15.604 11.533 23.406 28.38 23.406 50.543zm-49.525 149.932c0 9.045-3.166 16.734-9.498 23.066C99.842 246.947 92.04 250 82.768 250c-9.046 0-16.848-3.053-23.406-9.159-6.558-6.332-9.837-13.907-9.837-22.727s3.28-16.395 9.837-22.727c6.558-6.332 14.36-9.498 23.406-9.498s16.734 3.166 23.066 9.498c6.559 6.106 9.838 13.568 9.838 22.388z" fill="#ECEEF4"/></svg>