<svg width="60" height="60" viewBox="0 0 60 60" fill="none" xmlns="http://www.w3.org/2000/svg"><g clip-path="url(#clip0_1_582)"><path d="M58.968 49.335c-.34.594-.843.782-1.522.782a46334.22 46334.22 0 00-53.9-.01C2.337 50.106 2 49.763 2 48.544V33.527c0-1.274.306-1.586 1.56-1.588h16.688V17.445c0-1.091.377-1.469 1.476-1.47 11.92 0 23.842-.003 35.765-.01.657 0 1.135.222 1.486.768l-.007 32.602zM22.489 31.89h15.969V18.226h-3.832c-.01.205-.026.385-.026.566v3.338c0 .835-.434 1.266-1.275 1.27-1.89.01-3.782.01-5.674 0-.84 0-1.262-.437-1.278-1.27v-3.89h-3.88l-.003 13.65zm34.22.014V18.239h-3.864v1.985c0 .648.009 1.298 0 1.946-.013.772-.446 1.222-1.207 1.226a401.32 401.32 0 01-5.785 0c-.797 0-1.227-.445-1.234-1.256-.009-1.111 0-2.23 0-3.337 0-.194-.016-.389-.025-.57h-3.841v13.675l15.957-.003zM8.116 34.212H4.261v13.64H20.2v-13.65h-3.848v3.808c0 .92-.403 1.321-1.323 1.324H9.468c-.953 0-1.338-.398-1.345-1.357-.008-1.24-.008-2.48-.008-3.765zm14.395-.02V47.85h15.95V34.206h-3.865v3.81c0 .915-.408 1.315-1.33 1.318h-4.95c-1.783 0-1.95-.165-1.95-1.977v-3.166l-3.855.002zm18.225 13.646h15.961V34.197h-3.855v3.576c0 1.236-.32 1.561-1.533 1.563h-5.171c-1.19 0-1.527-.332-1.527-1.512v-3.618h-3.875v13.632zm-12.13-26.696h3.74v-2.899h-3.729l-.012 2.899zm18.263-2.914v2.917h3.716v-2.917h-3.716zM14.11 34.21h-3.731v2.859h3.731V34.21zm18.234 2.87v-2.876h-3.716v2.877h3.716zm18.237 0v-2.884h-3.703v2.885h3.703z" fill="#3E579E"/><path d="M58.968 59.242c-.363.607-.906.763-1.592.763-11.44-.013-22.883-.02-34.325-.02-.167 0-.334 0-.501-.007-.68-.058-1.115-.523-1.093-1.16.023-.607.46-1.04 1.133-1.049 1.057-.02 2.114 0 3.17-.009h.595v-3.392H10.178v3.368c.195.01.391.026.587.027.983 0 13.013-.01 13.995.018a1.076 1.076 0 011.05 1.027 1.112 1.112 0 01-.925 1.15c-.164.025-.33.036-.496.03H3.439C2.38 59.988 2 59.605 2 58.545v-5.12c0-.924.394-1.325 1.317-1.325h46.612c.834 0 1.306.411 1.306 1.104 0 .693-.486 1.114-1.306 1.118H34.606v3.395h16.185v-3.395h-2.936a2.94 2.94 0 01-.767-.077 1.082 1.082 0 01-.456-1.811c.178-.18.412-.292.663-.32.148-.012.297-.017.446-.013 3.27 0 6.526.012 9.79-.012.673 0 1.147.204 1.438.81l-.001 6.343zm-30.31-1.517h3.645v-3.369h-3.645v3.368zM7.885 54.364H4.25v3.374h3.63l.005-3.374zm45.198-.027v3.398h3.622v-3.398h-3.622z" fill="#FBBA07"/><path d="M46.9 18.228h12.087V.767C58.644.221 58.164 0 57.508 0c-6.342.006-12.684.009-19.026.009v18.22h8.417zm0-15.967h3.715v2.916H46.9V2.261zm-6.126.01h3.84c0 .182.025.376.026.57v3.338c.007.803.437 1.25 1.234 1.256 1.927.011 3.855.011 5.785 0 .767 0 1.19-.455 1.207-1.226.012-.648 0-1.298 0-1.947V2.277h3.865v13.666H40.768l.006-13.672z" fill="#3E579E"/></g><defs><clipPath id="clip0_1_582"><path fill="#fff" d="M0 0h60v60H0z"/></clipPath></defs></svg>