<svg width="60" height="60" viewBox="0 0 60 60" fill="none" xmlns="http://www.w3.org/2000/svg"><g clip-path="url(#clip0_1_531)"><path d="M59.991 59.065c-.273.691-.798.935-1.52.935-18.984-.008-37.967-.008-56.95 0-1.145 0-1.606-.505-1.515-1.635l1.874-23.23c.533-6.576 1.069-13.152 1.606-19.728.08-.966.481-1.344 1.468-1.346h9.49c1.016 0 1.41.376 1.49 1.386l1.644 20.37c.015.084.036.167.062.25.215-.134.41-.246.587-.37l10.568-7.045c.147-.096.293-.198.44-.293.953-.578 1.9-.069 1.908 1.05.015 2.107 0 4.216 0 6.325v.723c.262-.157.458-.267.646-.39 3.876-2.52 7.755-5.04 11.637-7.554.337-.22.726-.346 1.128-.364.614 0 1 .54 1.002 1.28v7.038c.248-.147.428-.247.6-.358 3.894-2.53 7.788-5.063 11.68-7.596.972-.631 1.505-.52 2.135.44l.02 30.112zm-16.759-27.61c-.277.17-.458.275-.634.389a28880.3 28880.3 0 00-11.632 7.563c-.476.31-.95.572-1.52.263-.569-.31-.636-.827-.634-1.405.014-2.071 0-4.14 0-6.21 0-.165-.014-.329-.021-.5a.64.64 0 00-.163.036 4115.289 4115.289 0 00-10.519 7.019.735.735 0 00-.236.572c.4 5.196.81 10.392 1.233 15.587.076.947.166 1.892.251 2.852h38.255V31.494c-.212.123-.377.213-.534.314l-4.712 3.063-7.117 4.627c-.753.487-1.468.405-1.825-.24a1.944 1.944 0 01-.188-.896c-.01-2.26-.004-4.518-.004-6.908zM2.8 53.072c.409-.043.734-.104 1.062-.106 3.123-.008 6.247-.008 9.37 0 .956 0 1.515.44 1.513 1.175-.001.733-.57 1.174-1.516 1.174h-.233c-2.968 0-5.936 0-8.904-.01-.467 0-.933-.11-1.456-.177-.062.777-.13 1.615-.198 2.496h14.559c-.731-9.068-1.46-18.109-2.189-27.122H4.622L2.8 53.072zm2.016-24.985h9.799l-.193-2.29H5.007c-.064.764-.127 1.51-.191 2.29zm9.419-4.682l-.187-2.29h-8.66l-.18 2.29h9.026zm-8.66-4.697h8.272c-.065-.786-.125-1.532-.183-2.269H5.749l-.174 2.27z" fill="#3E579E"/><path d="M59.991 15.469c-.273.691-.798.953-1.52.935-.86-.022-1.72.012-2.578-.013-.36-.01-.587.082-.713.44-.116.308-.238.646-.457.88-.62.658-.552 1.253-.026 1.934.342.44.587.967.854 1.468.43.79.294 1.395-.465 1.843a164.117 164.117 0 01-3.853 2.22c-.688.387-1.293.215-1.704-.459a40.71 40.71 0 01-1.258-2.178c-.167-.311-.37-.38-.702-.358-.543.04-1.088.04-1.63 0a.654.654 0 00-.734.4c-.367.69-.767 1.361-1.167 2.03-.477.793-1.075.962-1.877.51a197.44 197.44 0 01-3.7-2.136c-.804-.474-.96-1.06-.514-1.871.396-.716.833-1.412 1.209-2.139a.84.84 0 00-.015-.654 11.5 11.5 0 00-.869-1.52.917.917 0 00-.607-.37c-.916-.04-1.835 0-2.752-.021-.949-.012-1.4-.464-1.405-1.41a336.804 336.804 0 010-4.216c0-.96.44-1.393 1.402-1.4.919-.01 1.837.02 2.753-.021a.935.935 0 00.607-.376c.228-.31.315-.734.566-1.014.506-.571.521-1.07.063-1.684a13.152 13.152 0 01-.974-1.666c-.408-.758-.259-1.351.48-1.792A182.399 182.399 0 0142.203.63c.743-.417 1.35-.251 1.797.477a45.3 45.3 0 011.227 2.128c.166.307.356.382.7.35a8.323 8.323 0 011.633 0c.378.04.563-.076.734-.393a40.7 40.7 0 011.175-2.028C49.95.365 50.542.2 51.346.654c1.239.702 2.47 1.415 3.696 2.14.822.485.966 1.075.49 1.922-.39.697-.817 1.375-1.184 2.086a.854.854 0 00.016.654c.243.508.577.972.822 1.478.155.325.333.466.704.452.82-.029 1.643.024 2.46-.019.734-.038 1.296.17 1.65.838l-.009 5.264zm-17.505 7.123c.426-.734.815-1.407 1.208-2.078.461-.784.8-.87 1.694-.786.907.086 1.82.086 2.726 0 .88-.085 1.228 0 1.69.79.4.683.798 1.367 1.21 2.074l2.018-1.167c-.422-.734-.823-1.42-1.215-2.11-.417-.734-.335-1.072.13-1.762a20.244 20.244 0 001.414-2.469c.377-.785.621-1.018 1.502-1.027h2.743v-2.349h-2.732c-.869 0-1.134-.25-1.507-1.027a20.34 20.34 0 00-1.413-2.469c-.469-.696-.555-1.036-.147-1.761.392-.693.794-1.378 1.221-2.12l-2.023-1.174c-.43.744-.833 1.455-1.252 2.158-.403.68-.775.778-1.561.716a18.187 18.187 0 00-2.842-.01c-.88.07-1.205-.01-1.647-.76-.405-.687-.803-1.38-1.223-2.102l-2.02 1.174c.43.744.832 1.43 1.222 2.124.412.734.327 1.071-.147 1.761-.519.749-.975 1.54-1.363 2.363-.414.896-.658 1.126-1.676 1.127h-2.604v2.349h2.738c.897 0 1.123.238 1.5 1.027.414.855.887 1.68 1.415 2.468.464.694.545 1.027.127 1.761-.392.691-.793 1.375-1.216 2.106l2.03 1.173z" fill="#FBBA07"/><path d="M27.88 0c.868.465 1.073.925.852 1.908-.364 1.615-1.669 2.705-3.405 2.758-1.521.046-3.043.024-4.564.007-.795-.008-1.32-.522-1.312-1.197.009-.675.547-1.133 1.362-1.138 1.384-.009 2.768 0 4.152 0 .987 0 1.35-.293 1.515-1.239.099-.566.46-.867.93-1.095L27.88 0zm-17 2.34c1.013-.018 1.636.533 1.504 1.32-.1.598-.545 1.014-1.255 1a3.598 3.598 0 00-3.652 3.51c-.032.734-.587 1.21-1.208 1.174-.662-.035-1.144-.574-1.116-1.33A5.886 5.886 0 0110.88 2.34zm5.41 4.683c.623 0 1.248-.011 1.874 0 .734.018 1.239.473 1.268 1.116.03.643-.483 1.195-1.233 1.214-1.111.03-2.225.008-3.338.011-1.005 0-1.32.269-1.522 1.235-.147.726-.672 1.167-1.292 1.082-.673-.093-1.083-.65-1.027-1.4a3.498 3.498 0 013.335-3.246c.643-.03 1.289 0 1.933 0l.001-.012zm14.862-1.018c-.03 1.761-1.638 3.332-3.42 3.337a1.205 1.205 0 01-1.243-1.078 1.14 1.14 0 011.007-1.223c.798-.116 1.258-.486 1.36-1.331a1.13 1.13 0 011.283-1c.623.09 1.025.605 1.013 1.295zM15.933 4.666a1.204 1.204 0 01-1.175-1.158 1.175 1.175 0 011.156-1.164 1.183 1.183 0 011.174 1.15 1.204 1.204 0 01-1.155 1.172zm7.042 4.688a1.206 1.206 0 01-1.174-1.149 1.184 1.184 0 011.146-1.174 1.188 1.188 0 011.175 1.14 1.203 1.203 0 01-1.147 1.183zM38.36 42.532h3.457c.963 0 1.408.44 1.412 1.39.01 1.524.01 3.047 0 4.57 0 .952-.45 1.413-1.396 1.417-2.304.01-4.61.01-6.914 0-.952 0-1.407-.46-1.412-1.402a395.672 395.672 0 010-4.57c0-.965.44-1.4 1.395-1.407 1.154-.004 2.306.002 3.458.002zm2.496 2.387h-4.963v2.621h4.963v-2.621zm-14.364-2.387h3.222c1.008 0 1.44.424 1.446 1.418.007 1.523.007 3.046 0 4.57 0 .913-.457 1.385-1.363 1.39-2.207.014-4.414.014-6.62 0-.92 0-1.379-.465-1.386-1.369a302.707 302.707 0 010-4.63c0-.944.453-1.375 1.42-1.38 1.094-.003 2.188.001 3.281.001zm2.28 5.015v-2.642h-4.605v2.642h4.604zm21.489-5.015h3.282c.962 0 1.4.44 1.406 1.396.01 1.523.01 3.047 0 4.57 0 .949-.455 1.407-1.401 1.411-2.187.01-4.375.01-6.563 0-.948 0-1.402-.462-1.406-1.406a395.672 395.672 0 010-4.57c0-.962.44-1.395 1.402-1.401 1.093-.006 2.187 0 3.28 0zm-2.291 2.366v2.642h4.6v-2.642h-4.6z" fill="#3E579E"/><path d="M51.432 12.84c.02 2.547-2.144 4.72-4.696 4.71a4.74 4.74 0 01-4.677-4.663A4.697 4.697 0 0146.69 8.19a4.697 4.697 0 014.742 4.65zm-4.682-2.306a2.332 2.332 0 00-2.348 2.34 2.367 2.367 0 002.373 2.33 2.372 2.372 0 002.313-2.329 2.334 2.334 0 00-2.338-2.34z" fill="#FBBA07"/></g><defs><clipPath id="clip0_1_531"><path fill="#fff" d="M0 0h60v60H0z"/></clipPath></defs></svg>