<svg width="60" height="60" viewBox="0 0 60 60" fill="none" xmlns="http://www.w3.org/2000/svg"><path d="M0 59.16v-8.085c.042-.087.078-.177.106-.27.396-1.69 1.41-2.84 3.034-3.443.341-.125.38-.3.379-.6v-17.91c0-.747.424-1.252 1.066-1.309.709-.065 1.266.47 1.27 1.278.011 1.796 0 16.122 0 17.91 0 .314.038.508.404.644 1.965.728 3.104 2.4 3.114 4.5v5.713h5.36V24.861H5.86v5.53c0 .91-.43 1.449-1.155 1.46-.725.01-1.185-.545-1.187-1.487v-5.526c-.68 0-1.304-.035-1.92.01-.724.052-1.253-.194-1.595-.83v-7.733c.342-.636.87-.894 1.591-.827.425.04.86-.022 1.285.016.45.039.756-.133 1.068-.446A5650.16 5650.16 0 0118.218.75c.272-.272.587-.502.88-.751h.704a.39.39 0 00.078.081c9.564 5.07 19.13 10.13 28.697 15.184.26.126.544.189.833.185 3.007.014 6.013 0 9.022.01 1.174 0 1.555.375 1.557 1.528v6.327c0 1.125-.39 1.515-1.515 1.515h-9.382c0 1.756-.01 3.433.012 5.11a.891.891 0 00.279.536 835.528 835.528 0 005.762 5.752c.21.185.476.292.756.304.917.036 1.836 0 2.753.016.883.009 1.329.454 1.332 1.343.006 2.225.006 4.452 0 6.678 0 .891-.448 1.346-1.329 1.348H37.159c-.847 0-1.301-.47-1.304-1.31-.008-2.246-.008-4.49 0-6.73 0-.879.457-1.314 1.354-1.322.897-.007 1.836.022 2.751-.015a1.24 1.24 0 00.752-.313 492.12 492.12 0 005.716-5.716c.188-.209.299-.476.313-.757.03-1.288.014-2.578.014-3.866v-1.015h-15.59v1.951c0 1.152-.386 1.53-1.557 1.531h-1.916v29.294c.783 0 1.523-.015 2.262 0 .709.017 1.21.518 1.207 1.169-.004.65-.503 1.131-1.213 1.166h-.353c-9.333 0-18.667.004-28.002.01-.718 0-1.249-.198-1.593-.834zm17.145-44.785v11.583h11.677v-5.535c0-.253 0-.509-.019-.76-.217-2.674-2.224-4.99-4.907-5.246-2.218-.21-4.472-.042-6.75-.042zm40.471 3.444H30.982l.257 4.636h26.377v-4.636zm-36.966-5.88c.805 0 1.58-.014 2.348 0 2.592.054 4.72 1.087 6.356 3.092a.998.998 0 00.869.429c4.314-.014 8.628-.01 12.943-.01h.504l.03-.11L20.647 3.115l.003 8.824zm36.97 26.987H38.242v4.612H57.62v-4.612zM2.366 22.44h12.346v-4.616H2.367v4.616zm12.343-7.012a.85.85 0 00.042-.166V13.33c.008-.963.434-1.388 1.4-1.395h2.063v-7.67L7.059 15.427l7.651.002zM7.026 57.606c0-1.957.008-3.85 0-5.742 0-1.388-1-2.422-2.315-2.435-1.314-.013-2.358 1.028-2.365 2.442-.01 1.776 0 3.553 0 5.331 0 .13.022.26.035.404h4.645zM19.024 28.36l6.243 6.261v-6.26h-6.243zm4.325 8.16l-6.204-6.203v6.21l6.204-.007zm1.937 2.406h-6.232l6.232 6.23v-6.23zm-8.16 8.115h6.218l-6.219-6.218v6.218zm8.138 8.786v-6.355h-6.34l6.34 6.355zm-8.139 1.761h6.23l-6.23-6.23v6.23zm34.736-21.073l-3.94-3.99-4 3.99h7.94z" fill="#3E579E"/><path d="M47.896 59.98H37.409c-1.19 0-1.565-.377-1.565-1.586v-6.32c0-1.05.408-1.467 1.441-1.467h21.248c1.035 0 1.444.416 1.445 1.465v6.44c0 1.07-.409 1.466-1.503 1.468H47.896zm-9.653-7.005v4.616h8.48v-4.616h-8.48zm10.896 0v4.615h8.48v-4.615h-8.48z" fill="#FBBA07"/></svg>