<svg width="60" height="60" viewBox="0 0 60 60" fill="none" xmlns="http://www.w3.org/2000/svg"><path d="M0 57.866v-6.798c.297-.646.802-.898 1.51-.856.652.037 1.31.008 1.964.008.016-.195.03-.292.03-.389 0-7.694-.004-19.388-.013-27.082a.975.975 0 00-.293-.636A5.804 5.804 0 011.25 17.64c.011-1.954 0-3.906.01-5.86-.002-.33.057-.656.172-.965C2.596 7.859 3.772 4.907 4.96 1.96c.302-.755.605-.96 1.42-.96H53.6c.841 0 1.137.205 1.453.997a4042.52 4042.52 0 013.514 8.799c.105.251.163.52.172.792.012 2.128.023 4.257 0 6.384-.022 1.605-.672 2.954-1.85 4.031a1.096 1.096 0 00-.397.904c.01 7.558.01 19.116 0 26.674 0 .19.016.379.028.639h1.776c1.382 0 1.7.313 1.7 1.673v5.155c0 1.323-.332 1.652-1.666 1.652H35.77c-.195 0-.39 0-.585-.012a1.173 1.173 0 01-1.063-1.068 1.157 1.157 0 01.897-1.21c.25-.046.503-.063.756-.052h21.836v-3.757H2.364v3.757h38.92c.291-.01.582.022.864.097a1.129 1.129 0 01.758 1.189 1.18 1.18 0 01-.972 1.033 3.097 3.097 0 01-.47.02c-7.656 0-32.359 0-40.014.011-.684.003-1.151-.244-1.45-.842zm39.178-36.578c-1.218 1.456-2.722 2.247-4.606 2.244-1.883-.004-3.369-.82-4.567-2.224-2.471 2.947-6.744 2.997-9.216.013-2.212 2.746-6.456 3.165-9.184.023-2.191 1.995-2.852 2.244-5.717 2.142V50.18H9.12V28.34c0-1.155.382-1.533 1.555-1.533h13.592c1.298 0 1.646.341 1.646 1.619V50.18H54.1V23.45c-1.096.157-2.192.19-3.147-.3-.955-.49-1.796-1.12-2.694-1.705-2.308 2.797-6.575 2.87-9.082-.157zm-27.676 7.884V50.18H23.53V29.174l-12.028-.002zM12.8 12.69c0 1.867-.049 3.699.031 5.526.024.545.328 1.13.65 1.595a3.33 3.33 0 003.745 1.232c1.409-.44 2.348-1.675 2.39-3.266.043-1.59.013-3.203.01-4.804a1.596 1.596 0 00-.063-.284H12.8zm34.406 0h-6.815c0 1.823-.072 3.617.02 5.402.093 1.808 1.615 3.111 3.417 3.097 1.777-.014 3.287-1.381 3.367-3.169.068-1.752.011-3.511.011-5.33zm-25.232 0v4.792c0 .313.032.626.056.939.016.096.04.191.071.283a3.418 3.418 0 003.767 2.47 3.405 3.405 0 002.941-3.288c.03-1.64.01-3.279 0-4.92a1.875 1.875 0 00-.054-.303h-6.29c-.125-.006-.26.015-.49.025v.002zm9.217 0c0 1.866-.043 3.697.026 5.526.019.51.291 1.06.581 1.503a3.33 3.33 0 003.701 1.35c1.409-.392 2.433-1.576 2.483-3.053.058-1.723.017-3.435.016-5.153 0-.051-.044-.101-.077-.174h-6.73zm25.158.01h-6.777c0 1.84-.061 3.637.019 5.427.072 1.662 1.565 3 3.225 3.057 1.747.06 3.375-1.116 3.502-2.788.14-1.877.031-3.775.031-5.694V12.7zm-52.76-.018c0 1.744-.023 3.42 0 5.095.037 1.994 1.534 3.445 3.48 3.41 1.888-.026 3.336-1.526 3.348-3.49.011-1.521 0-3.044 0-4.566a4.18 4.18 0 00-.047-.45H3.59zm18.554-2.42h6.646V3.374h-5.725l-.92 6.889zm15.7.012l-.922-6.889h-5.71v6.889h6.632zm-18.067.008c.313-2.338.612-4.61.92-6.939-1.869 0-3.663-.008-5.455.019-.125 0-.313.25-.359.415-.484 1.748-.94 3.502-1.409 5.254-.106.404-.203.81-.313 1.252l6.616-.001zm20.43-.02h6.634c-.626-2.335-1.229-4.611-1.83-6.872h-5.715c.314 2.314.608 4.575.913 6.873l-.001-.002zm-36.028.043c2.144 0 4.227 0 6.303-.012.1 0 .259-.166.29-.282.598-2.192 1.182-4.393 1.782-6.638-.22-.013-.389-.03-.56-.03-1.52 0-3.041.017-4.561-.012-.409-.008-.57.142-.71.5-.771 1.976-1.565 3.943-2.348 5.912-.069.16-.114.324-.194.564l-.002-.002zm43.246-6.963c.606 2.271 1.185 4.47 1.797 6.661.04.138.332.29.51.293 1.208.026 2.418.014 3.626.014h2.472c-.098-.262-.156-.44-.233-.614-.626-1.573-1.255-3.145-1.888-4.717-.218-.538-.313-1.274-.725-1.545-.412-.271-1.127-.088-1.711-.09-1.26-.004-2.522 0-3.846 0l-.002-.002z" fill="#3E579E"/><path d="M40.623 30.804h8.725c1.127 0 1.519.388 1.519 1.506v12.119c0 1.08-.401 1.476-1.49 1.476H31.811c-1.096 0-1.489-.392-1.489-1.476V32.25c0-1.04.412-1.445 1.461-1.446 2.946-.002 5.893-.002 8.84 0zm7.85 12.742V33.193H32.706v10.371c1.265 0 2.492-.025 3.718.013a1.534 1.534 0 001.275-.521c1.008-1.062 2.058-2.084 3.101-3.111a1.096 1.096 0 011.395-.208 1.043 1.043 0 01.562 1.233 1.9 1.9 0 01-.47.783c-.546.589-1.128 1.146-1.778 1.797l7.964-.004z" fill="#FBBA07"/><path d="M34.3 39.964a2.68 2.68 0 01.398-.68c1.5-1.531 3.014-3.049 4.54-4.553.543-.538 1.233-.543 1.722-.054.449.454.45 1.172-.047 1.676a542.939 542.939 0 01-4.592 4.59c-.377.375-.828.508-1.335.275-.448-.204-.678-.563-.686-1.255z" fill="#FBBA07"/></svg>