<svg width="60" height="60" viewBox="0 0 60 60" fill="none" xmlns="http://www.w3.org/2000/svg"><g clip-path="url(#clip0_14_408)"><path d="M0 24.487c.345-.554.853-.78 1.492-.862a52.59 52.59 0 003.347-.552.959.959 0 00.624-.46 141.77 141.77 0 001.968-4.753.897.897 0 00-.096-.717c-.685-.998-1.414-1.964-2.122-2.945-.573-.797-.547-1.283.128-1.962a3183.1 3183.1 0 016.874-6.876c.684-.682 1.165-.712 1.96-.147.984.706 1.968 1.409 2.935 2.137a.692.692 0 00.79.086c1.56-.664 3.135-1.29 4.695-1.97a.97.97 0 00.477-.618c.229-1.206.4-2.423.597-3.636.147-.866.543-1.213 1.43-1.215 3.26-.006 6.52-.006 9.782 0 .907 0 1.31.364 1.453 1.262.192 1.212.37 2.428.597 3.636a.905.905 0 00.456.566c1.573.685 3.158 1.34 4.754 1.965a.892.892 0 00.718-.098c.998-.684 1.965-1.413 2.946-2.12.795-.573 1.281-.546 1.96.129 2.298 2.287 4.591 4.578 6.88 6.873.682.683.708 1.162.136 1.958-.706.984-1.432 1.952-2.116 2.95a.89.89 0 00-.109.713 143.397 143.397 0 001.974 4.751.969.969 0 00.62.475c1.205.23 2.423.4 3.635.6.867.146 1.215.54 1.217 1.427v9.78c0 .906-.364 1.311-1.26 1.452-1.214.194-2.43.371-3.638.599a.902.902 0 00-.567.455c-.684 1.575-1.34 3.16-1.966 4.754a.899.899 0 00.098.717c.686.998 1.415 1.963 2.122 2.945.572.795.546 1.282-.13 1.962a2261.598 2261.598 0 01-6.873 6.876c-.684.682-1.165.71-1.962.138-.983-.706-1.95-1.434-2.948-2.118a.899.899 0 00-.715-.107 143.397 143.397 0 00-4.75 1.974.973.973 0 00-.476.619 60.51 60.51 0 00-.572 3.521c-.084.646-.366 1.092-.97 1.333h-10.9c-.553-.345-.777-.853-.86-1.492-.146-1.121-.375-2.23-.522-3.352-.05-.374-.217-.532-.537-.662a232.115 232.115 0 01-4.647-1.922.734.734 0 00-.84.112c-.95.716-1.918 1.408-2.885 2.104-.809.587-1.286.544-2.003-.17a4477.125 4477.125 0 01-6.797-6.791c-.734-.734-.76-1.191-.147-2.054.696-.966 1.412-1.92 2.083-2.901a.892.892 0 00.107-.715 148.07 148.07 0 00-1.975-4.75.969.969 0 00-.621-.473 59.462 59.462 0 00-3.522-.573C.685 36.26.238 35.98 0 35.375V24.488zm57.636 1.354c-1.213-.19-2.364-.393-3.521-.54-.756-.095-1.229-.44-1.516-1.165-.734-1.87-1.48-3.736-2.318-5.56-.466-1.01-.426-1.813.32-2.669.683-.786 1.242-1.683 1.8-2.452l-5.87-5.869c-.933.676-1.923 1.369-2.884 2.103-.556.424-1.092.49-1.74.212a215.66 215.66 0 00-6-2.48c-.768-.3-1.143-.767-1.237-1.584-.134-1.158-.358-2.305-.549-3.486-2.68 0-5.316 0-7.95.019-.132 0-.346.26-.377.428a53.537 53.537 0 00-.492 3.12c-.093.764-.465 1.21-1.188 1.496-2.013.793-4.01 1.629-5.998 2.483-.668.293-1.218.232-1.794-.208-.956-.734-1.947-1.424-2.827-2.055L7.61 13.518c.65.898 1.33 1.878 2.054 2.82.44.574.512 1.12.22 1.79-.742 1.717-1.438 3.456-2.154 5.185-.827 2.004-.587 1.81-2.738 2.142-.88.135-1.76.294-2.607.431v8.275c1.174.184 2.3.394 3.44.53.805.096 1.293.451 1.596 1.227a104.866 104.866 0 002.356 5.67c.408.898.35 1.598-.279 2.36-.702.85-1.307 1.78-1.907 2.601l5.86 5.881c.893-.648 1.848-1.293 2.746-2.009.659-.525 1.28-.587 2.054-.255 1.929.842 3.874 1.649 5.834 2.42.767.293 1.143.767 1.237 1.584.133 1.158.358 2.305.549 3.487 2.68 0 5.316 0 7.951-.02.13 0 .345-.26.376-.428.189-1.027.362-2.075.491-3.12.094-.764.465-1.21 1.189-1.496 2.013-.792 4.01-1.629 5.998-2.483.668-.293 1.218-.231 1.795.21.955.734 1.945 1.422 2.823 2.054l5.888-5.88c-.651-.902-1.33-1.88-2.054-2.822-.44-.575-.51-1.12-.22-1.792.744-1.717 1.438-3.454 2.154-5.184.827-2.001.587-1.81 2.74-2.14.88-.136 1.76-.294 2.629-.44l.004-8.275z" fill="#3E579E"/><path d="M48.998 29.319a17.474 17.474 0 00-2.408-8.543 18.105 18.105 0 00-4.183-5.164l-.13-.113c-2.558-2.242-5.616-3.61-9.045-4.173a28.403 28.403 0 00-.932-.146 8.587 8.587 0 00-.546-.064l-.123-.01a19.534 19.534 0 00-1.244-.076l-.201-.012h-.345l-.201.012c-.418.012-.834.038-1.245.076l-.123.01a8.511 8.511 0 00-.547.064c-.313.039-.623.088-.93.146-3.43.562-6.487 1.931-9.046 4.173l-.132.113a18.098 18.098 0 00-4.182 5.164 17.462 17.462 0 00-2.41 8.543 17.287 17.287 0 002.201 9.494c.098.196.2.392.307.587.059.114.135.217.226.307a22.463 22.463 0 002.227 2.976c2.44 2.769 5.331 4.58 8.584 5.513 1.42.43 2.89.677 4.374.733.342.013.681.018 1.019.016h.105c.338 0 .677 0 1.027-.016a17.286 17.286 0 004.373-.733c3.253-.932 6.144-2.744 8.585-5.513a22.603 22.603 0 002.228-2.976c.09-.09.166-.193.224-.307.098-.195.2-.39.307-.587a17.262 17.262 0 002.186-9.495zm-8.03 13.144a17.323 17.323 0 01-2.98 2.137 16.58 16.58 0 01-5.524 1.84 19.61 19.61 0 01-2.454.178 19.567 19.567 0 01-2.454-.179A16.601 16.601 0 0122.03 44.6a17.38 17.38 0 01-2.98-2.137 17.54 17.54 0 01-3.508-4.194 7.487 7.487 0 00-.219-.453 17.019 17.019 0 01-1.662-4.633 17.35 17.35 0 01-.147-4.807 18.128 18.128 0 011.095-4.695c.026-.066.051-.134.079-.2v-.013a15.532 15.532 0 015.429-6.826c.092-.064.185-.132.28-.195l.009-.007a19.241 19.241 0 012.417-1.384c2.407-1.158 4.811-1.736 7.19-1.752 2.375.016 4.78.587 7.19 1.752a19.07 19.07 0 012.416 1.384l.01.007.279.195a15.545 15.545 0 015.43 6.826v.014l.078.199c.571 1.51.94 3.089 1.095 4.695.172 1.602.12 3.22-.154 4.807a16.963 16.963 0 01-1.663 4.633 7.678 7.678 0 00-.218.453 17.504 17.504 0 01-3.507 4.194z" fill="#3E579E"/><path d="M36.294 42.891a6.664 6.664 0 01-6.499-7.215.936.936 0 00-.229-.656 318.595 318.595 0 00-4.595-4.595.929.929 0 00-.655-.225c-4.777.452-8.418-4.339-6.694-8.826.348-.9 1.257-1.13 1.976-.473.53.488 1.027 1.027 1.539 1.523.512.495 1.036.544 1.44.132.406-.413.354-.925-.146-1.441-.46-.477-.944-.935-1.404-1.412-.807-.832-.587-1.76.5-2.127 4.593-1.541 9.03 1.936 8.668 6.781a.801.801 0 00.187.56 397.63 397.63 0 004.678 4.679c.17.143.388.215.609.2 4.797-.44 8.436 4.32 6.717 8.803-.343.892-1.272 1.123-1.98.468-.515-.475-.994-.993-1.497-1.483-.531-.515-1.027-.568-1.444-.173-.417.394-.387.933.147 1.483.463.476.946.932 1.404 1.412.77.807.558 1.75-.512 2.09-.716.231-1.472.335-2.21.495zM24.316 19.624c1.139 1.855 1.15 3.228.024 4.483a3.185 3.185 0 01-2.329 1.07c-.902.034-1.675-.334-2.408-.933.385 2.46 2.495 3.987 4.843 3.541.724-.138 1.269.024 1.787.553a355.822 355.822 0 005.429 5.43c.51.5.695 1.012.574 1.726a4.99 4.99 0 00.017 1.733c.32 1.682 1.908 3.082 3.448 3.124-1.132-1.76-1.137-3.228 0-4.484a3.18 3.18 0 012.28-1.046c.903-.041 1.68.315 2.413.908-.376-2.416-2.495-3.962-4.798-3.521-.775.146-1.33-.037-1.877-.602a221.302 221.302 0 00-5.222-5.213c-.647-.623-.847-1.237-.675-2.13.421-2.19-1.303-4.409-3.506-4.64z" fill="#FBBA07"/></g><defs><clipPath id="clip0_14_408"><path fill="#fff" d="M0 0h60v60H0z"/></clipPath></defs></svg>