<svg width="60" height="60" viewBox="0 0 60 60" fill="none" xmlns="http://www.w3.org/2000/svg"><g clip-path="url(#clip0_1_587)"><path d="M59.518 24.597a30.168 30.168 0 00-9.229-16.62A30.155 30.155 0 0032.955.179a29.108 29.108 0 00-21.338 6.148A29.39 29.39 0 00.45 24.894a45.348 45.348 0 00-.318 2.203c0 .338-.082.677-.133 1.025h.154H0v3.802c0 .348.102.707.143 1.024.093.738.185 1.507.328 2.265a29.523 29.523 0 009.783 17.337 29.59 29.59 0 0015.684 7.173c.482.072.963.123 1.486.185l.727.092h3.944l.256-.051 1.29-.174c.902-.113 1.834-.236 2.736-.43A30.076 30.076 0 0054.954 46.64a30.091 30.091 0 004.564-22.043zm-2.049 5.462a27.274 27.274 0 01-8.082 19.387 27.197 27.197 0 01-19.33 8.023h-.062a27.45 27.45 0 01-19.343-8.076 27.466 27.466 0 01-8.01-19.375v-.277a27.486 27.486 0 018.152-19.18 27.47 27.47 0 0119.262-7.944 27.45 27.45 0 0119.353 8.066 27.466 27.466 0 018.02 19.376h.04z" fill="#3E579E"/><path d="M21.84 26.329a5.235 5.235 0 00-3.708-1.548 5.254 5.254 0 00-2.049.4 5.31 5.31 0 00-2.848 2.88 5.402 5.402 0 00-.389 2.049 5.309 5.309 0 001.557 3.699 5.254 5.254 0 003.719 1.527 5.234 5.234 0 003.698-1.558 5.185 5.185 0 001.516-3.71 5.238 5.238 0 00-1.495-3.74zm-1.024 3.914a2.736 2.736 0 01-.778 1.69 2.694 2.694 0 01-1.865.78c-.351-.001-.7-.07-1.024-.206a2.827 2.827 0 01-.871-.583 2.739 2.739 0 01-.779-1.896 2.645 2.645 0 01.79-1.865 2.663 2.663 0 011.864-.79c.351.002.699.072 1.024.206.32.141.611.34.86.584.25.248.444.544.574.87.134.326.204.674.205 1.025v.185zm25.917-2.193a5.236 5.236 0 00-4.897-3.269 5.21 5.21 0 00-3.697 1.558 5.236 5.236 0 00-1.527 3.71 5.247 5.247 0 005.225 5.256 5.234 5.234 0 003.708-1.527 5.267 5.267 0 001.557-3.71 5.217 5.217 0 00-.368-2.018zm-2.181 1.967a2.5 2.5 0 01-.195 1.025 2.634 2.634 0 01-1.444 1.455 2.522 2.522 0 01-1.025.215 2.694 2.694 0 01-1.864-.778 2.614 2.614 0 01-.779-1.865v-.185a2.632 2.632 0 01.758-1.711 2.51 2.51 0 01.87-.584 2.468 2.468 0 011.025-.215 2.632 2.632 0 011.875.779c.483.499.748 1.17.738 1.864h.04zM34.86 28.05a5.236 5.236 0 00-4.897-3.269 5.21 5.21 0 00-3.697 1.558 5.206 5.206 0 00-1.527 3.71 5.247 5.247 0 005.225 5.256 5.233 5.233 0 003.708-1.527 5.267 5.267 0 001.557-3.71 5.26 5.26 0 00-.368-2.018zm-2.181 1.967a2.5 2.5 0 01-.195 1.025 2.788 2.788 0 01-.574.881c-.25.246-.546.44-.87.574a2.551 2.551 0 01-1.025.215 2.684 2.684 0 01-1.864-.778 2.634 2.634 0 01-.779-1.865v-.185a2.65 2.65 0 01.195-.84c.131-.326.326-.622.574-.87a2.56 2.56 0 01.86-.585 2.55 2.55 0 011.025-.215 2.631 2.631 0 011.874.779 2.624 2.624 0 01.779 1.864z" fill="#FBBA07"/></g><defs><clipPath id="clip0_1_587"><path fill="#fff" d="M0 0h60v59.986H0z"/></clipPath></defs></svg>