<svg width="60" height="60" viewBox="0 0 60 60" fill="none" xmlns="http://www.w3.org/2000/svg"><g clip-path="url(#clip0_103_384)"><path d="M18.867 0c.296.37.665.706.873 1.118.903 1.793 1.765 3.607 2.627 5.419.364.763.163 1.458-.482 1.748-.568.255-1.215.074-1.504-.51a341.973 341.973 0 01-2.965-6.165c-.301-.645-.03-1.135.748-1.61h.703zM8.896 24.373c0 .694-.633 1.294-1.327 1.148-2.248-.481-4.49-.999-6.728-1.53a1.136 1.136 0 01-.81-1.37 1.157 1.157 0 011.385-.875c2.17.478 4.336.969 6.5 1.474.618.141.98.6.98 1.153zM6.023 49.987c.268-.408.406-.773.667-.987 1.688-1.385 3.4-2.743 5.114-4.096.588-.47 1.306-.398 1.718.117.412.516.327 1.229-.262 1.703-1.701 1.371-3.412 2.729-5.12 4.089-.4.317-.88.442-1.302.147-.315-.218-.517-.604-.815-.973zm2.871-14.29c-.048.5-.325.917-.878 1.048-2.22.524-4.444 1.031-6.67 1.52-.622.136-1.219-.333-1.327-.955-.108-.62.273-1.176.947-1.333 1.688-.4 3.38-.781 5.072-1.17.47-.11.941-.235 1.425-.327a1.192 1.192 0 011.431 1.217zM6.023 10.004c.299-.368.502-.753.823-.974.424-.295.9-.162 1.294.154 1.208.958 2.414 1.917 3.618 2.879.503.4 1.011.795 1.506 1.208.58.484.676 1.176.256 1.703-.42.527-1.13.588-1.721.118a325.509 325.509 0 01-5.114-4.097c-.26-.215-.395-.582-.662-.991zm11.306 48.664c.06-.195.13-.386.212-.572.9-1.883 1.803-3.762 2.712-5.638.374-.77 1.007-1.047 1.647-.74.64.305.824.986.453 1.764a936.744 936.744 0 01-2.794 5.792c-.28.573-.81.824-1.338.698-.53-.126-.898-.598-.892-1.304z" fill="#FBBA07"/><path d="M58.572 38.27c-1.041-.615-2.094-1.21-3.142-1.815-.308-.177-.614-.36-.996-.588 1.39-.731 2.685-1.403 3.97-2.097.258-.132.486-.316.668-.541a1.098 1.098 0 00-.118-1.4c-.37-.406-.92-.492-1.498-.193-1.68.87-3.35 1.764-5.036 2.618-.202.103-.544.135-.729.032-1.553-.859-3.082-1.764-4.627-2.635-.269-.152-.296-.307-.273-.604.06-.697.06-1.396 0-2.092-.03-.333.026-.481.308-.64a233.607 233.607 0 004.463-2.57c.33-.196.57-.192.904-.012a321.66 321.66 0 004.972 2.613c.685.352 1.356.175 1.675-.411.338-.62.11-1.275-.594-1.662-.513-.282-1.035-.547-1.553-.824l-2.547-1.338c1.424-.824 2.759-1.579 4.086-2.353.736-.43.955-1.095.588-1.712-.353-.588-1.03-.724-1.736-.325-1.087.614-2.167 1.24-3.25 1.862l-.872.503c.065-1.597.133-3.075.182-4.553.028-.863-.412-1.389-1.139-1.404-.727-.015-1.165.47-1.2 1.346-.075 1.854-.144 3.707-.236 5.56-.008.186-.09.455-.226.536-1.676.991-3.368 1.956-4.93 2.856l-2.678-1.548c0-1.79-.009-3.703.014-5.615 0-.165.17-.377.32-.481.564-.386 1.151-.735 1.73-1.099 1.059-.664 2.117-1.32 3.17-2 .618-.4.78-1.058.443-1.618s-1.03-.727-1.684-.353c-.187.105-.364.227-.545.341l-3.45 2.158v-4.65c0-.906-.442-1.426-1.187-1.412-.72.011-1.149.524-1.152 1.397v4.16c-.01.157-.027.315-.053.47-1.301-.814-2.53-1.607-3.787-2.352a1.92 1.92 0 00-1.032-.283c-.51.03-.836.403-.94.91-.11.543.126.956.577 1.24 1.6 1.011 3.21 2.009 4.803 3.03.185.117.408.36.412.548.029 1.912.019 3.824.019 5.623l-2.661 1.541c-1.246-.716-2.606-1.516-3.986-2.279-.26-.143-.398-.3-.459-.525v2.952c1.107.637 2.165 1.237 3.207 1.862.098.06.118.292.125.445.011.733.01 1.466 0 2.199 0 .155-.014.394-.109.451-1.042.628-2.102 1.228-3.22 1.874v3.045c.031-.184.102-.374.214-.441 1.435-.864 2.893-1.689 4.229-2.456l2.67 1.544c0 1.673-.021 3.468.013 5.263.01.499-.16.763-.575 1.015-1.568.95-3.118 1.932-4.664 2.919-.626.4-.784 1.042-.445 1.616.339.574 1.027.734 1.68.36.305-.174.597-.373.895-.559l3.096-1.934v.668c0 1.367-.008 2.734 0 4.101.006.779.46 1.274 1.141 1.294.712.017 1.19-.487 1.195-1.294.008-1.554 0-3.109 0-4.746.236.133.404.22.564.32 1.108.692 2.204 1.411 3.329 2.072.295.178.635.268.98.26.512-.037.842-.403.94-.908.111-.538-.117-.956-.57-1.245-1.185-.752-2.38-1.494-3.565-2.246-.559-.353-1.319-.61-1.599-1.124-.28-.513-.08-1.294-.082-1.956v-3.866l2.671-1.558c1.573.902 3.234 1.846 4.879 2.823.155.092.273.367.283.563.094 1.853.161 3.707.235 5.561.035.878.463 1.368 1.19 1.359.745-.01 1.176-.546 1.149-1.452-.027-.906-.079-1.795-.103-2.692-.016-.571 0-1.142 0-1.77 1.388.8 2.733 1.581 4.087 2.352.669.377 1.344.23 1.69-.34.369-.612.175-1.283-.518-1.69zm-16.735-5.545a2.705 2.705 0 01-2.717-2.766 2.7 2.7 0 012.735-2.686 2.705 2.705 0 012.72 2.763 2.707 2.707 0 01-2.738 2.69z" fill="#3E579E"/><path d="M33.52 23.288c.017-3.925.012-7.85.007-11.776 0-.941-.431-1.373-1.356-1.361-.547-.005-1.093.02-1.637.076-6.146.752-10.85 3.673-14.1 8.676-3.508 5.037-4.378 10.61-2.652 16.645.221.742.497 1.467.824 2.168 2.832 7.042 9.586 11.894 17.269 12.125 1.288.039 1.656-.312 1.657-1.585 0-3.866 0-7.733.01-11.6 0-.067.007-.133.018-.198V23.629a1.296 1.296 0 01-.04-.34zm-2.372 24.18a15.998 15.998 0 01-7.016-2.17c-4.153-2.452-6.81-6.049-8.08-10.689a1.983 1.983 0 00-.297-.65 15.997 15.997 0 01-.04-7.852 2.22 2.22 0 00.353-.774 20.49 20.49 0 011.987-4.67c.175-.26.353-.52.54-.78l-.03-.03c2.144-3.21 5.246-5.489 9.384-6.747 1.026-.312 2.11-.438 3.197-.655l.002 35.017z" fill="#FBBA07"/></g><defs><clipPath id="clip0_103_384"><path fill="#fff" d="M0 0h60v60H0z"/></clipPath></defs></svg>