<svg width="60" height="60" viewBox="0 0 60 60" fill="none" xmlns="http://www.w3.org/2000/svg"><g clip-path="url(#clip0_112_664)" fill="#FCCB45"><path d="M0 53.664c.235-.842.373-1.718.704-2.517 1.603-3.891 4.543-6.129 8.665-6.855.153-.026.307-.053.458-.087.033-.008.059-.046.098-.077-4.27-.774-6.349-4.373-6.025-7.64a7.034 7.034 0 016.916-6.375c3.608-.039 6.592 2.575 7.064 6.27.393 3.062-1.47 6.884-6 7.789 2.626.352 4.954 1.336 6.92 3.216 1.265-1.578 2.724-2.875 4.478-3.832 1.735-.939 3.59-1.474 5.57-1.73-2.851-.492-5.136-1.867-6.704-4.295-1.57-2.428-1.938-5.08-1.085-7.849 1.316-4.285 5.497-7.073 9.916-6.534 4.834.587 8.279 4.394 8.394 9.09.108 4.431-3.028 8.765-8.219 9.583 4.102.47 7.452 2.29 10.04 5.565 1.958-1.851 4.269-2.877 6.92-3.22-1.984-.392-3.596-1.343-4.752-2.987-1.174-1.666-1.556-3.523-1.128-5.511a7.045 7.045 0 017.443-5.537c3.498.292 6.312 3.203 6.447 6.672.142 3.64-2.331 6.648-6.028 7.38.166.034.332.081.501.104a10.822 10.822 0 019.403 10.712c0 .625.01 1.25 0 1.879-.016.887-.456 1.331-1.332 1.36h-.352c-18.883 0-37.766.003-56.65.01-.729 0-1.292-.176-1.66-.831L0 53.664zm41.745 2.2c-.251-4.635-2.23-8.2-6.313-10.315-4.365-2.26-8.67-1.843-12.598 1.116-3.013 2.27-4.445 5.413-4.553 9.2h23.464zm-11.73-30.44a7.051 7.051 0 00-7.044 7.028 7.05 7.05 0 006.984 7.031 7.05 7.05 0 007.073-6.995 7.052 7.052 0 00-7.013-7.063zm-14.147 30.44c.15-1.08.208-2.141.46-3.153.256-1.033.718-2.014 1.047-3.03.051-.157-.066-.437-.198-.573-2.799-2.936-7.662-3.444-11.061-1.129-2.763 1.879-3.992 4.522-3.745 7.886h13.497zm41.861 0c-.093-.97-.07-1.92-.29-2.811-.783-3.187-2.839-5.263-5.952-6.166-3.21-.932-6.08-.124-8.571 2.097-.338.302-.389.546-.21.995a23.61 23.61 0 011.032 3.153c.214.88.257 1.803.379 2.733h13.612zM10.893 32.46a4.73 4.73 0 00-4.677 4.659c-.02 2.553 2.13 4.713 4.689 4.707a4.73 4.73 0 004.677-4.66c.02-2.554-2.133-4.713-4.69-4.707h.001zm42.89 4.67a4.732 4.732 0 00-4.666-4.67c-2.556-.015-4.711 2.138-4.696 4.696a4.731 4.731 0 004.666 4.67c2.55.014 4.705-2.14 4.695-4.697l.001.002zM23.732 18.647c.25-1.486.501-3.065.794-4.637a.736.736 0 00-.25-.762c-1.057-1.013-2.095-2.047-3.152-3.06-.414-.398-.655-.841-.46-1.41.195-.568.676-.75 1.235-.822 1.41-.187 2.818-.405 4.227-.597a.85.85 0 00.742-.538c.617-1.325 1.283-2.626 1.916-3.945.247-.515.587-.886 1.193-.876.579.01.904.378 1.14.87.635 1.316 1.292 2.62 1.916 3.945a.85.85 0 00.741.544c1.41.19 2.818.408 4.227.597.556.074 1.037.243 1.239.822.212.603-.07 1.046-.492 1.451-1.015.974-2.005 1.974-3.03 2.936a.95.95 0 00-.326.97c.262 1.42.484 2.846.748 4.265.102.553.01 1.023-.449 1.355-.458.332-.918.252-1.382.008-1.328-.704-2.652-1.409-3.991-2.08a.93.93 0 00-.727 0c-1.36.68-2.692 1.415-4.049 2.102-.924.464-1.838-.076-1.81-1.138zM29.955 5.83c-.492 1.01-.946 1.933-1.393 2.86-.235.469-.574.757-1.114.828-1.014.135-2.025.302-3.087.463.641.654 1.197 1.308 1.842 1.854.734.62.93 1.311.705 2.23-.206.815-.292 1.66-.449 2.583.798-.416 1.527-.722 2.166-1.15.93-.622 1.772-.6 2.7.013.635.421 1.35.723 2.145 1.137-.172-1.021-.283-1.909-.48-2.778-.179-.79.014-1.379.617-1.927.67-.61 1.26-1.308 1.892-1.979-.957-.142-1.933-.31-2.914-.427-.633-.075-1.02-.4-1.281-.96-.427-.894-.875-1.777-1.35-2.742V5.83zM5.241 24.548c.139-.795.291-1.761.48-2.715.087-.44.013-.762-.344-1.075-.63-.552-1.2-1.174-1.815-1.745-.433-.404-.696-.857-.496-1.454.193-.578.678-.748 1.235-.821.87-.11 1.737-.255 2.607-.367a.832.832 0 00.74-.543c.373-.836.808-1.644 1.206-2.466.235-.47.563-.805 1.112-.822.577-.013.93.325 1.174.822.398.822.822 1.637 1.203 2.472a.837.837 0 00.741.54c.87.108 1.737.26 2.607.364.587.07 1.07.276 1.258.875.188.6-.117 1.01-.516 1.395-.666.632-1.333 1.264-1.966 1.927a.896.896 0 00-.209.648c.127.926.296 1.848.47 2.769.1.537.042 1.02-.413 1.373-.456.354-.94.29-1.428.03-.822-.44-1.663-.859-2.48-1.314a.725.725 0 00-.8-.007 52.25 52.25 0 01-2.643 1.383c-.896.43-1.76-.139-1.723-1.27zm8.04-5.785c-1.814.124-2.81-.727-3.3-2.399-.437 1.748-1.54 2.466-3.298 2.412 1.506.97 1.896 2.23 1.253 3.886 1.385-1.099 2.7-1.142 4.091 0-.616-1.664-.221-2.922 1.253-3.9zm31.801 5.786c.139-.795.292-1.761.48-2.715.087-.44.015-.762-.343-1.075-.63-.553-1.2-1.174-1.815-1.746-.433-.404-.696-.856-.498-1.452.199-.597.679-.75 1.236-.822.87-.11 1.737-.255 2.607-.367a.835.835 0 00.74-.542c.384-.854.822-1.68 1.234-2.52.223-.459.562-.756 1.084-.769.55-.014.91.294 1.143.768.415.839.843 1.671 1.228 2.523a.838.838 0 00.741.542c.87.108 1.737.26 2.608.364.587.07 1.07.274 1.258.875.182.582-.111 1.009-.516 1.394-.666.632-1.332 1.263-1.965 1.927a.887.887 0 00-.21.648c.126.927.296 1.848.47 2.768.1.538.042 1.02-.413 1.374-.484.376-.98.275-1.479 0-.806-.434-1.628-.842-2.429-1.291a.722.722 0 00-.8-.009 50.83 50.83 0 01-2.642 1.384c-.896.43-1.754-.124-1.719-1.26zm6.72-1.833c-.056-.863-.3-1.635-.095-2.26.206-.625.861-1.122 1.42-1.798-1.818.228-2.818-.622-3.304-2.294-.437 1.75-1.54 2.466-3.298 2.413 1.506.969 1.896 2.23 1.253 3.885 1.385-1.1 2.7-1.141 4.025.054z"/></g><defs><clipPath id="clip0_112_664"><path fill="#fff" d="M0 0h60v60H0z"/></clipPath></defs></svg>