<svg width="60" height="60" viewBox="0 0 60 60" fill="none" xmlns="http://www.w3.org/2000/svg"><g clip-path="url(#clip0_1_158)" fill="#FCCB45"><path d="M59.842 46.964a5.08 5.08 0 00-5.957-3.77c-1.166.234-2.32.518-3.482.781l-2.921.662c0-.62.035-1.149-.01-1.672-.054-.613.17-1.034.595-1.482 5.904-6.222 7.936-13.597 6.412-22-.14-.782-.725-1.18-1.428-1.038-.645.132-1.003.744-.875 1.496.086.5.194.999.255 1.503.768 6.242-.705 11.87-4.615 16.827-.104.11-.216.21-.334.303v-12.36c0-1.437-.307-1.74-1.761-1.74h-7.969c-.224 0-.448-.022-.704-.035V12.163c0-.934-.395-1.376-1.282-1.383-3.378-.027-6.757-.043-10.135-.05-.915 0-1.357.463-1.36 1.387v6.321h-8.956c-1.087 0-1.48.397-1.48 1.486v11.279h-2.603c0-.246-.012-.457 0-.668.109-1.68-.389-2.224-1.976-2.075-.312.03-.454-.081-.479-.416-.082-1.11-.258-2.217-.277-3.329-.008-.552.005-1.1.038-1.643l.01-.132c.08-1.14.244-2.274.492-3.39l.014-.059.07-.293c.038-.159.078-.316.117-.47 0-.015.01-.031.013-.048.047-.169.095-.337.144-.505l.021-.07a21.102 21.102 0 01.39-1.156c1.33-3.574 3.321-6.544 5.972-8.911a6.26 6.26 0 00.279-.227c.577-.5 1.174-.97 1.79-1.409l.047-.032.153-.105a24.228 24.228 0 012.614-1.546c.176-.086.352-.172.53-.255 5.57-2.545 11.245-2.79 17.02-.736.81.29 1.475.058 1.723-.587.264-.695-.08-1.298-.923-1.615C36.338.522 33.564.05 30.68.013c-3.657.02-7.161.734-10.421 2.294a24.377 24.377 0 00-6.904 4.779c-2.771 2.8-4.845 6.045-6.012 9.793a23.93 23.93 0 00-1.174 8.593c.043.972.151 1.94.235 2.982h-.628c-1.368 0-2.736.027-4.102-.01-.723-.02-1.291.163-1.678.802V50.62c.292.495.655.836 1.292.833 2.87-.017 5.741 0 8.613-.01.844 0 1.284-.448 1.314-1.308.01-.304 0-.61 0-.954 1.507 0 2.928-.005 4.35.006.175.021.344.072.5.15 5.736 2.254 11.471 4.51 17.204 6.768 2.786 1.099 5.635 1.389 8.556.686 2.957-.714 5.898-1.489 8.846-2.24 1.889-.482 3.79-.925 5.662-1.466a5.061 5.061 0 003.509-6.121zM8.836 49.077H2.379V30.844h6.457v18.233zm28.62-5.678c.802-1.654.715-3.328-.187-4.95a1.439 1.439 0 01-.215-.645c-.013-3.563-.008-7.124-.006-10.682.007-.087.021-.174.041-.259h8.004v18.313c-2.476.598-4.93 1.329-7.54.884-.386-.067-.518-.187-.52-.587a4.485 4.485 0 01.424-2.074zM26.61 13.44c0-.095.015-.191.027-.315h8.031V36.23a941.03 941.03 0 01-2.69-1.11c-1.644-.678-3.278-1.362-4.921-2.03-.3-.118-.46-.253-.46-.627.017-6.341.02-12.682.013-19.022zm-10.392 7.363h8.007v11.041a.694.694 0 01-.226-.04c-1.025-.608-2.15-.596-3.287-.577-1.481.025-2.963.006-4.492.006l-.002-10.43zm39.31 30.076c-4.814 1.244-9.627 2.491-14.455 3.668-2.318.566-4.61.282-6.832-.592-5.841-2.3-11.685-4.592-17.532-6.878a3.694 3.694 0 00-1.244-.243c-1.382-.03-2.766-.012-4.217-.012V33.618c.185-.013.352-.034.524-.034h9.957a1.98 1.98 0 01.736.131 3171.62 3171.62 0 0111.29 4.685c1.154.48 1.812 1.35 1.868 2.603.056 1.252-.51 2.23-1.61 2.846-.814.455-1.678.47-2.544.142-2.458-.939-4.914-1.884-7.369-2.836l-.164-.06c-.853-.318-1.52-.1-1.77.576-.25.676.082 1.291.94 1.617 3.783 1.458 7.564 2.925 11.355 4.363 2.949 1.118 5.94 1.083 8.978.343 3.56-.866 7.142-1.651 10.715-2.465 1.621-.368 3.037.48 3.42 2.035.36 1.479-.49 2.914-2.048 3.317z"/><path d="M41.571 16.714c.521.477 1.222.419 1.754-.191A3548.84 3548.84 0 0052.77 5.617c.207-.235.315-.566.418-.757-.07-.637-.286-1.028-.78-1.217-.549-.21-.996-.026-1.361.394-3.164 3.648-6.326 7.297-9.485 10.949-.504.584-.485 1.276.008 1.728zm8.666-4.984a2.917 2.917 0 00-2.942 2.928 2.944 2.944 0 002.92 2.959 2.973 2.973 0 002.959-2.942 2.942 2.942 0 00-2.937-2.944zm.669 3.073c-.235.152-.476.446-.683.42-.208-.026-.5-.34-.549-.57a.455.455 0 01.56-.547c.246.048.452.29.676.446 0 .083-.003.166-.004.247v.004zm-7.215-5.71a2.925 2.925 0 002.96-2.913 2.947 2.947 0 00-2.905-2.98 2.968 2.968 0 00-2.965 2.925 2.936 2.936 0 002.91 2.968zm-.526-2.935c.03-.222.352-.404.55-.603.196.197.517.377.55.598.03.2-.258.447-.406.672h-.275c-.152-.22-.446-.465-.419-.664v-.003z"/></g><defs><clipPath id="clip0_1_158"><path fill="#fff" d="M0 0h60v60H0z"/></clipPath></defs></svg>