<svg width="60" height="60" viewBox="0 0 60 60" fill="none" xmlns="http://www.w3.org/2000/svg"><g clip-path="url(#clip0_112_631)" fill="#FCCB45"><path d="M60.006 49.209c-.113.531-.21 1.065-.342 1.59-1.6 6.35-7.566 10.16-14.005 8.952-5.94-1.12-10.245-7.02-9.47-13.037.587-4.532 3.015-7.72 7.133-9.652l.402-.195-.357-.404c-1.068-1.213-1.532-2.641-1.53-4.245.008-7.596.008-15.192 0-22.787v-.734H16.204v10.978H26.77c2.763 0 4.402 1.642 4.402 4.414v11.988h13.18c.234-.01.468-.002.701.022a1.136 1.136 0 011.027 1.15 1.123 1.123 0 01-1.036 1.145c-.428.031-.857.04-1.286.025h-12.59v17.1c0 2.85-1.615 4.468-4.463 4.468H4.446c-2.813 0-4.445-1.625-4.445-4.426V24.103c0-2.8 1.634-4.42 4.45-4.42h9.378V7.942c0-1.238.378-1.621 1.6-1.621h7.892v-.573c0-1.367.028-2.735-.01-4.108-.02-.734.172-1.296.835-1.653h28.706c.54.322.832.765.828 1.425-.018 2.518 0 5.038-.009 7.557 0 .854-.462 1.4-1.16 1.407-.696.008-1.173-.541-1.173-1.388-.009-1.718 0-3.436 0-5.155V2.367H25.704v3.949h16.852c1.269 0 1.629.365 1.629 1.649v24.017c-.008.331.01.663.05.992a3.543 3.543 0 004.766 2.882c1.443-.508 2.331-1.852 2.334-3.572V7.485a2.83 2.83 0 01.098-.864 1.052 1.052 0 011.069-.76 1.065 1.065 0 011.07.757c.073.243.107.495.1.748v24.978c0 1.115-.222 2.172-.824 3.124-.269.424-.572.826-.861 1.24.03.032.05.068.079.08.107.05.217.089.324.133 3.305 1.349 5.617 3.685 6.86 7.026.35.939.505 1.948.748 2.926l.008 2.336zm-57.661-9.37v15.753c0 1.467.587 2.054 2.054 2.054h22.378c1.467 0 2.054-.587 2.054-2.054V24.084c0-1.467-.587-2.054-2.054-2.054H4.392c-1.468 0-2.054.587-2.054 2.054l.007 15.754zm45.727 17.804c5.291-.017 9.611-4.365 9.583-9.643a9.636 9.636 0 00-9.601-9.568 9.638 9.638 0 00-9.619 9.615 9.637 9.637 0 009.637 9.596z"/><path d="M31.113 11.482h5.855c.272-.007.543.029.804.107a1.042 1.042 0 01.72 1.035c.01.509-.228.915-.733 1.086a2.55 2.55 0 01-.804.107H20.843a2.896 2.896 0 01-.696-.063 1.15 1.15 0 01-.873-1.111 1.147 1.147 0 01.88-1.104 2.98 2.98 0 01.696-.061l10.263.004zm3.384 7.967h-2.514c-.838 0-1.392-.482-1.387-1.174.006-.693.552-1.16 1.402-1.162a610.48 610.48 0 015.027 0c.84 0 1.394.485 1.388 1.174-.006.688-.556 1.154-1.403 1.162-.846.007-1.675 0-2.513 0zm.98 5.623c-.544 0-1.09.016-1.635 0-.75-.027-1.269-.533-1.253-1.189.016-.656.517-1.127 1.239-1.142a82.198 82.198 0 013.33 0c.748.015 1.271.536 1.255 1.19-.016.652-.522 1.101-1.241 1.145h-.117l-1.578-.004zm.013 3.282c.546 0 1.09-.013 1.636 0 .756.022 1.28.505 1.287 1.158.008.653-.518 1.162-1.268 1.174a91.4 91.4 0 01-3.27 0c-.76-.012-1.28-.499-1.286-1.156-.006-.658.51-1.142 1.265-1.174h1.636v-.002zm-19.873 7.264h9.318c1.148 0 1.551.405 1.551 1.554V53.28c0 1.149-.403 1.55-1.554 1.55H6.241c-1.15 0-1.551-.403-1.553-1.552V37.17c0-1.147.404-1.55 1.554-1.551h9.376zm4.419 16.83h4.061v-8.815h-4.061v8.816zm-6.479-14.47v3.228h4.06v-3.229h-4.06zm-.016 5.637v3.206h4.091v-3.206h-4.09zm4.076 8.859v-3.228h-4.061v3.228h4.062zM7.073 37.979v3.228h4.045V37.98H7.073zm17.044.015H20.05v3.215h4.067v-3.215zm-17.044 5.61v3.228h4.045v-3.229H7.073zm-.016 8.852h4.066v-3.213H7.057v3.213zm8.53-28.086h8.434c1.614 0 2.461.841 2.464 2.447 0 1.385.009 2.771 0 4.157-.01 1.416-.892 2.296-2.314 2.298-5.722.006-11.445.006-17.169 0-1.423 0-2.305-.88-2.314-2.297a457.04 457.04 0 01-.003-4.335c.012-1.377.898-2.262 2.285-2.267 2.876-.01 5.746-.003 8.617-.003zm8.528 2.388H7.08v4.145h17.035v-4.145zM44.32 50.603c-.01-.747.401-1.255 1.035-1.343.61-.084 1.13.327 1.282 1.013.227 1.027.997 1.5 1.926 1.174.508-.175.834-.517.856-1.066.019-.463-.411-.94-.944-1.053-.533-.113-1.05-.125-1.55-.266a3.512 3.512 0 01-2.603-3.18c-.1-1.31.78-2.641 2.13-3.288.209-.108.373-.285.466-.5.206-.533.54-.859 1.118-.863.578-.005.919.312 1.136.84.105.23.283.418.506.536 1.158.587 1.893 1.48 2.075 2.788.106.762-.262 1.354-.904 1.478-.716.138-1.22-.24-1.398-1.05-.197-.902-.88-1.354-1.761-1.167-.587.124-1.037.625-1.027 1.123.01.5.455.959 1.014 1.066.478.092.971.114 1.44.24a3.485 3.485 0 012.65 3.197c.096 1.31-.784 2.64-2.139 3.28a1.097 1.097 0 00-.488.497c-.225.5-.57.783-1.12.777-.524-.007-.848-.293-1.074-.76a1.256 1.256 0 00-.531-.528c-1.242-.627-1.963-1.604-2.096-2.945z"/></g><defs><clipPath id="clip0_112_631"><path fill="#fff" d="M0 0h60v60H0z"/></clipPath></defs></svg>