<svg width="60" height="60" viewBox="0 0 60 60" fill="none" xmlns="http://www.w3.org/2000/svg"><g clip-path="url(#clip0_112_619)" fill="#FCCB45"><path d="M37.648 56.344l-.282.081c-5.378 1.657-10.766 1.679-16.125-.008A26.935 26.935 0 012.56 27.398c.715-5.89 3.151-10.973 7.214-15.288.139-.149.189-.382.28-.576.485.906.873 1.227 1.423 1.212.578-.016.975-.392 1.17-1.12.26-.96.524-1.918.765-2.882.181-.72-.18-1.372-.87-1.557-1.033-.277-2.072-.54-3.114-.79a1.166 1.166 0 00-1.44.773c-.187.637.146 1.253.815 1.475.272.09.553.156 1.044.297a4.7 4.7 0 00-.559.38C4.57 13.803 1.576 19.224.443 25.647c-.186 1.054-.297 2.12-.443 3.18v3.75c.157 1.08.255 2.169.459 3.238 1.756 9.19 6.753 16.065 14.883 20.645 3.618 2.036 7.544 3.141 11.69 3.445.132.02.263.052.39.094h3.633c.168-.042.339-.074.51-.095a28.897 28.897 0 006.759-1.322c.82-.263 1.196-.852.981-1.525-.214-.673-.834-.955-1.657-.714z"/><path d="M26.48 9.054c0-1.13-.903-1.638-1.886-1.086-.136.076-.27.157-.402.24-3.612 2.169-7.217 4.351-10.843 6.497-.671.396-.94.876-.94 1.653.02 9.395.024 18.79.013 28.184v.696h-.73c-1.058 0-1.618.415-1.61 1.183.008.77.56 1.16 1.631 1.16h36.965c.72-.028 1.223-.492 1.239-1.142.015-.65-.5-1.173-1.242-1.197-.36-.01-.72 0-1.096 0V16.018c-.026-.783-.47-1.23-1.243-1.252-.346-.011-.693 0-1.096 0v-3.259c0-.883-.261-1.23-1.124-1.448-3.005-.758-6.01-1.51-9.017-2.256-.925-.23-1.566.288-1.573 1.262-.01 1.678 0 3.358 0 5.038v.661h-.707c-1.291 0-1.636.345-1.637 1.628v3.016h-4.687v-.686c-.011-3.224.001-6.446-.014-9.668zM24.094 24.14h-.908c-.958.01-1.387.438-1.387 1.41v19.664h-7v-4.663h1.663c.605 0 1.21.016 1.815 0a1.168 1.168 0 00.834-1.99 1.163 1.163 0 00-.847-.34c-.956-.022-1.913 0-2.87 0h-.597v-2.348h2.661c.274 0 .548.01.82 0 .674-.04 1.157-.523 1.167-1.153a1.165 1.165 0 00-1.195-1.18c-1.132-.02-2.264 0-3.444 0v-2.35h3.364c.756-.02 1.271-.49 1.276-1.163.005-.671-.51-1.166-1.252-1.175-1.112-.013-2.223 0-3.379 0v-2.35c1.096 0 2.206.03 3.31-.016.362-.024.708-.155.996-.376.357-.285.432-.73.255-1.178a1.137 1.137 0 00-1.13-.77h-3.43c-.016-.177-.043-.326-.043-.47 0-2.207-.01-4.414.013-6.62a.88.88 0 01.335-.639c2.897-1.766 5.81-3.507 8.723-5.255.064-.039.136-.067.255-.125l-.005 13.087zm7.045 21.068H28.86v-4.614h2.278v4.614zm4.769-34.79l6.973 1.737v2.562h-6.973v-4.3zm-2.349 6.72h11.637v2.314c-1.096 0-2.206-.04-3.308.02-.37.02-.844.198-1.052.47-.208.273-.238.772-.157 1.128.118.499.569.72 1.085.723h3.433v2.349c-1.108 0-2.215-.04-3.319.022-.367.018-.842.2-1.048.47-.207.269-.232.773-.148 1.128.12.498.573.714 1.096.717h3.43v2.35h-3.154a2.606 2.606 0 00-.637.05 1.162 1.162 0 00-.847 1.253 1.16 1.16 0 001.158 1.035c1.148.02 2.297 0 3.482 0v2.35h-3.222a2.112 2.112 0 00-.74.12 1.129 1.129 0 00-.67 1.24 1.162 1.162 0 001.157.97c1.147.02 2.296 0 3.498 0v2.35H43.98c-.742 0-1.484-.015-2.226 0a1.163 1.163 0 00-1.184 1.19 1.162 1.162 0 001.18 1.14c.938.023 1.878 0 2.817 0h.66v4.642H38.23V25.89c0-1.45-.296-1.746-1.749-1.75h-.595V21.2c0-1.449-.296-1.743-1.752-1.748h-.555l-.02-2.314zm-7.021 4.697h6.957v2.272h-6.957v-2.272zm9.285 4.698V45.2h-2.301v-1.927c0-1.253.008-2.506 0-3.749 0-.852-.456-1.309-1.3-1.315a340.68 340.68 0 00-4.383 0c-.885 0-1.332.452-1.335 1.337v5.667H24.19v-18.68h11.632z"/><path d="M59.513 23.937a2.132 2.132 0 00-.04-.303C58.356 18.035 55.802 13.18 52.14 9.31a31.838 31.838 0 00-4.978-4.248 1.793 1.793 0 00-.156-.113C42.255 1.778 37.018.152 31.69.005c-3.582-.06-6.718.377-9.779 1.339-1.036.324-1.446.855-1.217 1.584.237.766.873.982 1.936.648a26.649 26.649 0 0111.05-1.074 26.536 26.536 0 019.253 2.77c.086.055.179.108.28.157a26.67 26.67 0 018.567 7.046c.42.523.814 1.058 1.19 1.603.014.031.03.06.048.09.07.117.149.228.223.342a26.035 26.035 0 014.26 11.95c.727 7.615-1.344 14.406-6.263 20.278-1.07 1.276-2.328 2.395-3.499 3.587l-.145-.119c.022-.128.045-.257.064-.385a1.16 1.16 0 00-.858-1.34 1.096 1.096 0 00-1.365.706 51.45 51.45 0 00-.916 3.444 1.024 1.024 0 00.719 1.253c1.137.343 2.285.652 3.444.929.557.133 1.088-.243 1.273-.793a1.152 1.152 0 00-.569-1.389 6.223 6.223 0 00-.626-.236c.214-.188.357-.313.507-.44 8.448-6.878 12.14-17.756 10.245-28.018z"/><path d="M27.732 31.167c1.518.012 3.037.012 4.555 0 .712 0 1.212-.498 1.223-1.146.01-.648-.501-1.173-1.243-1.188-.742-.016-1.48 0-2.219 0-.782 0-1.565-.013-2.335 0-.714.014-1.214.498-1.225 1.146-.01.671.501 1.182 1.244 1.188zm4.522 2.353c-.74-.013-1.48 0-2.22 0-.74 0-1.518-.01-2.277 0-.76.009-1.265.492-1.269 1.16-.003.67.51 1.169 1.253 1.175 1.5.013 2.999.013 4.498 0 .751 0 1.265-.493 1.268-1.163.003-.67-.508-1.159-1.253-1.173z"/></g><defs><clipPath id="clip0_112_619"><path fill="#fff" d="M0 0h60v60H0z"/></clipPath></defs></svg>