<svg width="60" height="60" viewBox="0 0 60 60" fill="none" xmlns="http://www.w3.org/2000/svg"><g clip-path="url(#clip0_112_653)" fill="#FCCB45"><path d="M59.919 6.001C59.175 3.261 57.538 2 54.717 2H36.668c-2.705 0-4.202 1.03-5.166 3.55-.012.032-.049.054-.097.107-2.016-1.252-4.227-1.816-6.59-1.962-6.529-.399-11.948 3.758-13.195 10.176-.156.84-.126 1.749.533 2.297.76.626.736 1.365.717 2.176-.014.663 0 1.329 0 1.992.03 3.432 1.357 6.283 3.871 8.596.448.414 1.145.742 1.298 1.242.153.5-.291 1.196-.313 1.81-.052 1.433-.794 2.222-2.092 2.705-.696.256-1.335.541-2.111.55-1.12.011-2.23.189-3.297.525-3.732.698-6.387 3.083-8.311 6.442A14.421 14.421 0 00.138 47.34l-.028.2v.018c-.06.436-.096.875-.11 1.315v7.52c0 .967.42 1.382 1.384 1.382h45.532c.964 0 1.382-.421 1.384-1.4v-7.03c.004-2.572-.662-5.1-1.932-7.336-2.192-3.883-5.345-6.481-9.961-6.72-1.498-.079-2.818-.398-4.07-1.17-.066-.04-.157-.056-.204-.111-.17-.212-.413-.412-.47-.655-.242-.962-.394-1.95-.65-2.91-.126-.482.015-.723.383-1.017 2.542-2.035 4.037-4.665 4.369-7.923.072-.708.083-1.423.12-2.122h6.564c0 .916.01 1.793 0 2.662-.007.61.132 1.135.75 1.39.619.255 1.048-.028 1.466-.437 1.13-1.107 2.259-2.215 3.417-3.287.237-.211.538-.336.855-.354 2.108-.03 4.217 0 6.327-.022a4.794 4.794 0 004.617-3.71c.031-.129.081-.254.124-.38v-9.15A.341.341 0 0159.919 6zM16.456 36.865c0-.014.033-.02.05-.03.576-.279 1.165-.797 1.722-.77.531.026 1.038.626 1.547.974a393.7 393.7 0 012.71 1.917l-5.12 3.889c-.405-1.912-.791-3.7-1.148-5.493-.024-.143.155-.324.24-.487zm3.288-3.094c.156-.842.344-1.676.548-2.631 2.799 1 5.59.994 8.427-.138.214 1.002.42 1.912.593 2.827a.515.515 0 01-.186.413 271.97 271.97 0 01-4.418 3.069.549.549 0 01-.496-.028 256.187 256.187 0 01-4.294-3.042.568.568 0 01-.173-.47h-.001zm1.392 13.719c-.179 1.275-.36 2.55-.542 3.826-.196 1.362-.398 2.725-.595 4.08H8.931v-7.045c.014-.489.002-.977-.034-1.464a1.083 1.083 0 00-1.08-.96 1.108 1.108 0 00-1.165.864 3.567 3.567 0 00-.061.755v7.849H2.336v-4.54c0-.594 0-1.19.012-1.784v-.149a12.35 12.35 0 01.692-3.467c.07-.193.11-.395.118-.6.142-.366.304-.724.483-1.074 1.237-2.414 2.96-4.136 5.209-5.102a1.46 1.46 0 00.652-.138 11.94 11.94 0 011.306-.483c.215-.045.433-.086.653-.123v-.064c.617-.15 1.245-.25 1.878-.299.384-.03.539.049.627.46.47 2.294.953 4.583 1.45 6.87.26 1.191 1.144 1.5 2.127.76.808-.61 1.612-1.222 2.48-1.88.397 1.14.782 2.219 1.147 3.305a.94.94 0 01-.033.403h-.002zm1.24 7.907c.345-2.42.687-4.805 1.03-7.201h1.981c.335 2.38.67 4.76 1.015 7.2h-4.027zm3.33-9.877c-.056.135-.264.212-.41.302-.042.027-.114 0-.172 0-.626-.01-1.4.2-1.825-.097-.426-.296-.482-1.096-.701-1.675 0-.017-.01-.037-.016-.056-.182-.57-.609-1.21-.47-1.692.126-.454.843-.746 1.304-1.104.338-.261.683-.514 1.068-.803a391.17 391.17 0 002.278 1.722c.062.047.131.084.199.128-.43 1.135-.827 2.21-1.254 3.275h-.002zm7.851-.684c.47-2.212.956-4.422 1.388-6.642.106-.548.313-.68.85-.637 4.104.325 6.997 2.417 8.83 6.04a12.082 12.082 0 011.298 5.356c.027 2.128 0 4.255 0 6.428h-3.892v-8.208c-.034-.767-.497-1.252-1.186-1.252s-1.15.487-1.152 1.267v8.186H28.777c-.141-.982-.292-1.995-.436-3.01-.222-1.565-.452-3.13-.65-4.696a2.192 2.192 0 01.088-.964c.337-.968.725-1.92 1.12-2.95l2.472 1.871c1.042.794 1.914.482 2.188-.789h-.002zm-2.547-8.754a.264.264 0 01.105.048c.547.298 1.326.47 1.566.93.22.418-.128 1.148-.249 1.735-.27 1.318-.556 2.631-.855 4.045l-5.108-3.873c1.409-.975 2.758-1.924 4.125-2.857.099-.072.277-.028.418-.028h-.002zm.23-9.802c-2.537 2.8-5.674 3.955-9.342 2.864-3.668-1.091-5.949-3.667-6.547-7.48-.229-1.442-.038-2.95-.038-4.5h.692c2.067-.043 4.138 0 6.197-.157a10.002 10.002 0 005.684-2.288c1.393 1.826 3.225 2.712 5.527 2.416.228 3.35.188 6.539-2.172 9.152l-.002-.006zm3.287-11.495c-.905 0-1.754.094-2.574-.022-1.288-.181-2.045-1.114-2.646-2.191a2.88 2.88 0 00-.48-.72 1.095 1.095 0 00-1.611.156c-1.464 1.91-3.54 2.594-5.793 2.73-2.334.141-4.68.055-7.02.085-.516.008-.536-.274-.455-.642.761-3.444 3.16-7.074 7.86-7.942 2.307-.424 4.606-.313 6.787.603 3.277 1.362 5.177 3.889 5.922 7.32.023.207.024.416.005.623h.005zm23.112-.455c0 1.648-1.017 2.661-2.67 2.661-2.245 0-4.489.012-6.732 0a1.705 1.705 0 00-1.312.514c-.668.671-1.359 1.318-2.154 2.085v-1.3c-.019-.865-.441-1.293-1.306-1.296h-7.58c-.01-.097-.03-.156-.015-.167 1.287-1.162 1.15-2.588.748-4.057-.47-1.721-1.223-3.303-2.422-4.62-.595-.657-.571-1.331-.374-2.053.3-1.105 1.241-1.747 2.477-1.749h18.677c1.65 0 2.662 1.012 2.662 2.662.003 2.442.002 4.882-.003 7.32h.004z"/><path d="M52.339 9.507a1.157 1.157 0 00-1.165 1.14 1.145 1.145 0 001.569 1.11 1.182 1.182 0 00.752-1.086 1.192 1.192 0 00-1.156-1.164zm-6.353.006a1.166 1.166 0 00-1.096 1.591 1.164 1.164 0 001.907.39 1.141 1.141 0 00.325-.82 1.128 1.128 0 00-1.136-1.161zm-6.403.001a1.182 1.182 0 00-1.148 1.173 1.184 1.184 0 001.226 1.15 1.156 1.156 0 001.096-1.2 1.149 1.149 0 00-1.174-1.123z"/></g><defs><clipPath id="clip0_112_653"><path fill="#fff" d="M0 0h60v60H0z"/></clipPath></defs></svg>