<svg width="60" height="60" viewBox="0 0 60 60" fill="none" xmlns="http://www.w3.org/2000/svg"><g clip-path="url(#clip0_112_646)"><path d="M0 48.433c.313-.626.805-.89 1.515-.845.711.044 1.44.01 2.226.01.013-.239.035-.444.035-.648v-4.394c0-1.031.42-1.476 1.45-1.484a8.873 8.873 0 003.844-.906c2.965-1.434 6.07-2.387 9.366-2.542 1.566-.076 3.147.119 4.72.194.157.008.299.042.48.069.204-1.722.412-3.399.6-5.083.338-3.045.687-6.088.991-9.138.241-2.432.363-4.868-.157-7.29-.255-1.196-.012-2.322.59-3.5-4.21.263-8.39.867-12.501 1.806.103.233.178.409.26.581 1.443 3.05 2.84 6.12 4.355 9.134.61 1.212.58 2.349.178 3.55-.919 2.764-3.506 4.506-6.604 4.457-3.709-.057-6.284-2.553-6.44-6.261a2.44 2.44 0 01.205-1.07c1.712-3.803 3.455-7.595 5.166-11.397a1.635 1.635 0 011.202-.99A78.482 78.482 0 0125.1 10.56c.23-.016.458-.052.697-.08-1.072-3.074-.659-5.095 1.31-6.542a4.878 4.878 0 015.793.031c1.949 1.47 2.348 3.494 1.261 6.506 1.212.113 2.413.216 3.614.338a76.184 76.184 0 0110.824 1.9 1.51 1.51 0 011.068.906c1.74 3.835 3.511 7.656 5.207 11.51.233.528.216 1.232.122 1.824-.532 3.311-3.192 5.49-6.575 5.46-3.707-.031-6.196-2.2-6.669-5.884-.06-.537.025-1.08.245-1.573 1.493-3.24 3.038-6.458 4.566-9.683.081-.173.156-.349.26-.576a77.573 77.573 0 00-12.411-1.816c.063.193.092.313.142.436.407.956.587 1.942.367 2.974-.595 2.774-.374 5.564-.088 8.34.448 4.348.98 8.687 1.478 13.03 0 .058.023.112.048.228.531-.078 1.059-.181 1.59-.23 4.07-.38 7.955.344 11.706 1.947 1.263.542 2.589.94 3.902 1.364.38.12.813.08 1.221.099.997.044 1.423.47 1.428 1.452V47.6h2.46c.862.009 1.31.438 1.314 1.29a453.1 453.1 0 010 5.214c0 .847-.446 1.309-1.305 1.315-2.42.016-4.842.016-7.264 0-.783 0-1.27-.485-1.274-1.162 0-.704.49-1.164 1.313-1.169 1.835-.013 3.671 0 5.506 0h.653V49.97H2.384v3.112h.728c7.201 0 14.411.014 21.617-.011 1.47 0 2.64.43 3.56 1.628.873 1.138 2.414 1.042 3.287-.107.677-.89 1.611-1.421 2.7-1.457 2.261-.077 17.051-.05 19.315-.034a1.108 1.108 0 011.118 1.123 1.155 1.155 0 01-1.016 1.17 4.173 4.173 0 01-.642.03c-1.855 0-16.233.008-18.089 0-.737 0-1.311.23-1.733.876-1.186 1.822-4.588 2.053-6.261.407a.497.497 0 01-.082-.081c-.715-1.17-1.817-1.226-3.05-1.22-7.38.041-14.763.014-22.144.032-.72 0-1.294-.157-1.683-.792L0 48.433zm30.002-7.015a12.66 12.66 0 013.757-2.65c.142-.066.248-.409.227-.607-.478-4.402-1.005-8.8-1.46-13.205-.314-3.01-.527-6.028.087-9.039.24-1.175-.223-2.12-1.203-2.772-.915-.607-1.892-.604-2.806 0-.974.651-1.383 1.565-1.239 2.768.174 1.45.454 2.92.367 4.361-.224 3.679-.61 7.346-.966 11.016-.226 2.31-.52 4.613-.761 6.922-.019.179.097.482.235.548a12.73 12.73 0 013.762 2.658zm-1.171 6.146c0-.795-.105-1.565.021-2.304.26-1.514-.529-2.422-1.621-3.214-.079-.058-.157-.117-.237-.172-2.078-1.451-4.438-1.984-6.917-1.985-3.071.002-6.108.65-8.912 1.902-1.278.56-2.622.972-3.947 1.424a6.62 6.62 0 01-1.052.188v4.161h22.665zm25.018-4.21c-2.376-.11-4.348-1.4-6.507-2.158-3.186-1.118-6.456-1.655-9.833-1.096-2.25.376-4.254 1.252-5.83 2.964-.195.21-.47.47-.47.706-.049 1.252-.024 2.517-.024 3.777h22.672l-.008-4.192zM7.887 24.615h7.367l-3.756-7.93-3.611 7.93zm36.856 0h7.358c-1.206-2.643-2.38-5.223-3.608-7.919-1.272 2.7-2.502 5.28-3.75 7.912v.006zM29.984 10.367a2.47 2.47 0 002.52-2.505 2.505 2.505 0 00-4.275-1.786 2.505 2.505 0 00-.732 1.753 2.47 2.47 0 002.487 2.533v.005zm14.312 16.648c.273 1.924 2.082 3.131 4.453 3.047 2.074-.082 3.637-1.342 3.757-3.047h-8.21zM15.694 27H7.697a1.52 1.52 0 00-.22.03c.227 1.754 1.878 3.005 3.946 3.044 1.985.038 3.812-.816 4.27-3.076V27z" fill="#FCCB45"/></g><defs><clipPath id="clip0_112_646"><path fill="#fff" d="M0 0h60v60H0z"/></clipPath></defs></svg>