<svg width="60" height="60" viewBox="0 0 60 60" fill="none" xmlns="http://www.w3.org/2000/svg"><g clip-path="url(#clip0_112_675)" fill="#FCCB45"><path d="M59.749 41.951c-.032-.998-.337-1.363-1.33-1.505-.212-.032-.426-.054-.636-.1-2.916-.636-5.31-2.19-7.42-4.234-.991-.961-1.418-.974-2.386-.016a16.78 16.78 0 01-3.443 2.647c-2.612-2.916-5.805-4.883-9.517-6.092.106-.128.156-.19.205-.245 2.958-3.148 4.84-6.73 4.58-11.197-.02-.329.13-.47.39-.626 1.27-.77 1.935-1.908 1.902-3.401-.034-1.52-.782-2.61-2.092-3.357a.884.884 0 01-.396-.54c-1.007-5.848-4.273-9.785-9.872-11.78-.165-.059-.381-.172-.438-.312-.24-.617-.713-.954-1.29-1.193H22.97c-.393.38-.783.768-1.184 1.136-.138.126-.301.22-.479.277a14.452 14.452 0 00-4.834 2.553c-2.912 2.363-4.661 5.4-5.247 9.11-.05.313-.084.589-.46.783-2.715 1.432-2.828 5.096-.21 6.699a.812.812 0 01.448.782c.038 1.11.013 2.238.226 3.318.573 2.916 2.111 5.34 4.099 7.502l.44.485c-.21.077-.337.125-.47.17-2.307.782-4.457 1.877-6.362 3.41C3.753 40.392 1.1 45.969.077 52.408c-.428 2.682.975 4.374 3.673 4.639.116.013.233.02.35.022 2.463.015 14.4.03 19.325.043.142.008.286.008.427.008 6.64 0 13.278-.003 19.915-.01.526 0 .914.11 1.275.519.41.447.862.851 1.351 1.208 2.035 1.537 3.6 1.582 5.554-.045a21.737 21.737 0 003.029-3.159c3.194-3.988 4.932-8.512 4.774-13.682zM37.21 13.386a4.155 4.155 0 01-.44.046c-1.797 0-3.592-.011-5.387.012-.404 0-.566-.133-.703-.505-1.055-2.908-1.292-5.926-1.278-9.037 3.839 1.181 7.306 5.096 7.811 9.484h-.003zM24.013 2.363h3.037c0 3.711.061 7.413 1.33 11.022h-5.707C23.93 9.8 23.98 6.116 24.016 2.363h-.003zm-2.348 1.462c-.019 3.118-.227 6.196-1.309 9.156-.098.272-.195.47-.558.47-1.97-.02-3.938-.01-5.909-.013a1.833 1.833 0 01-.275-.044c.25-3.913 3.884-8.492 8.054-9.569h-.003zm-9.38 14.927a1.465 1.465 0 01-1.277-1.384 1.462 1.462 0 011.138-1.557c.249-.05.502-.074.756-.07h24.944c.273-.006.546.02.813.076a1.473 1.473 0 011.116 1.523 1.471 1.471 0 01-1.252 1.408 6.06 6.06 0 01-.819.035H13.041a5.86 5.86 0 01-.753-.031h-.003zm1.29 5.748c-.313-1.042-.247-2.19-.365-3.37h24.234c.094 1.23.107 2.458-.29 3.63-1.696 5.008-5.01 8.408-10.107 9.957-1.45.44-2.912.273-4.3-.285-4.62-1.857-7.76-5.129-9.17-9.932h-.002zm19.058 17.035l-4.695-4.57a3.61 3.61 0 01.377-.17 13.813 13.813 0 004.122-2.043c.669-.49 1.237-.04 1.8.156.188.064.291.576.313.892.2 2.152-.54 4.01-1.914 5.735h-.003zm-9.885-4.478l-4.61 4.482c-1.466-1.878-2.242-3.887-1.85-6.236a.753.753 0 01.381-.47c.742-.343 1.38-.29 2.143.203 1.231.79 2.61 1.353 3.939 2.021h-.003zM41.924 54.8H24.68c-2.636-.017-17.794.025-20.426-.072-1.778-.066-2.192-.626-1.824-2.37.34-1.699.797-3.372 1.368-5.008 1.664-4.53 4.401-8.237 8.646-10.702.432-.25.88-.47 1.352-.725.067.76.085 1.442.194 2.11.387 2.359 1.645 4.27 3.191 6.016.47.536 1.154.52 1.722 0 .768-.721 1.513-1.47 2.27-2.203 1.397-1.359 2.796-2.716 4.225-4.096.177.169.332.313.484.47a14638.1 14638.1 0 005.927 5.751c.626.601 1.293.656 1.795.09 1.409-1.564 2.584-3.286 3.057-5.386.194-.866.238-1.764.35-2.642 1.229.313 4.284 2.504 5.298 3.811a6.8 6.8 0 01-.682.22c-.525.146-1.058.265-1.595.356-1.149.166-1.441.482-1.468 1.628-.097 4.396 1.127 8.39 3.618 12.006.15.216.288.44.489.745l-.748.001zm14.868-7.475c-1.083 3.638-3.093 6.711-5.836 9.303-1.443 1.362-2.159 1.38-3.59 0-3.31-3.193-5.646-6.944-6.306-11.582-.11-.767-.124-1.55-.187-2.364 3.237-.722 5.9-2.325 8.283-4.472 2.384 2.141 5.037 3.756 8.25 4.459a16.137 16.137 0 01-.61 4.656h-.004z"/><path d="M47.358 47.808a1.141 1.141 0 00-1.608.258 1.15 1.15 0 00.216 1.575 40.202 40.202 0 002.043 1.565c.485.347 1.04.333 1.441-.096a244.407 244.407 0 003.925-4.329c.313-.347.392-.83.116-1.194-.222-.296-.626-.606-.956-.626-.33-.02-.782.228-1.042.496-1.002 1.033-1.949 2.12-2.957 3.23-.43-.328-.79-.622-1.178-.88z"/></g><defs><clipPath id="clip0_112_675"><path fill="#fff" d="M0 0h60v60H0z"/></clipPath></defs></svg>