<svg width="60" height="60" viewBox="0 0 60 60" fill="none" xmlns="http://www.w3.org/2000/svg"><path d="M31.879 0c1.117.154 2.23.305 3.352.461.212.03.422.072.632.118.736.162 1.16.738 1.028 1.383-.132.646-.736 1-1.468.921-1.878-.198-3.767-.563-5.64-.507-10.73.323-19.001 5.11-24.051 14.553C.31 27.053 1.298 37.052 7.839 46.495c.11.158.235.301.353.443 2.874-1.056 5.244-.392 6.582 1.822a4.915 4.915 0 01-7.166 6.465c-2.057-1.55-2.485-3.976-1.162-6.684a31.225 31.225 0 01-3.672-6.012C-4.986 25.899 4.22 5.952 21.933 1.117c1.848-.51 3.792-.685 5.69-1.015.17-.03.34-.068.51-.102h3.746zM10.56 48.729a2.575 2.575 0 102.582 2.553 2.582 2.582 0 00-2.582-2.553zM60 31.865c-.15 1.1-.272 2.203-.455 3.296C57.6 46.78 48.565 56.43 37.109 59.14a30.546 30.546 0 01-12.55.352c-.077-.014-.151-.037-.227-.054-.864-.187-1.268-.678-1.145-1.398.124-.72.704-1.056 1.56-.895 6.322 1.143 12.388.37 18.055-2.68 7.863-4.232 12.749-10.77 14.377-19.567 1.449-7.827-.352-14.979-5.01-21.422-.102-.142-.211-.278-.257-.34-.875.162-1.684.421-2.499.44-2.196.047-4.13-1.48-4.71-3.6a4.921 4.921 0 018.08-4.91 4.854 4.854 0 011.057 5.787c-.235.456-.182.722.111 1.115 3.509 4.674 5.492 9.927 5.95 15.759.023.172.056.342.099.51v3.628zM49.438 11.25a2.575 2.575 0 10-2.56-2.573 2.582 2.582 0 002.56 2.57v.003zm-7.481-7.991a1.18 1.18 0 01-1.192 1.174 1.205 1.205 0 01-1.14-1.174 1.167 1.167 0 011.2-1.157 1.15 1.15 0 011.132 1.157zM20.425 56.762a1.132 1.132 0 01-1.167 1.128 1.16 1.16 0 01-1.157-1.153 1.187 1.187 0 011.21-1.173 1.16 1.16 0 011.114 1.198z" fill="#FCCB45"/><path d="M35.857 21.088h6.157c1.206 0 1.574.366 1.574 1.571v19.382c0 1.154-.386 1.534-1.553 1.535h-6.5c-.895 0-1.438-.454-1.43-1.183.008-.729.545-1.154 1.455-1.158h5.649v-9.389c-.877.293-1.755.656-2.668.866-.615.141-1.28.08-1.923.083-1.791.009-3.583 0-5.447 0 0 .405.012.77 0 1.134-.03.704-.523 1.208-1.173 1.204-.65-.003-1.136-.502-1.163-1.214-.013-.352 0-.697 0-1.123h-.655c-1.718 0-3.436-.03-5.153.009-1.501.034-2.912-.207-4.218-1.151v9.575h18.609c.855 0 1.389.455 1.392 1.163.003.707-.533 1.173-1.379 1.173H17.788c-.924 0-1.367-.443-1.369-1.364V22.468c0-.959.436-1.386 1.409-1.388h6.324v-1.133c.027-2.026 1.537-3.534 3.574-3.55 1.521-.011 3.044-.011 4.567 0 2.034.017 3.54 1.526 3.569 3.556 0 .357-.005.707-.005 1.135zm5.38 2.381h-22.47c0 1.291-.047 2.535.014 3.778.072 1.495 1.205 2.782 2.678 3.093a8.006 8.006 0 001.628.118c4.858.008 9.717.008 14.578 0 1.92 0 3.471-1.409 3.56-3.253.06-1.23.012-2.46.012-3.736zM26.52 21.046h6.995v-.856c-.006-1.034-.418-1.442-1.466-1.445-1.151 0-2.305.047-3.453-.01-2.09-.106-2.22.624-2.076 2.31z" fill="#FCCB45"/></svg>