<svg width="16" height="16" viewBox="0 0 16 16" fill="none" xmlns="http://www.w3.org/2000/svg"><path d="M8 .507C4.928.507 2.011.234.897 3.092.437 4.272.503 5.804.503 7.999c0 1.926-.061 3.736.394 4.907 1.111 2.859 4.052 2.585 7.101 2.585 2.942 0 5.975.306 7.103-2.585.461-1.193.393-2.702.393-4.907 0-2.927.162-4.816-1.258-6.235C12.796.327 10.851.507 7.995.507H8zm-.672 1.35c6.408-.01 7.224-.722 6.774 9.167-.16 3.497-2.825 3.113-6.101 3.113-5.973 0-6.145-.17-6.145-6.141 0-6.04.474-6.135 5.472-6.14v.001zm4.674 1.244a.9.9 0 100 1.798.9.9 0 000-1.798zM8 4.15a3.848 3.848 0 100 7.694 3.847 3.847 0 100-7.693zM8 5.5c3.304 0 3.308 4.995 0 4.995-3.303 0-3.308-4.994 0-4.994z" fill="#fff"/></svg>