<svg width="14" height="12" viewBox="0 0 14 12" fill="none" xmlns="http://www.w3.org/2000/svg"><path fill-rule="evenodd" clip-rule="evenodd" d="M12.282 1.065c.578.17 1.034.665 1.19 1.294.29 1.15.278 3.546.278 3.546s0 2.384-.278 3.533c-.156.63-.612 1.126-1.19 1.295-1.056.303-5.282.303-5.282.303s-4.215 0-5.282-.315c-.578-.17-1.034-.665-1.19-1.295C.25 8.29.25 5.893.25 5.893s0-2.384.278-3.534c.156-.629.623-1.137 1.19-1.306C2.774.75 7 .75 7 .75s4.226 0 5.282.315zM9.985 5.893L5.577 8.464V3.321l4.408 2.572z" fill="#F3F5FC"/></svg>