<svg width="12" height="13" viewBox="0 0 12 13" fill="none" xmlns="http://www.w3.org/2000/svg"><path fill-rule="evenodd" clip-rule="evenodd" d="M3.597 9.924v-.001a1.808 1.808 0 001.49.165A1.796 1.796 0 006.32 8.385L6.324 0h1.95c.003.197.023.386.06.573H6.918l-.003 8.388a1.785 1.785 0 01.001-.002L6.918.574h1.419a3.06 3.06 0 001.15 1.848 3.02 3.02 0 001.837 1.152v1.438a4.94 4.94 0 01-1.94-.396 4.854 4.854 0 01-1.104-.648l.01 4.435a3.724 3.724 0 01-1.104 2.638 3.745 3.745 0 01-2.666 1.097c-.846 0-1.65-.277-2.31-.788a3.703 3.703 0 01-.865-2.391 3.706 3.706 0 01.066-.707 3.73 3.73 0 00.797 3.102A3.728 3.728 0 01.75 8.39a3.75 3.75 0 011.099-2.653 3.749 3.749 0 012.67-1.104c.191 0 .382.015.567.042V6.68a1.848 1.848 0 00-.566-.09 1.797 1.797 0 00-1.802 1.82c.01.644.362 1.205.879 1.514z" fill="#F3F5FC"/><path d="M11.324 3.039v.534A3.02 3.02 0 019.487 2.42c.51.389 1.144.618 1.832.618h.005z" fill="#F3F5FC"/></svg>