<svg width="60" height="60" viewBox="0 0 60 60" fill="none" xmlns="http://www.w3.org/2000/svg"><g clip-path="url(#clip0_103_296)"><path d="M60 2.104c-.157 1.137-.285 2.278-.47 3.411-1.318 8.03-3.926 15.543-9.1 21.958-1.512 1.879-3.288 3.537-4.966 5.323.313.808.772 1.722 1.03 2.688.749 2.8.138 5.343-1.705 7.565-2.2 2.652-5.114 4.186-8.375 5.074-1.268.344-2.607.438-3.914.615a1.107 1.107 0 01-1.238-.688c-.232-.524-.085-.983.304-1.388 1.485-1.552 2.127-3.42 2.057-5.548-.029-.891-.267-1.029-1.078-.74a138.335 138.335 0 01-4.482 1.522c-1.21.382-1.396.354-2.576.083-.033.02-.08.033-.094.063-1.428 2.992-3.848 4.767-6.998 5.553-1.87.47-3.773.798-5.672 1.124-.932.157-1.545-.441-1.448-1.359.279-2.647.797-5.238 1.824-7.713.894-2.156 2.422-3.698 4.436-4.802.154-.084.306-.17.456-.258.016-.008.02-.031.063-.1-.519-1.165-.044-2.297.313-3.422.393-1.253.858-2.466 1.307-3.693.238-.655.072-.94-.64-.982-2.103-.107-3.969.485-5.542 1.915-.072.065-.143.133-.216.197-.403.361-.857.459-1.351.225-.495-.233-.672-.626-.661-1.143.047-2.356.626-4.588 1.583-6.731.839-1.89 1.931-3.614 3.433-5.054 2.877-2.76 6.418-3.337 10.032-1.637.313.148.626.313.975.488a2.75 2.75 0 00.276-.255c4.674-5.57 10.625-9.22 17.432-11.574A55.028 55.028 0 0158.12.025c.797-.07 1.48 0 1.887.795L60 2.104zm-5.393 13.12c-.075-.09-.157-.2-.243-.292a4614.19 4614.19 0 00-9.288-9.268.732.732 0 00-.636-.138c-3.452 1.295-6.71 2.962-9.643 5.209-5.27 4.04-9.064 9.252-11.95 15.185-.156.33-.094.512.149.752a3446.32 3446.32 0 0110.31 10.317c.29.292.51.313.855.131 1.027-.56 2.089-1.058 3.103-1.64 8.012-4.6 13.947-11.01 17.163-19.776.055-.154.111-.298.18-.48zm-40.72 9.88c3.047-1.195 5.21-1.383 6.922-.697a4544.74 4544.74 0 004.853-7.917c-2.127-1.442-5.082-1.264-7.252.541-2.17 1.805-3.425 4.252-4.237 6.93-.1.347-.174.702-.285 1.144zm21.04 20.918c.086.02.125.042.156.034 3.131-.742 5.923-2.074 7.997-4.618 1.846-2.266 1.703-5.065.415-7.098l-7.881 4.836c.784 2.306.252 4.57-.687 6.846zm-21.163.156c.107.006.214.006.321 0 2.085-.332 4.134-.783 6.035-1.756 1.555-.783 2.538-2.095 3.231-3.643a.667.667 0 00-.11-.595 148.31 148.31 0 00-3.436-3.435.67.67 0 00-.598-.096c-1.398.627-2.619 1.486-3.405 2.834-1.192 2.037-1.62 4.315-2.038 6.691zm33.764-41.72l8.006 8.007a51.664 51.664 0 002.008-10.02 52.422 52.422 0 00-10.014 2.012zM31.195 38.453L21.54 28.8c-.429 1.389-.91 2.829-1.296 4.293-.08.305.089.804.313 1.042a224.642 224.642 0 005.3 5.3c.24.231.738.402 1.043.322 1.47-.393 2.91-.874 4.3-1.304h-.005z" fill="#3E579E"/><path d="M1.407 59.994C.363 59.32.288 58.618 1.174 57.73c2.468-2.47 4.936-4.938 7.407-7.404.146-.157.308-.297.483-.42a1.139 1.139 0 011.445.157 1.157 1.157 0 01.141 1.45 3.562 3.562 0 01-.47.52c-2.37 2.374-4.742 4.745-7.116 7.114-.3.3-.636.564-.954.844l-.703.002zm9.376 0c-1.045-.673-1.12-1.376-.235-2.263 2.468-2.47 4.937-4.938 7.407-7.404.147-.156.309-.297.484-.42a1.139 1.139 0 011.445.157 1.156 1.156 0 01.14 1.45 3.62 3.62 0 01-.47.52 9179.224 9179.224 0 01-7.117 7.114c-.3.3-.635.564-.954.844l-.7.002zm-.344-19.15c-.246.426-.363.774-.595 1.008-2.58 2.61-5.17 5.204-7.771 7.783-.539.535-1.253.541-1.722.067-.47-.474-.47-1.171.069-1.722 2.585-2.599 5.175-5.193 7.77-7.782.397-.398.887-.598 1.372-.313.346.21.572.615.877.96zm13.463 12.982c-.313-.266-.682-.48-.91-.797a.912.912 0 01.121-1.19 134.79 134.79 0 013.506-3.511c.444-.428 1.105-.356 1.535.064a1.132 1.132 0 01.066 1.584 138.455 138.455 0 01-3.425 3.425c-.193.187-.506.246-.893.425zM6.29 35.797c.079-.142.18-.47.395-.693a142.797 142.797 0 013.226-3.236c.506-.496 1.221-.495 1.679-.042.457.452.486 1.152-.025 1.676a281.497 281.497 0 01-3.274 3.274 1.096 1.096 0 01-1.29.26c-.457-.2-.687-.556-.71-1.239z" fill="#FBBA07"/><path d="M42.23 23.583a5.818 5.818 0 01-5.818-5.86 5.855 5.855 0 015.845-5.847c3.234 0 5.905 2.693 5.858 5.904a5.844 5.844 0 01-5.885 5.803zm.036-2.348a3.498 3.498 0 003.507-3.498 3.529 3.529 0 00-3.496-3.52 3.499 3.499 0 00-3.265 2.183c-.175.43-.263.891-.258 1.356a3.473 3.473 0 003.512 3.485v-.006zm-5.314 3.07c-.237.405-.358.718-.57.95a28.654 28.654 0 01-1.52 1.53c-.55.524-1.252.536-1.722.062-.47-.474-.458-1.166.066-1.722a40.05 40.05 0 011.614-1.603c.371-.35.853-.49 1.28-.196.337.235.558.622.852.979zm-6.292 6.19a1.134 1.134 0 01-1.16-1.137 1.154 1.154 0 011.967-.849 1.173 1.173 0 01.352.84 1.156 1.156 0 01-1.158 1.146z" fill="#3E579E"/></g><defs><clipPath id="clip0_103_296"><path fill="#fff" d="M0 0h60v60H0z"/></clipPath></defs></svg>